%TF.GenerationSoftware,Altium Limited,Altium Designer,21.1.1 (26)*%
G04 Layer_Color=8388736*
%FSLAX42Y42*%
%MOMM*%
%TF.SameCoordinates,4B38A6DA-841C-4E6F-8FC0-14FCB5F023F9*%
%TF.FilePolarity,Negative*%
%TF.FileFunction,Soldermask,Top*%
%TF.Part,Single*%
G01*
G75*
%TA.AperFunction,ComponentPad*%
%ADD27C,2.00*%
%ADD28R,2.00X2.00*%
%ADD29C,1.55*%
%TA.AperFunction,ViaPad*%
%ADD30C,1.47*%
%ADD31C,0.97*%
%TA.AperFunction,FiducialPad,Global*%
%ADD35C,2.00*%
%TA.AperFunction,SMDPad,CuDef*%
%ADD36R,2.70X7.70*%
%ADD37R,1.67X1.17*%
%ADD38R,3.70X3.40*%
%ADD39R,1.20X1.60*%
%ADD40R,11.10X9.30*%
%ADD41R,1.25X2.70*%
%ADD42R,2.25X2.45*%
%ADD43R,1.17X1.67*%
D27*
X7039Y10935D02*
D03*
X7539D02*
D03*
X8039D02*
D03*
D28*
X8539D02*
D03*
D29*
X8799Y10575D02*
D03*
D30*
X8547Y10211D02*
D03*
X9461Y7137D02*
D03*
D31*
X10820Y9512D02*
D03*
X7976Y8115D02*
D03*
X9969Y6160D02*
D03*
X7029Y10215D02*
D03*
X9119Y9830D02*
D03*
X10249Y9671D02*
D03*
D35*
X6617Y11392D02*
D03*
X11125Y5588D02*
D03*
D36*
X9969Y7263D02*
D03*
Y5843D02*
D03*
X7963Y9232D02*
D03*
Y7812D02*
D03*
D37*
X10249Y9283D02*
D03*
Y9449D02*
D03*
D38*
X9519Y8306D02*
D03*
X10419D02*
D03*
D39*
X9278Y9474D02*
D03*
X9468D02*
D03*
Y9246D02*
D03*
X9278D02*
D03*
D40*
X9639Y10846D02*
D03*
D41*
X9979Y9856D02*
D03*
X9809D02*
D03*
X9639D02*
D03*
X9469D02*
D03*
X9299D02*
D03*
D42*
X10795Y10018D02*
D03*
Y9589D02*
D03*
D43*
X8922Y9830D02*
D03*
X8756D02*
D03*
X9810Y9271D02*
D03*
X9976D02*
D03*
%TF.MD5,46e7a73ef7e02570696adb5b817dde6e*%
M02*
