%TF.GenerationSoftware,Altium Limited,Altium Designer,21.1.1 (26)*%
G04 Layer_Physical_Order=1*
G04 Layer_Color=255*
%FSLAX42Y42*%
%MOMM*%
%TF.SameCoordinates,421AD0F8-EA99-4668-A15B-16ED363E75F7*%
%TF.FilePolarity,Positive*%
%TF.FileFunction,Copper,L1,Top,Signal*%
%TF.Part,Single*%
G01*
G75*
%TA.AperFunction,SMDPad,CuDef*%
%ADD10R,1.00X1.40*%
%ADD11R,10.90X9.10*%
%ADD12R,1.05X2.50*%
%ADD13R,3.50X3.20*%
%ADD14R,2.25X2.05*%
%ADD15R,1.47X0.97*%
%ADD16R,7.50X2.50*%
%ADD17R,2.50X7.50*%
%ADD18R,0.97X1.47*%
%TA.AperFunction,Conductor*%
%ADD19C,0.51*%
%TA.AperFunction,NonConductor*%
%ADD20C,0.51*%
%TA.AperFunction,Conductor*%
%ADD21C,0.25*%
%TA.AperFunction,ComponentPad*%
%ADD22C,1.80*%
%ADD23C,1.35*%
%ADD24R,1.80X1.80*%
%TA.AperFunction,ViaPad*%
%ADD25C,1.27*%
%ADD26C,0.76*%
G36*
X6858Y10850D02*
X6852Y10843D01*
X6846Y10835D01*
X6841Y10828D01*
X6837Y10820D01*
X6834Y10813D01*
X6831Y10805D01*
X6829Y10797D01*
X6828Y10789D01*
X6828Y10782D01*
X6777D01*
X6777Y10789D01*
X6776Y10797D01*
X6774Y10805D01*
X6771Y10813D01*
X6768Y10820D01*
X6764Y10828D01*
X6759Y10835D01*
X6753Y10843D01*
X6747Y10850D01*
X6739Y10858D01*
X6865D01*
X6858Y10850D01*
D02*
G37*
G36*
X8348Y10832D02*
X8344Y10830D01*
X8340Y10828D01*
X8337Y10824D01*
X8334Y10820D01*
X8332Y10814D01*
X8330Y10807D01*
X8329Y10800D01*
X8328Y10791D01*
X8328Y10782D01*
X8277D01*
X8277Y10791D01*
X8276Y10800D01*
X8275Y10807D01*
X8273Y10814D01*
X8271Y10820D01*
X8268Y10824D01*
X8265Y10828D01*
X8261Y10830D01*
X8257Y10832D01*
X8252Y10832D01*
X8353D01*
X8348Y10832D01*
D02*
G37*
G36*
X7363Y10854D02*
X7352Y10838D01*
X7347Y10830D01*
X7343Y10823D01*
X7340Y10815D01*
X7337Y10807D01*
X7336Y10799D01*
X7335Y10791D01*
X7334Y10784D01*
X7283Y10780D01*
X7283Y10788D01*
X7282Y10796D01*
X7280Y10803D01*
X7277Y10811D01*
X7274Y10818D01*
X7269Y10826D01*
X7264Y10833D01*
X7258Y10840D01*
X7252Y10847D01*
X7244Y10853D01*
X7370Y10862D01*
X7363Y10854D01*
D02*
G37*
G36*
X9665Y10022D02*
X9666Y10013D01*
X9667Y10005D01*
X9669Y9999D01*
X9671Y9993D01*
X9674Y9988D01*
X9677Y9985D01*
X9681Y9982D01*
X9685Y9981D01*
X9690Y9980D01*
X9589D01*
X9593Y9981D01*
X9598Y9982D01*
X9601Y9985D01*
X9605Y9988D01*
X9608Y9993D01*
X9610Y9999D01*
X9612Y10005D01*
X9613Y10013D01*
X9614Y10022D01*
X9614Y10031D01*
X9665D01*
X9665Y10022D01*
D02*
G37*
G36*
X7334Y9948D02*
X7335Y9941D01*
X7336Y9936D01*
X7338Y9930D01*
X7339Y9925D01*
X7342Y9921D01*
X7344Y9916D01*
X7347Y9912D01*
X7351Y9908D01*
X7355Y9905D01*
X7266Y9896D01*
X7270Y9900D01*
X7273Y9904D01*
X7275Y9909D01*
X7277Y9914D01*
X7279Y9919D01*
X7281Y9925D01*
X7282Y9930D01*
X7283Y9936D01*
X7283Y9942D01*
X7283Y9948D01*
X7334Y9954D01*
X7334Y9948D01*
D02*
G37*
G36*
X8328Y9882D02*
X8329Y9876D01*
X8330Y9870D01*
X8331Y9864D01*
X8333Y9859D01*
X8335Y9854D01*
X8337Y9849D01*
X8340Y9845D01*
X8343Y9841D01*
X8347Y9837D01*
X8258D01*
X8262Y9841D01*
X8265Y9845D01*
X8268Y9849D01*
X8270Y9854D01*
X8272Y9859D01*
X8274Y9864D01*
X8275Y9870D01*
X8276Y9876D01*
X8277Y9882D01*
X8277Y9888D01*
X8328D01*
X8328Y9882D01*
D02*
G37*
G36*
X9247Y9779D02*
X9247Y9784D01*
X9245Y9788D01*
X9243Y9792D01*
X9239Y9795D01*
X9235Y9798D01*
X9229Y9800D01*
X9222Y9802D01*
X9215Y9803D01*
X9206Y9804D01*
X9196Y9804D01*
Y9855D01*
X9206Y9855D01*
X9215Y9856D01*
X9222Y9857D01*
X9229Y9859D01*
X9235Y9862D01*
X9239Y9864D01*
X9243Y9868D01*
X9245Y9871D01*
X9247Y9876D01*
X9247Y9881D01*
Y9779D01*
D02*
G37*
G36*
X10022Y9731D02*
X10018Y9729D01*
X10014Y9727D01*
X10011Y9723D01*
X10008Y9719D01*
X10006Y9713D01*
X10004Y9706D01*
X10003Y9699D01*
X10002Y9690D01*
X10002Y9680D01*
X9951D01*
X9951Y9690D01*
X9950Y9699D01*
X9949Y9706D01*
X9947Y9713D01*
X9945Y9718D01*
X9942Y9723D01*
X9939Y9727D01*
X9936Y9729D01*
X9932Y9731D01*
X9927Y9731D01*
X10027Y9731D01*
X10022Y9731D01*
D02*
G37*
G36*
X9856Y9731D02*
X9852Y9729D01*
X9848Y9727D01*
X9845Y9723D01*
X9842Y9719D01*
X9840Y9713D01*
X9838Y9706D01*
X9837Y9699D01*
X9836Y9690D01*
X9836Y9680D01*
X9785D01*
X9785Y9690D01*
X9784Y9699D01*
X9783Y9706D01*
X9781Y9713D01*
X9779Y9719D01*
X9776Y9723D01*
X9772Y9727D01*
X9769Y9729D01*
X9764Y9731D01*
X9760Y9731D01*
X9861D01*
X9856Y9731D01*
D02*
G37*
G36*
X9514Y9731D02*
X9509Y9729D01*
X9505Y9727D01*
X9502Y9723D01*
X9499Y9719D01*
X9497Y9713D01*
X9495Y9706D01*
X9494Y9699D01*
X9493Y9690D01*
X9493Y9680D01*
X9442D01*
X9442Y9690D01*
X9441Y9699D01*
X9440Y9706D01*
X9438Y9713D01*
X9436Y9718D01*
X9433Y9723D01*
X9430Y9727D01*
X9426Y9729D01*
X9422Y9731D01*
X9417Y9731D01*
X9518Y9731D01*
X9514Y9731D01*
D02*
G37*
G36*
X9324Y9731D02*
X9319Y9729D01*
X9315Y9727D01*
X9312Y9723D01*
X9309Y9719D01*
X9307Y9713D01*
X9305Y9706D01*
X9304Y9699D01*
X9303Y9690D01*
X9303Y9680D01*
X9252D01*
X9252Y9690D01*
X9250Y9727D01*
X9249Y9729D01*
X9248Y9731D01*
X9247Y9731D01*
X9328Y9731D01*
X9324Y9731D01*
D02*
G37*
G36*
X9493Y9585D02*
X9494Y9576D01*
X9495Y9569D01*
X9497Y9562D01*
X9499Y9557D01*
X9502Y9552D01*
X9505Y9548D01*
X9509Y9546D01*
X9513Y9544D01*
X9517Y9544D01*
X9418D01*
X9423Y9544D01*
X9427Y9546D01*
X9430Y9548D01*
X9433Y9552D01*
X9436Y9557D01*
X9438Y9562D01*
X9440Y9569D01*
X9441Y9576D01*
X9442Y9585D01*
X9442Y9595D01*
X9493D01*
X9493Y9585D01*
D02*
G37*
G36*
X9303D02*
X9304Y9576D01*
X9305Y9569D01*
X9307Y9562D01*
X9309Y9557D01*
X9312Y9552D01*
X9315Y9548D01*
X9319Y9546D01*
X9323Y9544D01*
X9327Y9544D01*
X9228D01*
X9233Y9544D01*
X9237Y9546D01*
X9240Y9548D01*
X9243Y9552D01*
X9246Y9557D01*
X9248Y9562D01*
X9250Y9569D01*
X9251Y9576D01*
X9252Y9585D01*
X9252Y9595D01*
X9303D01*
X9303Y9585D01*
D02*
G37*
G36*
X8725Y9500D02*
X8726Y9491D01*
X8727Y9484D01*
X8729Y9477D01*
X8731Y9471D01*
X8734Y9467D01*
X8737Y9463D01*
X8741Y9461D01*
X8745Y9459D01*
X8750Y9459D01*
X8649D01*
X8654Y9459D01*
X8658Y9461D01*
X8662Y9463D01*
X8665Y9467D01*
X8668Y9471D01*
X8670Y9477D01*
X8672Y9484D01*
X8673Y9491D01*
X8674Y9500D01*
X8674Y9510D01*
X8725D01*
X8725Y9500D01*
D02*
G37*
G36*
X8079Y9437D02*
X8080Y9437D01*
X8082Y9437D01*
X8086Y9436D01*
X8099Y9436D01*
X8103Y9436D01*
Y9385D01*
X8079Y9384D01*
Y9437D01*
X8079Y9437D01*
D02*
G37*
G36*
X8025Y9384D02*
X8024Y9384D01*
X8023Y9384D01*
X8022Y9385D01*
X8018Y9385D01*
X8005Y9385D01*
X8001Y9385D01*
Y9436D01*
X8025Y9437D01*
Y9384D01*
D02*
G37*
G36*
X8626Y9363D02*
X8626Y9367D01*
X8624Y9371D01*
X8622Y9374D01*
X8618Y9377D01*
X8614Y9380D01*
X8608Y9382D01*
X8601Y9383D01*
X8594Y9384D01*
X8585Y9385D01*
X8576Y9385D01*
Y9436D01*
X8585Y9436D01*
X8594Y9437D01*
X8601Y9438D01*
X8608Y9440D01*
X8614Y9442D01*
X8618Y9444D01*
X8622Y9447D01*
X8624Y9451D01*
X8626Y9455D01*
X8626Y9459D01*
Y9363D01*
D02*
G37*
G36*
X7183Y9465D02*
X7190Y9459D01*
X7198Y9454D01*
X7207Y9449D01*
X7215Y9445D01*
X7224Y9442D01*
X7233Y9439D01*
X7242Y9438D01*
X7252Y9436D01*
X7262Y9436D01*
Y9385D01*
X7252Y9385D01*
X7242Y9384D01*
X7233Y9382D01*
X7224Y9380D01*
X7215Y9376D01*
X7207Y9372D01*
X7198Y9368D01*
X7190Y9362D01*
X7183Y9356D01*
X7175Y9349D01*
X7129Y9375D01*
X7136Y9382D01*
X7141Y9389D01*
X7144Y9396D01*
X7146Y9404D01*
X7147Y9411D01*
X7146Y9418D01*
X7144Y9425D01*
X7141Y9432D01*
X7136Y9439D01*
X7129Y9447D01*
X7175Y9472D01*
X7183Y9465D01*
D02*
G37*
G36*
X10002Y9385D02*
X10003Y9377D01*
X10004Y9369D01*
X10005Y9362D01*
X10007Y9357D01*
X10010Y9352D01*
X10013Y9349D01*
X10016Y9346D01*
X10020Y9345D01*
X10024Y9344D01*
X9928D01*
X9932Y9345D01*
X9936Y9346D01*
X9940Y9349D01*
X9943Y9352D01*
X9945Y9357D01*
X9947Y9362D01*
X9949Y9369D01*
X9950Y9377D01*
X9951Y9385D01*
X9951Y9395D01*
X10002D01*
X10002Y9385D01*
D02*
G37*
G36*
X9836D02*
X9837Y9377D01*
X9838Y9369D01*
X9839Y9362D01*
X9841Y9357D01*
X9844Y9352D01*
X9847Y9349D01*
X9850Y9346D01*
X9854Y9345D01*
X9858Y9344D01*
X9762D01*
X9766Y9345D01*
X9770Y9346D01*
X9774Y9349D01*
X9777Y9352D01*
X9779Y9357D01*
X9781Y9362D01*
X9783Y9369D01*
X9784Y9377D01*
X9785Y9385D01*
X9785Y9395D01*
X9836D01*
X9836Y9385D01*
D02*
G37*
G36*
X9513Y9404D02*
X9509Y9402D01*
X9505Y9400D01*
X9502Y9396D01*
X9499Y9392D01*
X9497Y9386D01*
X9495Y9380D01*
X9494Y9372D01*
X9493Y9363D01*
X9493Y9360D01*
X9493Y9356D01*
X9494Y9348D01*
X9495Y9340D01*
X9497Y9334D01*
X9499Y9328D01*
X9502Y9323D01*
X9505Y9320D01*
X9509Y9317D01*
X9513Y9316D01*
X9517Y9315D01*
X9418D01*
X9423Y9316D01*
X9427Y9317D01*
X9430Y9320D01*
X9433Y9323D01*
X9436Y9328D01*
X9438Y9334D01*
X9440Y9340D01*
X9441Y9348D01*
X9442Y9356D01*
X9442Y9360D01*
X9442Y9363D01*
X9441Y9372D01*
X9440Y9380D01*
X9438Y9386D01*
X9436Y9392D01*
X9433Y9396D01*
X9430Y9400D01*
X9427Y9402D01*
X9423Y9404D01*
X9418Y9405D01*
X9517D01*
X9513Y9404D01*
D02*
G37*
G36*
X8773Y9289D02*
X8775Y9285D01*
X8777Y9281D01*
X8781Y9278D01*
X8785Y9276D01*
X8791Y9274D01*
X8798Y9272D01*
X8805Y9271D01*
X8814Y9270D01*
X8823Y9270D01*
Y9219D01*
X8814Y9219D01*
X8805Y9218D01*
X8798Y9217D01*
X8791Y9216D01*
X8785Y9214D01*
X8781Y9211D01*
X8777Y9208D01*
X8775Y9205D01*
X8773Y9201D01*
X8773Y9197D01*
Y9293D01*
X8773Y9289D01*
D02*
G37*
G36*
X9228Y9194D02*
X9227Y9199D01*
X9226Y9203D01*
X9223Y9207D01*
X9220Y9210D01*
X9215Y9213D01*
X9210Y9215D01*
X9203Y9217D01*
X9195Y9218D01*
X9187Y9219D01*
X9177Y9219D01*
Y9270D01*
X9187Y9270D01*
X9195Y9271D01*
X9203Y9272D01*
X9210Y9274D01*
X9215Y9276D01*
X9220Y9279D01*
X9223Y9283D01*
X9226Y9286D01*
X9227Y9291D01*
X9228Y9296D01*
Y9194D01*
D02*
G37*
G36*
X10020Y9197D02*
X10016Y9196D01*
X10013Y9193D01*
X10010Y9190D01*
X10007Y9185D01*
X10005Y9180D01*
X10004Y9173D01*
X10003Y9165D01*
X10002Y9157D01*
X10002Y9147D01*
X9951D01*
X9951Y9157D01*
X9950Y9165D01*
X9949Y9173D01*
X9947Y9180D01*
X9945Y9185D01*
X9943Y9190D01*
X9940Y9193D01*
X9936Y9196D01*
X9932Y9197D01*
X9928Y9198D01*
X10024D01*
X10020Y9197D01*
D02*
G37*
G36*
X8745Y9196D02*
X8741Y9194D01*
X8737Y9192D01*
X8734Y9188D01*
X8731Y9184D01*
X8729Y9178D01*
X8727Y9172D01*
X8726Y9164D01*
X8725Y9155D01*
X8725Y9146D01*
X8674D01*
X8674Y9155D01*
X8673Y9164D01*
X8672Y9172D01*
X8670Y9178D01*
X8668Y9184D01*
X8665Y9188D01*
X8662Y9192D01*
X8658Y9194D01*
X8654Y9196D01*
X8649Y9197D01*
X8750D01*
X8745Y9196D01*
D02*
G37*
G36*
X10002Y9081D02*
X9951Y8968D01*
X9951Y8978D01*
X9950Y8985D01*
X9948Y8991D01*
X9946Y8996D01*
X9943Y8998D01*
X9939Y8999D01*
X9935Y8999D01*
X9930Y8996D01*
X9924Y8992D01*
X9918Y8986D01*
X9915Y9055D01*
X9922Y9062D01*
X9928Y9070D01*
X9933Y9078D01*
X9938Y9086D01*
X9942Y9095D01*
X9945Y9104D01*
X9948Y9113D01*
X9949Y9122D01*
X9951Y9132D01*
X9951Y9142D01*
X10002Y9081D01*
D02*
G37*
G36*
X9765Y9045D02*
X9769Y9042D01*
X9773Y9039D01*
X9778Y9037D01*
X9783Y9034D01*
X9788Y9033D01*
X9794Y9031D01*
X9799Y9030D01*
X9805Y9030D01*
X9812Y9030D01*
Y8979D01*
X9805Y8979D01*
X9799Y8978D01*
X9794Y8977D01*
X9788Y8976D01*
X9783Y8974D01*
X9778Y8972D01*
X9773Y8970D01*
X9769Y8967D01*
X9765Y8963D01*
X9761Y8960D01*
Y9049D01*
X9765Y9045D01*
D02*
G37*
G36*
X8725Y8532D02*
X8725Y8522D01*
X8726Y8512D01*
X8728Y8503D01*
X8731Y8494D01*
X8734Y8485D01*
X8738Y8477D01*
X8743Y8468D01*
X8748Y8460D01*
X8754Y8453D01*
X8761Y8446D01*
X8682Y8453D01*
X8646Y8489D01*
X8638Y8568D01*
X8645Y8562D01*
X8651Y8557D01*
X8656Y8554D01*
X8661Y8553D01*
X8665Y8554D01*
X8668Y8556D01*
X8671Y8560D01*
X8673Y8566D01*
X8674Y8574D01*
X8674Y8583D01*
X8725Y8532D01*
D02*
G37*
G36*
X8598Y8630D02*
X8599Y8625D01*
X8600Y8620D01*
X8601Y8615D01*
X8603Y8610D01*
X8606Y8605D01*
X8609Y8600D01*
X8612Y8595D01*
X8616Y8590D01*
X8620Y8586D01*
X8585Y8550D01*
X8580Y8554D01*
X8575Y8558D01*
X8570Y8562D01*
X8566Y8565D01*
X8561Y8567D01*
X8556Y8569D01*
X8551Y8571D01*
X8546Y8572D01*
X8540Y8572D01*
X8535Y8573D01*
X8598Y8635D01*
X8598Y8630D01*
D02*
G37*
G36*
X10452Y8507D02*
X10453Y8498D01*
X10454Y8490D01*
X10456Y8484D01*
X10458Y8478D01*
X10461Y8474D01*
X10465Y8470D01*
X10468Y8468D01*
X10473Y8466D01*
X10478Y8465D01*
X10376D01*
X10381Y8466D01*
X10385Y8468D01*
X10389Y8470D01*
X10392Y8474D01*
X10395Y8478D01*
X10397Y8484D01*
X10399Y8490D01*
X10400Y8498D01*
X10401Y8507D01*
X10401Y8516D01*
X10452D01*
X10452Y8507D01*
D02*
G37*
G36*
X6644Y8484D02*
X6644Y8476D01*
X6646Y8468D01*
X6647Y8461D01*
X6650Y8456D01*
X6652Y8451D01*
X6656Y8448D01*
X6660Y8445D01*
X6664Y8444D01*
X6669Y8443D01*
X6567D01*
X6572Y8444D01*
X6576Y8445D01*
X6580Y8448D01*
X6583Y8451D01*
X6586Y8456D01*
X6588Y8461D01*
X6590Y8468D01*
X6591Y8476D01*
X6592Y8484D01*
X6593Y8494D01*
X6643D01*
X6644Y8484D01*
D02*
G37*
G36*
X8834Y8373D02*
X8841Y8367D01*
X8849Y8362D01*
X8858Y8357D01*
X8866Y8353D01*
X8875Y8350D01*
X8884Y8347D01*
X8893Y8345D01*
X8903Y8344D01*
X8913Y8344D01*
X8852Y8293D01*
X8740Y8344D01*
X8749Y8344D01*
X8757Y8345D01*
X8762Y8347D01*
X8767Y8350D01*
X8769Y8353D01*
X8770Y8357D01*
X8768Y8362D01*
X8766Y8367D01*
X8761Y8373D01*
X8755Y8380D01*
X8826D01*
X8834Y8373D01*
D02*
G37*
G36*
X9345Y8268D02*
X9345Y8273D01*
X9343Y8277D01*
X9341Y8281D01*
X9337Y8284D01*
X9332Y8287D01*
X9327Y8289D01*
X9320Y8291D01*
X9312Y8292D01*
X9304Y8293D01*
X9294Y8293D01*
Y8344D01*
X9304Y8344D01*
X9312Y8345D01*
X9320Y8346D01*
X9327Y8348D01*
X9332Y8350D01*
X9337Y8353D01*
X9341Y8356D01*
X9343Y8360D01*
X9345Y8364D01*
X9345Y8369D01*
Y8268D01*
D02*
G37*
G36*
X8413Y8364D02*
X8414Y8360D01*
X8417Y8356D01*
X8420Y8353D01*
X8425Y8350D01*
X8431Y8348D01*
X8437Y8346D01*
X8445Y8345D01*
X8454Y8344D01*
X8463Y8344D01*
Y8293D01*
X8454Y8293D01*
X8445Y8292D01*
X8437Y8291D01*
X8431Y8289D01*
X8425Y8287D01*
X8420Y8284D01*
X8417Y8281D01*
X8414Y8277D01*
X8413Y8273D01*
X8412Y8268D01*
Y8369D01*
X8413Y8364D01*
D02*
G37*
G36*
X10594Y8354D02*
X10596Y8350D01*
X10598Y8346D01*
X10602Y8343D01*
X10607Y8340D01*
X10612Y8337D01*
X10619Y8336D01*
X10627Y8334D01*
X10635Y8334D01*
X10645Y8333D01*
Y8283D01*
X10635Y8282D01*
X10627Y8282D01*
X10619Y8280D01*
X10612Y8279D01*
X10607Y8276D01*
X10602Y8273D01*
X10598Y8270D01*
X10596Y8266D01*
X10594Y8262D01*
X10594Y8257D01*
Y8359D01*
X10594Y8354D01*
D02*
G37*
G36*
X6664Y8194D02*
X6660Y8192D01*
X6656Y8190D01*
X6652Y8186D01*
X6650Y8181D01*
X6647Y8176D01*
X6646Y8169D01*
X6644Y8161D01*
X6644Y8153D01*
X6643Y8143D01*
X6593D01*
X6592Y8153D01*
X6591Y8161D01*
X6590Y8169D01*
X6588Y8176D01*
X6586Y8181D01*
X6583Y8186D01*
X6580Y8190D01*
X6576Y8192D01*
X6572Y8194D01*
X6567Y8194D01*
X6669D01*
X6664Y8194D01*
D02*
G37*
G36*
X10002Y7552D02*
X10003Y7543D01*
X10004Y7536D01*
X10006Y7529D01*
X10008Y7523D01*
X10011Y7519D01*
X10014Y7515D01*
X10018Y7513D01*
X10022Y7511D01*
X10027Y7511D01*
X9925D01*
X9930Y7511D01*
X9935Y7513D01*
X9938Y7515D01*
X9942Y7519D01*
X9945Y7523D01*
X9947Y7529D01*
X9949Y7536D01*
X9950Y7543D01*
X9951Y7552D01*
X9951Y7562D01*
X10002D01*
X10002Y7552D01*
D02*
G37*
G36*
X11128Y7096D02*
X11128Y7100D01*
X11126Y7104D01*
X11124Y7108D01*
X11120Y7111D01*
X11116Y7113D01*
X11110Y7115D01*
X11103Y7117D01*
X11096Y7118D01*
X11087Y7119D01*
X11077Y7119D01*
Y7170D01*
X11087Y7170D01*
X11096Y7171D01*
X11103Y7172D01*
X11110Y7173D01*
X11116Y7175D01*
X11120Y7178D01*
X11124Y7181D01*
X11126Y7184D01*
X11128Y7188D01*
X11128Y7192D01*
Y7096D01*
D02*
G37*
G36*
X10069Y7190D02*
X10071Y7186D01*
X10073Y7182D01*
X10077Y7179D01*
X10081Y7176D01*
X10087Y7174D01*
X10094Y7172D01*
X10101Y7171D01*
X10110Y7170D01*
X10120Y7170D01*
Y7119D01*
X10110Y7119D01*
X10101Y7118D01*
X10094Y7117D01*
X10087Y7115D01*
X10081Y7112D01*
X10077Y7110D01*
X10073Y7106D01*
X10071Y7103D01*
X10069Y7098D01*
X10068Y7093D01*
Y7195D01*
X10069Y7190D01*
D02*
G37*
G36*
X11247Y6930D02*
X11243Y6928D01*
X11239Y6926D01*
X11236Y6922D01*
X11233Y6918D01*
X11231Y6912D01*
X11229Y6905D01*
X11228Y6898D01*
X11227Y6889D01*
X11227Y6879D01*
X11176D01*
X11176Y6889D01*
X11175Y6898D01*
X11174Y6905D01*
X11172Y6912D01*
X11170Y6918D01*
X11167Y6922D01*
X11164Y6926D01*
X11160Y6928D01*
X11155Y6930D01*
X11151Y6930D01*
X11252D01*
X11247Y6930D01*
D02*
G37*
G36*
X11228Y6441D02*
X11175D01*
X11175Y6441D01*
X11175Y6442D01*
X11175Y6443D01*
X11176Y6447D01*
X11176Y6460D01*
X11176Y6465D01*
X11227D01*
X11228Y6441D01*
D02*
G37*
G36*
X11228Y6386D02*
X11228Y6385D01*
X11227Y6384D01*
X11227Y6380D01*
X11227Y6367D01*
X11227Y6362D01*
X11176D01*
X11175Y6386D01*
X11228D01*
X11228Y6386D01*
D02*
G37*
G36*
X8056Y6308D02*
X8056Y6291D01*
X8006Y6292D01*
X8006Y6293D01*
X8006Y6294D01*
X8005Y6295D01*
X8004Y6297D01*
X8003Y6298D01*
X7994Y6308D01*
X7991Y6311D01*
X8030Y6344D01*
X8056Y6308D01*
D02*
G37*
G36*
X8073Y6290D02*
X8110Y6265D01*
X8076Y6226D01*
X8073Y6229D01*
X8064Y6238D01*
X8062Y6239D01*
X8060Y6240D01*
X8059Y6240D01*
X8058Y6241D01*
X8057Y6240D01*
X8056Y6291D01*
X8073Y6290D01*
D02*
G37*
G36*
X11671Y5884D02*
X11671Y5875D01*
X11673Y5867D01*
X11674Y5861D01*
X11677Y5855D01*
X11680Y5851D01*
X11683Y5847D01*
X11687Y5845D01*
X11691Y5843D01*
X11696Y5843D01*
X11594D01*
X11599Y5843D01*
X11603Y5845D01*
X11607Y5847D01*
X11610Y5851D01*
X11613Y5855D01*
X11616Y5861D01*
X11617Y5867D01*
X11619Y5875D01*
X11619Y5884D01*
X11620Y5893D01*
X11670D01*
X11671Y5884D01*
D02*
G37*
G36*
X11227D02*
X11228Y5875D01*
X11229Y5867D01*
X11231Y5861D01*
X11233Y5855D01*
X11236Y5851D01*
X11239Y5847D01*
X11243Y5845D01*
X11247Y5843D01*
X11252Y5843D01*
X11151D01*
X11155Y5843D01*
X11160Y5845D01*
X11164Y5847D01*
X11167Y5851D01*
X11170Y5855D01*
X11172Y5861D01*
X11174Y5867D01*
X11175Y5875D01*
X11176Y5884D01*
X11176Y5893D01*
X11227D01*
X11227Y5884D01*
D02*
G37*
G36*
X11103Y5690D02*
X11103Y5694D01*
X11101Y5699D01*
X11099Y5703D01*
X11095Y5706D01*
X11090Y5709D01*
X11085Y5711D01*
X11078Y5713D01*
X11070Y5714D01*
X11062Y5715D01*
X11052Y5715D01*
Y5766D01*
X11062Y5766D01*
X11070Y5767D01*
X11078Y5768D01*
X11085Y5770D01*
X11090Y5772D01*
X11095Y5775D01*
X11099Y5778D01*
X11101Y5782D01*
X11103Y5786D01*
X11103Y5791D01*
Y5690D01*
D02*
G37*
G36*
X10069Y5786D02*
X10071Y5782D01*
X10073Y5778D01*
X10077Y5775D01*
X10081Y5772D01*
X10087Y5770D01*
X10094Y5768D01*
X10101Y5767D01*
X10110Y5766D01*
X10120Y5766D01*
Y5715D01*
X10110Y5715D01*
X10101Y5714D01*
X10094Y5713D01*
X10087Y5711D01*
X10081Y5709D01*
X10077Y5706D01*
X10073Y5703D01*
X10071Y5699D01*
X10069Y5694D01*
X10068Y5690D01*
Y5791D01*
X10069Y5786D01*
D02*
G37*
G36*
X9819Y5690D02*
X9819Y5694D01*
X9817Y5699D01*
X9815Y5703D01*
X9811Y5706D01*
X9807Y5709D01*
X9801Y5711D01*
X9795Y5713D01*
X9787Y5714D01*
X9778Y5715D01*
X9769Y5715D01*
Y5766D01*
X9778Y5766D01*
X9787Y5767D01*
X9795Y5768D01*
X9801Y5770D01*
X9807Y5772D01*
X9811Y5775D01*
X9815Y5778D01*
X9817Y5782D01*
X9819Y5786D01*
X9819Y5791D01*
Y5690D01*
D02*
G37*
D10*
X9278Y9474D02*
D03*
X9468D02*
D03*
Y9246D02*
D03*
X9278D02*
D03*
D11*
X9639Y10846D02*
D03*
D12*
X9979Y9856D02*
D03*
X9809D02*
D03*
X9639D02*
D03*
X9469D02*
D03*
X9299D02*
D03*
D13*
X10419Y8306D02*
D03*
X9519D02*
D03*
D14*
X11645Y5740D02*
D03*
X11215D02*
D03*
D15*
X8700Y9411D02*
D03*
Y9245D02*
D03*
X11201Y6978D02*
D03*
Y7144D02*
D03*
D16*
X6618Y8318D02*
D03*
X8038D02*
D03*
D17*
X9944Y5716D02*
D03*
Y7136D02*
D03*
D18*
X9810Y9271D02*
D03*
X9976D02*
D03*
D19*
X10806Y8308D02*
X11645Y7468D01*
X7803Y10922D02*
X7811Y10930D01*
X6618Y7720D02*
X8598Y5740D01*
X9976Y9081D02*
Y9246D01*
X9715Y9004D02*
X9900D01*
X9952Y7144D02*
X11201D01*
X9900Y9004D02*
X9976Y9081D01*
Y7168D02*
Y9081D01*
X9953Y9248D02*
X9976Y9271D01*
X9953Y9217D02*
Y9248D01*
X7309Y9862D02*
Y10916D01*
X7303Y10922D02*
X7309Y10916D01*
Y9862D02*
X7315Y9855D01*
X8534Y8636D02*
X8700Y8471D01*
Y9245D01*
Y8471D02*
X8852Y8318D01*
X8303Y9792D02*
Y10922D01*
X6803Y9809D02*
Y10922D01*
Y9809D02*
X7201Y9411D01*
X8052D02*
X8700D01*
X9277Y9245D02*
X9278Y9246D01*
X11645Y5740D02*
Y7468D01*
X9809Y9783D02*
Y9856D01*
X10427Y8313D02*
Y10020D01*
X9639Y9856D02*
Y10046D01*
X9690Y10096D02*
X10350D01*
X9639Y10046D02*
X9690Y10096D01*
X10419Y8306D02*
X10427Y8313D01*
X8890Y9830D02*
X9272D01*
X10350Y10096D02*
X10427Y10020D01*
X9952Y7144D02*
X9976Y7168D01*
X10419Y8306D02*
X10422Y8308D01*
X10806D01*
X9944Y7136D02*
X9952Y7144D01*
X9920Y5740D02*
X9944Y5716D01*
X9968Y5740D01*
X11215D01*
X9468Y9246D02*
Y9474D01*
X9278D02*
Y9824D01*
X8700Y9411D02*
Y9639D01*
X9809Y9856D02*
X9810Y9855D01*
X9976Y9853D02*
X9979Y9856D01*
X9810Y9271D02*
Y9855D01*
X9976Y9271D02*
Y9853D01*
X6618Y7720D02*
Y8318D01*
Y8828D02*
X7201Y9411D01*
X9272Y9830D02*
X9278Y9824D01*
X7201Y9411D02*
X8052D01*
X6618Y8318D02*
Y8828D01*
X9468Y9474D02*
Y9854D01*
X11201Y5754D02*
Y6414D01*
Y5754D02*
X11214Y5742D01*
X9468Y9854D02*
X9469Y9856D01*
X8700Y9639D02*
X8890Y9830D01*
X8598Y5740D02*
X9920D01*
X11201Y6414D02*
Y6978D01*
X8038Y8318D02*
X8852D01*
X9507D01*
X8700Y9245D02*
X9277D01*
D20*
X8052Y5004D02*
X11951D01*
X6033Y11506D02*
X6033Y11506D01*
X11963Y5017D02*
Y11506D01*
X6033D02*
X11963D01*
X6033Y7023D02*
X8052Y5004D01*
X11951D02*
X11963Y5017D01*
X6033Y7023D02*
Y11506D01*
D21*
X9507Y8318D02*
X9519Y8306D01*
D22*
X7803Y10922D02*
D03*
X7303D02*
D03*
X6803D02*
D03*
D23*
X8562Y10562D02*
D03*
D24*
X8303Y10922D02*
D03*
D25*
X9715Y9004D02*
D03*
X7315Y9855D02*
D03*
X8534Y8636D02*
D03*
X8303Y9792D02*
D03*
D26*
X8052Y9411D02*
D03*
X11201Y6414D02*
D03*
X8039Y6274D02*
D03*
%TF.MD5,bdeb8e6541ed9cf0a69ba5e067267988*%
M02*
