%TF.GenerationSoftware,Altium Limited,Altium Designer,21.1.1 (26)*%
G04 Layer_Physical_Order=2*
G04 Layer_Color=16711680*
%FSLAX42Y42*%
%MOMM*%
%TF.SameCoordinates,421AD0F8-EA99-4668-A15B-16ED363E75F7*%
%TF.FilePolarity,Positive*%
%TF.FileFunction,Copper,L2,Bot,Signal*%
%TF.Part,Single*%
G01*
G75*
%TA.AperFunction,Conductor*%
%ADD19C,0.51*%
%TA.AperFunction,ComponentPad*%
%ADD22C,1.80*%
%ADD23C,1.35*%
%ADD24R,1.80X1.80*%
%TA.AperFunction,ViaPad*%
%ADD25C,1.27*%
%ADD26C,0.76*%
G36*
X11963Y11497D02*
X11963Y5004D01*
X11621Y5004D01*
X8052D01*
X6033Y7023D01*
X6033Y11494D01*
X11954Y11506D01*
X11963Y11497D01*
D02*
G37*
%LPC*%
G36*
X7818Y11037D02*
X7815D01*
Y10935D01*
X7918D01*
Y10937D01*
X7910Y10967D01*
X7895Y10993D01*
X7873Y11014D01*
X7847Y11030D01*
X7818Y11037D01*
D02*
G37*
G36*
X6818D02*
X6815D01*
Y10935D01*
X6918D01*
Y10937D01*
X6910Y10967D01*
X6895Y10993D01*
X6873Y11014D01*
X6847Y11030D01*
X6818Y11037D01*
D02*
G37*
G36*
X7790D02*
X7787D01*
X7758Y11030D01*
X7732Y11014D01*
X7710Y10993D01*
X7695Y10967D01*
X7687Y10937D01*
Y10935D01*
X7790D01*
Y11037D01*
D02*
G37*
G36*
X6790D02*
X6787D01*
X6758Y11030D01*
X6732Y11014D01*
X6710Y10993D01*
X6695Y10967D01*
X6687Y10937D01*
Y10935D01*
X6790D01*
Y11037D01*
D02*
G37*
G36*
X8418D02*
X8187D01*
Y10807D01*
X8418D01*
Y11037D01*
D02*
G37*
G36*
X7918Y10909D02*
X7815D01*
Y10807D01*
X7818D01*
X7847Y10814D01*
X7873Y10830D01*
X7895Y10851D01*
X7910Y10877D01*
X7918Y10907D01*
Y10909D01*
D02*
G37*
G36*
X7790D02*
X7687D01*
Y10907D01*
X7695Y10877D01*
X7710Y10851D01*
X7732Y10830D01*
X7758Y10814D01*
X7787Y10807D01*
X7790D01*
Y10909D01*
D02*
G37*
G36*
X7318Y11037D02*
X7287D01*
X7258Y11030D01*
X7232Y11014D01*
X7210Y10993D01*
X7195Y10967D01*
X7187Y10937D01*
Y10907D01*
X7195Y10877D01*
X7210Y10851D01*
X7232Y10830D01*
X7258Y10814D01*
X7287Y10807D01*
X7318D01*
X7347Y10814D01*
X7373Y10830D01*
X7395Y10851D01*
X7410Y10877D01*
X7418Y10907D01*
Y10937D01*
X7410Y10967D01*
X7395Y10993D01*
X7373Y11014D01*
X7347Y11030D01*
X7318Y11037D01*
D02*
G37*
G36*
X6918Y10909D02*
X6815D01*
Y10807D01*
X6818D01*
X6847Y10814D01*
X6873Y10830D01*
X6895Y10851D01*
X6910Y10877D01*
X6918Y10907D01*
Y10909D01*
D02*
G37*
G36*
X6790D02*
X6687D01*
Y10907D01*
X6695Y10877D01*
X6710Y10851D01*
X6732Y10830D01*
X6758Y10814D01*
X6787Y10807D01*
X6790D01*
Y10909D01*
D02*
G37*
G36*
X8575Y10655D02*
X8550D01*
X8527Y10649D01*
X8505Y10636D01*
X8488Y10619D01*
X8476Y10598D01*
X8470Y10574D01*
Y10550D01*
X8476Y10526D01*
X8488Y10505D01*
X8505Y10488D01*
X8527Y10475D01*
X8550Y10469D01*
X8575D01*
X8598Y10475D01*
X8620Y10488D01*
X8637Y10505D01*
X8649Y10526D01*
X8655Y10550D01*
Y10574D01*
X8649Y10598D01*
X8637Y10619D01*
X8620Y10636D01*
X8598Y10649D01*
X8575Y10655D01*
D02*
G37*
G36*
X8064Y9474D02*
Y9423D01*
X8115D01*
X8106Y9447D01*
X8088Y9465D01*
X8064Y9474D01*
D02*
G37*
G36*
X8039D02*
X8016Y9465D01*
X7998Y9447D01*
X7988Y9423D01*
X8039D01*
Y9474D01*
D02*
G37*
G36*
X8115Y9398D02*
X8064D01*
Y9347D01*
X8088Y9357D01*
X8106Y9375D01*
X8115Y9398D01*
D02*
G37*
G36*
X8039D02*
X7988D01*
X7998Y9375D01*
X8016Y9357D01*
X8039Y9347D01*
Y9398D01*
D02*
G37*
G36*
X8314Y9881D02*
X8291D01*
X8268Y9875D01*
X8248Y9863D01*
X8231Y9846D01*
X8220Y9826D01*
X8214Y9803D01*
Y9780D01*
X8220Y9757D01*
X8231Y9737D01*
X8248Y9721D01*
X8251Y9719D01*
Y9274D01*
X8255Y9254D01*
X8266Y9238D01*
X8536Y8968D01*
X8553Y8956D01*
X8572Y8953D01*
X9643D01*
X9644Y8950D01*
X9661Y8933D01*
X9681Y8921D01*
X9704Y8915D01*
X9727D01*
X9750Y8921D01*
X9770Y8933D01*
X9787Y8950D01*
X9798Y8970D01*
X9804Y8993D01*
Y9016D01*
X9798Y9039D01*
X9787Y9059D01*
X9770Y9075D01*
X9750Y9087D01*
X9727Y9093D01*
X9704D01*
X9681Y9087D01*
X9661Y9075D01*
X9644Y9059D01*
X9643Y9056D01*
X8594D01*
X8354Y9296D01*
Y9719D01*
X8357Y9721D01*
X8374Y9737D01*
X8385Y9757D01*
X8391Y9780D01*
Y9803D01*
X8385Y9826D01*
X8374Y9846D01*
X8357Y9863D01*
X8337Y9875D01*
X8314Y9881D01*
D02*
G37*
G36*
X7327Y9944D02*
X7303D01*
X7281Y9938D01*
X7261Y9926D01*
X7244Y9910D01*
X7232Y9890D01*
X7226Y9867D01*
Y9843D01*
X7232Y9821D01*
X7244Y9801D01*
X7261Y9784D01*
X7281Y9772D01*
X7303Y9766D01*
X7327D01*
X7330Y9767D01*
X8446Y8651D01*
X8446Y8648D01*
Y8624D01*
X8452Y8602D01*
X8463Y8581D01*
X8480Y8565D01*
X8500Y8553D01*
X8523Y8547D01*
X8546D01*
X8569Y8553D01*
X8589Y8565D01*
X8606Y8581D01*
X8617Y8602D01*
X8623Y8624D01*
Y8648D01*
X8617Y8670D01*
X8606Y8691D01*
X8589Y8707D01*
X8569Y8719D01*
X8546Y8725D01*
X8523D01*
X8520Y8724D01*
X7403Y9840D01*
X7404Y9843D01*
Y9867D01*
X7398Y9890D01*
X7386Y9910D01*
X7370Y9926D01*
X7350Y9938D01*
X7327Y9944D01*
D02*
G37*
G36*
X11214Y6477D02*
Y6426D01*
X11265D01*
X11255Y6449D01*
X11237Y6467D01*
X11214Y6477D01*
D02*
G37*
G36*
X11189D02*
X11165Y6467D01*
X11148Y6449D01*
X11138Y6426D01*
X11189D01*
Y6477D01*
D02*
G37*
G36*
X11265Y6401D02*
X11214D01*
Y6350D01*
X11237Y6360D01*
X11255Y6378D01*
X11265Y6401D01*
D02*
G37*
G36*
X11189D02*
X11138D01*
X11148Y6378D01*
X11165Y6360D01*
X11189Y6350D01*
Y6401D01*
D02*
G37*
G36*
X8052Y6337D02*
Y6287D01*
X8103D01*
X8093Y6310D01*
X8075Y6328D01*
X8052Y6337D01*
D02*
G37*
G36*
X8026D02*
X8003Y6328D01*
X7985Y6310D01*
X7976Y6287D01*
X8026D01*
Y6337D01*
D02*
G37*
G36*
X8103Y6261D02*
X8052D01*
Y6210D01*
X8075Y6220D01*
X8093Y6238D01*
X8103Y6261D01*
D02*
G37*
G36*
X8026D02*
X7976D01*
X7985Y6238D01*
X8003Y6220D01*
X8026Y6210D01*
Y6261D01*
D02*
G37*
%LPD*%
D19*
X8303Y9274D02*
Y9792D01*
Y9274D02*
X8572Y9004D01*
X9715D01*
X7315Y9855D02*
X8534Y8636D01*
D22*
X7803Y10922D02*
D03*
X7303D02*
D03*
X6803D02*
D03*
D23*
X8562Y10562D02*
D03*
D24*
X8303Y10922D02*
D03*
D25*
X9715Y9004D02*
D03*
X7315Y9855D02*
D03*
X8534Y8636D02*
D03*
X8303Y9792D02*
D03*
D26*
X8052Y9411D02*
D03*
X11201Y6414D02*
D03*
X8039Y6274D02*
D03*
%TF.MD5,491a2e5807efc5d29d7aafd02a7eb1d7*%
M02*
