%TF.GenerationSoftware,Altium Limited,Altium Designer,21.1.1 (26)*%
G04 Layer_Color=32768*
%FSLAX42Y42*%
%MOMM*%
%TF.SameCoordinates,421AD0F8-EA99-4668-A15B-16ED363E75F7*%
%TF.FilePolarity,Positive*%
%TF.FileFunction,Other,Mechanical_15*%
%TF.Part,Single*%
G01*
G75*
%TA.AperFunction,NonConductor*%
%ADD20C,0.51*%
%ADD44C,0.05*%
D20*
X9273Y9537D02*
X9473D01*
Y9412D02*
Y9537D01*
X9273Y9412D02*
X9473D01*
X9273D02*
Y9537D01*
Y9183D02*
X9473D01*
X9273D02*
Y9308D01*
X9473D01*
Y9183D02*
Y9308D01*
X9126Y10141D02*
Y11056D01*
Y10141D02*
X10152D01*
Y11056D01*
X9126D02*
X10152D01*
X9419Y7806D02*
X10519D01*
X9419D02*
Y8806D01*
X10519D01*
Y7806D02*
Y8806D01*
X11167Y5559D02*
X11693D01*
X11167D02*
Y5921D01*
X11693D01*
Y5559D02*
Y5921D01*
X11591Y5559D02*
X11693Y5662D01*
X8762Y9228D02*
Y9428D01*
X8637Y9228D02*
X8762D01*
X8637D02*
Y9428D01*
X8762D01*
X8278Y7368D02*
Y9268D01*
X6378D02*
X8278D01*
X6378Y7368D02*
Y9268D01*
Y7368D02*
X8278D01*
X11139Y6961D02*
Y7161D01*
X11264D01*
Y6961D02*
Y7161D01*
X11139Y6961D02*
X11264D01*
X8994Y7376D02*
X10894D01*
X8994Y5476D02*
Y7376D01*
Y5476D02*
X10894D01*
Y7376D01*
X9793Y9333D02*
X9993D01*
Y9208D02*
Y9333D01*
X9793Y9208D02*
X9993D01*
X9793D02*
Y9333D01*
D44*
X8665Y10377D02*
Y11187D01*
X6447Y10377D02*
X8665D01*
X6447D02*
Y11187D01*
X8665D01*
%TF.MD5,ba299665634781df1983ffdcc4b8e79c*%
M02*
