%TF.GenerationSoftware,Altium Limited,Altium Designer,21.1.1 (26)*%
G04 Layer_Physical_Order=2*
G04 Layer_Color=16711680*
%FSLAX42Y42*%
%MOMM*%
%TF.SameCoordinates,4B38A6DA-841C-4E6F-8FC0-14FCB5F023F9*%
%TF.FilePolarity,Positive*%
%TF.FileFunction,Copper,L2,Bot,Signal*%
%TF.Part,Single*%
G01*
G75*
%TA.AperFunction,Conductor*%
%ADD19C,0.51*%
%TA.AperFunction,ComponentPad*%
%ADD22C,1.80*%
%ADD23R,1.80X1.80*%
%ADD24C,1.35*%
%TA.AperFunction,ViaPad*%
%ADD25C,1.27*%
%ADD26C,0.76*%
G36*
X11265Y10338D02*
X11265Y5417D01*
X8375D01*
X6502Y7239D01*
Y11495D01*
X10108Y11495D01*
X11265Y10338D01*
D02*
G37*
%LPC*%
G36*
X7054Y11050D02*
X7052D01*
Y10947D01*
X7154D01*
Y10950D01*
X7147Y10979D01*
X7131Y11006D01*
X7110Y11027D01*
X7084Y11042D01*
X7054Y11050D01*
D02*
G37*
G36*
X8054D02*
X8052D01*
Y10947D01*
X8154D01*
Y10950D01*
X8147Y10979D01*
X8131Y11006D01*
X8110Y11027D01*
X8084Y11042D01*
X8054Y11050D01*
D02*
G37*
G36*
X7026D02*
X7024D01*
X6995Y11042D01*
X6968Y11027D01*
X6947Y11006D01*
X6932Y10979D01*
X6924Y10950D01*
Y10947D01*
X7026D01*
Y11050D01*
D02*
G37*
G36*
X8026D02*
X8024D01*
X7995Y11042D01*
X7968Y11027D01*
X7947Y11006D01*
X7932Y10979D01*
X7924Y10950D01*
Y10947D01*
X8026D01*
Y11050D01*
D02*
G37*
G36*
X8654D02*
X8424D01*
Y10819D01*
X8654D01*
Y11050D01*
D02*
G37*
G36*
X8154Y10922D02*
X8052D01*
Y10819D01*
X8054D01*
X8084Y10827D01*
X8110Y10842D01*
X8131Y10864D01*
X8147Y10890D01*
X8154Y10920D01*
Y10922D01*
D02*
G37*
G36*
X8026D02*
X7924D01*
Y10920D01*
X7932Y10890D01*
X7947Y10864D01*
X7968Y10842D01*
X7995Y10827D01*
X8024Y10819D01*
X8026D01*
Y10922D01*
D02*
G37*
G36*
X7554Y11050D02*
X7524D01*
X7495Y11042D01*
X7468Y11027D01*
X7447Y11006D01*
X7432Y10979D01*
X7424Y10950D01*
Y10920D01*
X7432Y10890D01*
X7447Y10864D01*
X7468Y10842D01*
X7495Y10827D01*
X7524Y10819D01*
X7554D01*
X7584Y10827D01*
X7610Y10842D01*
X7631Y10864D01*
X7647Y10890D01*
X7654Y10920D01*
Y10950D01*
X7647Y10979D01*
X7631Y11006D01*
X7610Y11027D01*
X7584Y11042D01*
X7554Y11050D01*
D02*
G37*
G36*
X7154Y10922D02*
X7052D01*
Y10819D01*
X7054D01*
X7084Y10827D01*
X7110Y10842D01*
X7131Y10864D01*
X7147Y10890D01*
X7154Y10920D01*
Y10922D01*
D02*
G37*
G36*
X7026D02*
X6924D01*
Y10920D01*
X6932Y10890D01*
X6947Y10864D01*
X6968Y10842D01*
X6995Y10827D01*
X7024Y10819D01*
X7026D01*
Y10922D01*
D02*
G37*
G36*
X8811Y10668D02*
X8787D01*
X8763Y10661D01*
X8742Y10649D01*
X8725Y10632D01*
X8713Y10611D01*
X8706Y10587D01*
Y10562D01*
X8713Y10539D01*
X8725Y10518D01*
X8742Y10500D01*
X8763Y10488D01*
X8787Y10482D01*
X8811D01*
X8835Y10488D01*
X8856Y10500D01*
X8873Y10518D01*
X8886Y10539D01*
X8892Y10562D01*
Y10587D01*
X8886Y10611D01*
X8873Y10632D01*
X8856Y10649D01*
X8835Y10661D01*
X8811Y10668D01*
D02*
G37*
G36*
X7042Y10278D02*
Y10227D01*
X7093D01*
X7083Y10251D01*
X7065Y10269D01*
X7042Y10278D01*
D02*
G37*
G36*
X7017D02*
X6993Y10269D01*
X6976Y10251D01*
X6966Y10227D01*
X7017D01*
Y10278D01*
D02*
G37*
G36*
X7093Y10202D02*
X7042D01*
Y10151D01*
X7065Y10161D01*
X7083Y10179D01*
X7093Y10202D01*
D02*
G37*
G36*
X7017D02*
X6966D01*
X6976Y10179D01*
X6993Y10161D01*
X7017Y10151D01*
Y10202D01*
D02*
G37*
G36*
X8559Y10300D02*
X8535D01*
X8513Y10294D01*
X8493Y10282D01*
X8476Y10265D01*
X8464Y10245D01*
X8458Y10223D01*
Y10199D01*
X8459Y10196D01*
X8291Y10028D01*
X8280Y10011D01*
X8276Y9992D01*
Y7725D01*
X8280Y7705D01*
X8291Y7688D01*
X8879Y7101D01*
X8879Y7101D01*
X8889Y7094D01*
X8896Y7090D01*
X8915Y7086D01*
X9389D01*
X9390Y7083D01*
X9407Y7066D01*
X9427Y7055D01*
X9450Y7049D01*
X9473D01*
X9496Y7055D01*
X9516Y7066D01*
X9533Y7083D01*
X9544Y7103D01*
X9550Y7126D01*
Y7149D01*
X9544Y7172D01*
X9533Y7192D01*
X9516Y7209D01*
X9496Y7220D01*
X9473Y7226D01*
X9450D01*
X9427Y7220D01*
X9407Y7209D01*
X9390Y7192D01*
X9389Y7189D01*
X8937D01*
X8380Y7746D01*
Y9970D01*
X8532Y10123D01*
X8535Y10122D01*
X8559D01*
X8581Y10128D01*
X8602Y10140D01*
X8618Y10156D01*
X8630Y10176D01*
X8636Y10199D01*
Y10223D01*
X8630Y10245D01*
X8618Y10265D01*
X8602Y10282D01*
X8581Y10294D01*
X8559Y10300D01*
D02*
G37*
G36*
X9131Y9893D02*
Y9843D01*
X9182D01*
X9172Y9866D01*
X9155Y9884D01*
X9131Y9893D01*
D02*
G37*
G36*
X9106D02*
X9083Y9884D01*
X9065Y9866D01*
X9055Y9843D01*
X9106D01*
Y9893D01*
D02*
G37*
G36*
X9182Y9817D02*
X9131D01*
Y9766D01*
X9155Y9776D01*
X9172Y9794D01*
X9182Y9817D01*
D02*
G37*
G36*
X9106D02*
X9055D01*
X9065Y9794D01*
X9083Y9776D01*
X9106Y9766D01*
Y9817D01*
D02*
G37*
G36*
X10262Y9734D02*
Y9683D01*
X10312D01*
X10303Y9707D01*
X10285Y9724D01*
X10262Y9734D01*
D02*
G37*
G36*
X10236D02*
X10213Y9724D01*
X10195Y9707D01*
X10185Y9683D01*
X10236D01*
Y9734D01*
D02*
G37*
G36*
X10312Y9658D02*
X10262D01*
Y9607D01*
X10285Y9617D01*
X10303Y9635D01*
X10312Y9658D01*
D02*
G37*
G36*
X10236D02*
X10185D01*
X10195Y9635D01*
X10213Y9617D01*
X10236Y9607D01*
Y9658D01*
D02*
G37*
G36*
X10833Y9576D02*
Y9525D01*
X10884D01*
X10874Y9548D01*
X10856Y9566D01*
X10833Y9576D01*
D02*
G37*
G36*
X10808D02*
X10784Y9566D01*
X10767Y9548D01*
X10757Y9525D01*
X10808D01*
Y9576D01*
D02*
G37*
G36*
X10884Y9500D02*
X10833D01*
Y9449D01*
X10856Y9458D01*
X10874Y9476D01*
X10884Y9500D01*
D02*
G37*
G36*
X10808D02*
X10757D01*
X10767Y9476D01*
X10784Y9458D01*
X10808Y9449D01*
Y9500D01*
D02*
G37*
G36*
X7988Y8179D02*
Y8128D01*
X8039D01*
X8029Y8151D01*
X8012Y8169D01*
X7988Y8179D01*
D02*
G37*
G36*
X7963D02*
X7940Y8169D01*
X7922Y8151D01*
X7912Y8128D01*
X7963D01*
Y8179D01*
D02*
G37*
G36*
X8039Y8103D02*
X7988D01*
Y8052D01*
X8012Y8061D01*
X8029Y8079D01*
X8039Y8103D01*
D02*
G37*
G36*
X7963D02*
X7912D01*
X7922Y8079D01*
X7940Y8061D01*
X7963Y8052D01*
Y8103D01*
D02*
G37*
G36*
X9982Y6223D02*
Y6172D01*
X10033D01*
X10023Y6195D01*
X10005Y6213D01*
X9982Y6223D01*
D02*
G37*
G36*
X9957D02*
X9934Y6213D01*
X9916Y6195D01*
X9906Y6172D01*
X9957D01*
Y6223D01*
D02*
G37*
G36*
X10033Y6147D02*
X9982D01*
Y6096D01*
X10005Y6106D01*
X10023Y6124D01*
X10033Y6147D01*
D02*
G37*
G36*
X9957D02*
X9906D01*
X9916Y6124D01*
X9934Y6106D01*
X9957Y6096D01*
Y6147D01*
D02*
G37*
%LPD*%
D19*
X8328Y7725D02*
Y9992D01*
Y7725D02*
X8915Y7137D01*
X8328Y9992D02*
X8547Y10211D01*
X8915Y7137D02*
X9461D01*
D22*
X7039Y10935D02*
D03*
X7539D02*
D03*
X8039D02*
D03*
D23*
X8539D02*
D03*
D24*
X8799Y10575D02*
D03*
D25*
X8547Y10211D02*
D03*
X9461Y7137D02*
D03*
D26*
X10820Y9512D02*
D03*
X7976Y8115D02*
D03*
X9969Y6160D02*
D03*
X7029Y10215D02*
D03*
X9119Y9830D02*
D03*
X10249Y9671D02*
D03*
%TF.MD5,f04ab3df888c57fcf76a51cab81381b0*%
M02*
