%TF.GenerationSoftware,Altium Limited,Altium Designer,21.1.1 (26)*%
G04 Layer_Color=8421504*
%FSLAX42Y42*%
%MOMM*%
%TF.SameCoordinates,4B38A6DA-841C-4E6F-8FC0-14FCB5F023F9*%
%TF.FilePolarity,Positive*%
%TF.FileFunction,Paste,Top*%
%TF.Part,Single*%
G01*
G75*
%TA.AperFunction,FiducialPad,Global*%
%ADD10C,1.00*%
%TA.AperFunction,SMDPad,CuDef*%
%ADD11R,2.50X7.50*%
%ADD12R,1.47X0.97*%
%ADD13R,3.50X3.20*%
%ADD14R,1.00X1.40*%
%ADD15R,10.90X9.10*%
%ADD16R,1.05X2.50*%
%ADD17R,2.05X2.25*%
%ADD18R,0.97X1.47*%
D10*
X6617Y11392D02*
D03*
X11125Y5588D02*
D03*
D11*
X9969Y7263D02*
D03*
Y5843D02*
D03*
X7963Y9232D02*
D03*
Y7812D02*
D03*
D12*
X10249Y9283D02*
D03*
Y9449D02*
D03*
D13*
X9519Y8306D02*
D03*
X10419D02*
D03*
D14*
X9278Y9474D02*
D03*
X9468D02*
D03*
Y9246D02*
D03*
X9278D02*
D03*
D15*
X9639Y10846D02*
D03*
D16*
X9979Y9856D02*
D03*
X9809D02*
D03*
X9639D02*
D03*
X9469D02*
D03*
X9299D02*
D03*
D17*
X10795Y10018D02*
D03*
Y9589D02*
D03*
D18*
X8922Y9830D02*
D03*
X8756D02*
D03*
X9810Y9271D02*
D03*
X9976D02*
D03*
%TF.MD5,1fccd29cd38535b5fa7e253a322525c9*%
M02*
