%TF.GenerationSoftware,Altium Limited,Altium Designer,21.1.1 (26)*%
G04 Layer_Color=65535*
%FSLAX42Y42*%
%MOMM*%
%TF.SameCoordinates,4B38A6DA-841C-4E6F-8FC0-14FCB5F023F9*%
%TF.FilePolarity,Positive*%
%TF.FileFunction,Legend,Top*%
%TF.Part,Single*%
G01*
G75*
%TA.AperFunction,NonConductor*%
%ADD20C,0.51*%
%ADD32C,0.20*%
%ADD33C,0.25*%
%ADD34C,0.13*%
G36*
X6765Y11260D02*
Y11260D01*
Y11260D01*
Y11259D01*
Y11258D01*
X6765Y11257D01*
Y11256D01*
X6765Y11254D01*
X6765Y11250D01*
X6764Y11247D01*
X6763Y11244D01*
X6762Y11241D01*
Y11241D01*
X6762Y11241D01*
X6762Y11240D01*
X6761Y11239D01*
X6760Y11238D01*
X6759Y11236D01*
X6757Y11234D01*
X6755Y11233D01*
X6753Y11231D01*
X6752Y11231D01*
X6752Y11231D01*
X6750Y11230D01*
X6749Y11230D01*
X6746Y11229D01*
X6744Y11228D01*
X6741Y11228D01*
X6738Y11228D01*
X6737D01*
X6736Y11228D01*
X6735Y11228D01*
X6733Y11228D01*
X6730Y11229D01*
X6727Y11230D01*
X6724Y11231D01*
X6722Y11232D01*
X6721Y11233D01*
X6719Y11234D01*
X6718Y11235D01*
X6718Y11235D01*
X6718Y11235D01*
X6718Y11236D01*
X6717Y11237D01*
X6717Y11237D01*
X6716Y11238D01*
X6715Y11239D01*
X6715Y11241D01*
X6714Y11242D01*
X6714Y11244D01*
X6713Y11245D01*
X6712Y11247D01*
X6712Y11249D01*
X6712Y11252D01*
X6712Y11254D01*
Y11257D01*
X6723Y11259D01*
Y11258D01*
Y11258D01*
Y11258D01*
X6723Y11257D01*
X6724Y11256D01*
Y11255D01*
X6724Y11253D01*
X6724Y11250D01*
X6725Y11248D01*
X6726Y11245D01*
X6727Y11244D01*
X6727Y11243D01*
X6728Y11243D01*
X6728Y11243D01*
X6729Y11242D01*
X6730Y11241D01*
X6732Y11241D01*
X6733Y11240D01*
X6735Y11239D01*
X6738Y11239D01*
X6739D01*
X6739Y11239D01*
X6741Y11240D01*
X6742Y11240D01*
X6743Y11240D01*
X6745Y11241D01*
X6746Y11241D01*
X6746Y11242D01*
X6747Y11242D01*
X6747Y11242D01*
X6748Y11243D01*
X6749Y11244D01*
X6750Y11245D01*
X6750Y11246D01*
X6751Y11248D01*
Y11248D01*
X6751Y11248D01*
X6751Y11249D01*
X6752Y11250D01*
X6752Y11252D01*
X6752Y11254D01*
X6752Y11257D01*
Y11260D01*
Y11327D01*
X6765D01*
Y11260D01*
D02*
G37*
G36*
X6827Y11229D02*
X6815D01*
Y11306D01*
X6814Y11306D01*
X6814Y11305D01*
X6813Y11304D01*
X6812Y11303D01*
X6810Y11302D01*
X6808Y11301D01*
X6806Y11299D01*
X6803Y11297D01*
X6803D01*
X6803Y11297D01*
X6802Y11297D01*
X6801Y11296D01*
X6799Y11295D01*
X6797Y11294D01*
X6795Y11293D01*
X6793Y11292D01*
X6791Y11291D01*
Y11303D01*
X6791D01*
X6791Y11303D01*
X6792Y11303D01*
X6792Y11304D01*
X6793Y11304D01*
X6794Y11305D01*
X6797Y11306D01*
X6799Y11308D01*
X6802Y11310D01*
X6805Y11312D01*
X6808Y11314D01*
X6808Y11314D01*
X6808Y11315D01*
X6809Y11315D01*
X6809Y11315D01*
X6811Y11317D01*
X6812Y11319D01*
X6814Y11321D01*
X6816Y11323D01*
X6817Y11325D01*
X6819Y11327D01*
X6827D01*
Y11229D01*
D02*
G37*
G36*
X8939Y5743D02*
X8939D01*
X8938D01*
X8937D01*
X8936Y5743D01*
X8935Y5743D01*
X8933Y5744D01*
X8932Y5744D01*
X8930Y5745D01*
X8930D01*
X8930Y5745D01*
X8929Y5745D01*
X8928Y5746D01*
X8926Y5746D01*
X8924Y5748D01*
X8922Y5749D01*
X8920Y5750D01*
X8917Y5752D01*
X8917D01*
X8917Y5753D01*
X8916Y5753D01*
X8915Y5755D01*
X8913Y5757D01*
X8911Y5759D01*
X8909Y5761D01*
X8906Y5765D01*
X8903Y5768D01*
X8903Y5768D01*
X8902Y5769D01*
X8902Y5770D01*
X8901Y5771D01*
X8900Y5772D01*
X8898Y5773D01*
X8897Y5775D01*
X8895Y5777D01*
X8892Y5780D01*
X8889Y5784D01*
X8887Y5786D01*
X8885Y5787D01*
X8884Y5789D01*
X8882Y5790D01*
X8882D01*
X8882Y5790D01*
X8881Y5790D01*
X8881Y5791D01*
X8879Y5791D01*
X8877Y5793D01*
X8875Y5794D01*
X8873Y5795D01*
X8870Y5795D01*
X8868Y5795D01*
X8867D01*
X8867D01*
X8866Y5795D01*
X8865Y5795D01*
X8863Y5795D01*
X8862Y5794D01*
X8860Y5793D01*
X8858Y5792D01*
X8856Y5790D01*
X8855Y5790D01*
X8855Y5789D01*
X8854Y5788D01*
X8853Y5787D01*
X8852Y5785D01*
X8851Y5782D01*
X8851Y5780D01*
X8851Y5777D01*
Y5776D01*
X8851Y5775D01*
X8851Y5774D01*
X8851Y5772D01*
X8852Y5770D01*
X8853Y5767D01*
X8854Y5765D01*
X8856Y5763D01*
X8856Y5763D01*
X8857Y5762D01*
X8858Y5761D01*
X8860Y5760D01*
X8862Y5759D01*
X8864Y5759D01*
X8867Y5758D01*
X8870Y5758D01*
X8869Y5745D01*
X8869D01*
X8868Y5746D01*
X8868D01*
X8867Y5746D01*
X8866Y5746D01*
X8864Y5746D01*
X8863Y5747D01*
X8861Y5747D01*
X8858Y5748D01*
X8854Y5750D01*
X8853Y5751D01*
X8851Y5752D01*
X8850Y5753D01*
X8848Y5755D01*
X8848Y5755D01*
X8848Y5755D01*
X8847Y5756D01*
X8847Y5756D01*
X8846Y5757D01*
X8846Y5758D01*
X8845Y5759D01*
X8844Y5761D01*
X8844Y5762D01*
X8843Y5764D01*
X8842Y5766D01*
X8842Y5768D01*
X8842Y5770D01*
X8841Y5772D01*
X8841Y5775D01*
X8841Y5777D01*
Y5779D01*
X8841Y5780D01*
X8841Y5781D01*
X8841Y5782D01*
X8842Y5784D01*
X8842Y5785D01*
X8843Y5789D01*
X8844Y5792D01*
X8845Y5794D01*
X8846Y5796D01*
X8847Y5798D01*
X8849Y5799D01*
X8849Y5800D01*
X8849Y5800D01*
X8850Y5800D01*
X8850Y5801D01*
X8851Y5801D01*
X8852Y5802D01*
X8853Y5803D01*
X8854Y5804D01*
X8857Y5805D01*
X8860Y5806D01*
X8862Y5807D01*
X8864Y5807D01*
X8866Y5808D01*
X8868Y5808D01*
X8868D01*
X8869D01*
X8870Y5808D01*
X8872Y5807D01*
X8873Y5807D01*
X8875Y5807D01*
X8877Y5806D01*
X8879Y5805D01*
X8880Y5805D01*
X8880Y5805D01*
X8882Y5804D01*
X8883Y5803D01*
X8885Y5802D01*
X8887Y5801D01*
X8889Y5799D01*
X8891Y5797D01*
X8892Y5797D01*
X8893Y5796D01*
X8893Y5795D01*
X8894Y5795D01*
X8895Y5794D01*
X8896Y5793D01*
X8897Y5792D01*
X8898Y5790D01*
X8900Y5789D01*
X8901Y5787D01*
X8903Y5785D01*
X8905Y5783D01*
X8906Y5781D01*
X8908Y5779D01*
X8909Y5779D01*
X8909Y5778D01*
X8909Y5778D01*
X8910Y5777D01*
X8911Y5776D01*
X8912Y5775D01*
X8913Y5773D01*
X8916Y5771D01*
X8918Y5768D01*
X8919Y5766D01*
X8920Y5766D01*
X8921Y5765D01*
X8921Y5765D01*
X8921Y5764D01*
X8922Y5764D01*
X8923Y5763D01*
X8924Y5762D01*
X8925Y5761D01*
X8927Y5760D01*
Y5808D01*
X8939D01*
Y5743D01*
D02*
G37*
G36*
X8909Y5734D02*
X8909Y5733D01*
X8911Y5733D01*
X8912Y5733D01*
X8913Y5732D01*
X8915Y5731D01*
X8917Y5730D01*
X8921Y5728D01*
X8925Y5726D01*
X8927Y5724D01*
X8929Y5723D01*
X8930Y5721D01*
X8932Y5719D01*
X8932Y5719D01*
X8933Y5719D01*
X8933Y5718D01*
X8933Y5717D01*
X8934Y5716D01*
X8935Y5715D01*
X8936Y5714D01*
X8936Y5712D01*
X8937Y5710D01*
X8938Y5708D01*
X8938Y5706D01*
X8939Y5704D01*
X8940Y5701D01*
X8940Y5699D01*
X8940Y5696D01*
X8940Y5693D01*
Y5692D01*
X8940Y5691D01*
Y5689D01*
X8940Y5688D01*
X8940Y5686D01*
X8940Y5684D01*
X8939Y5680D01*
X8938Y5676D01*
X8936Y5672D01*
X8935Y5670D01*
X8934Y5668D01*
X8934Y5668D01*
X8934Y5667D01*
X8933Y5667D01*
X8933Y5666D01*
X8932Y5665D01*
X8931Y5664D01*
X8930Y5663D01*
X8929Y5662D01*
X8928Y5661D01*
X8927Y5660D01*
X8924Y5657D01*
X8920Y5655D01*
X8916Y5653D01*
X8915D01*
X8915Y5652D01*
X8914Y5652D01*
X8913Y5652D01*
X8912Y5652D01*
X8911Y5651D01*
X8909Y5651D01*
X8908Y5650D01*
X8906Y5650D01*
X8904Y5649D01*
X8899Y5648D01*
X8894Y5648D01*
X8889Y5648D01*
X8889D01*
X8889D01*
X8888D01*
X8887Y5648D01*
X8885D01*
X8884Y5648D01*
X8882Y5648D01*
X8880Y5648D01*
X8876Y5649D01*
X8872Y5650D01*
X8867Y5651D01*
X8863Y5653D01*
X8863Y5653D01*
X8862Y5654D01*
X8862Y5654D01*
X8861Y5654D01*
X8860Y5655D01*
X8859Y5656D01*
X8856Y5658D01*
X8853Y5660D01*
X8851Y5663D01*
X8848Y5666D01*
X8845Y5670D01*
X8845Y5670D01*
X8845Y5670D01*
X8845Y5671D01*
X8844Y5672D01*
X8844Y5673D01*
X8844Y5674D01*
X8843Y5675D01*
X8842Y5677D01*
X8842Y5679D01*
X8841Y5680D01*
X8841Y5684D01*
X8840Y5689D01*
X8840Y5694D01*
Y5695D01*
X8840Y5696D01*
X8840Y5697D01*
X8840Y5699D01*
X8840Y5700D01*
X8841Y5702D01*
X8841Y5706D01*
X8843Y5710D01*
X8843Y5712D01*
X8844Y5714D01*
X8846Y5716D01*
X8847Y5718D01*
X8847Y5718D01*
X8847Y5719D01*
X8848Y5719D01*
X8848Y5720D01*
X8849Y5721D01*
X8850Y5722D01*
X8851Y5723D01*
X8852Y5724D01*
X8854Y5725D01*
X8855Y5726D01*
X8857Y5727D01*
X8859Y5728D01*
X8861Y5729D01*
X8863Y5730D01*
X8865Y5731D01*
X8868Y5732D01*
X8871Y5719D01*
X8871D01*
X8871Y5719D01*
X8870Y5719D01*
X8869Y5719D01*
X8868Y5718D01*
X8867Y5718D01*
X8865Y5717D01*
X8863Y5716D01*
X8860Y5714D01*
X8858Y5712D01*
X8855Y5709D01*
X8855Y5709D01*
X8855Y5708D01*
X8854Y5707D01*
X8853Y5705D01*
X8852Y5703D01*
X8851Y5700D01*
X8851Y5697D01*
X8851Y5693D01*
Y5692D01*
X8851Y5691D01*
Y5690D01*
X8851Y5689D01*
X8851Y5687D01*
X8852Y5684D01*
X8853Y5681D01*
X8854Y5677D01*
X8856Y5674D01*
Y5674D01*
X8856Y5674D01*
X8857Y5673D01*
X8858Y5672D01*
X8860Y5670D01*
X8862Y5668D01*
X8864Y5667D01*
X8867Y5665D01*
X8871Y5664D01*
X8871D01*
X8871Y5664D01*
X8871Y5663D01*
X8872Y5663D01*
X8873Y5663D01*
X8874Y5663D01*
X8876Y5662D01*
X8879Y5662D01*
X8882Y5661D01*
X8886Y5661D01*
X8889Y5661D01*
X8889D01*
X8890D01*
X8891D01*
X8891D01*
X8892Y5661D01*
X8894D01*
X8895Y5661D01*
X8897Y5661D01*
X8900Y5662D01*
X8904Y5662D01*
X8907Y5663D01*
X8911Y5664D01*
X8911D01*
X8911Y5664D01*
X8912Y5665D01*
X8913Y5665D01*
X8914Y5666D01*
X8916Y5667D01*
X8918Y5669D01*
X8921Y5671D01*
X8923Y5673D01*
X8925Y5676D01*
Y5676D01*
X8925Y5676D01*
X8925Y5676D01*
X8926Y5677D01*
X8926Y5678D01*
X8926Y5679D01*
X8927Y5681D01*
X8928Y5683D01*
X8929Y5686D01*
X8929Y5689D01*
X8929Y5692D01*
Y5693D01*
X8929Y5694D01*
Y5695D01*
X8929Y5696D01*
X8929Y5699D01*
X8928Y5702D01*
X8927Y5705D01*
X8925Y5708D01*
X8924Y5709D01*
X8923Y5711D01*
X8923Y5711D01*
X8923Y5711D01*
X8923Y5711D01*
X8922Y5712D01*
X8921Y5712D01*
X8921Y5713D01*
X8920Y5714D01*
X8919Y5715D01*
X8917Y5716D01*
X8916Y5716D01*
X8915Y5717D01*
X8913Y5718D01*
X8911Y5719D01*
X8909Y5720D01*
X8907Y5720D01*
X8905Y5721D01*
X8908Y5734D01*
X8908D01*
X8909Y5734D01*
D02*
G37*
G36*
X10217Y9156D02*
X10218Y9156D01*
X10219Y9156D01*
X10221Y9156D01*
X10223Y9155D01*
X10227Y9155D01*
X10231Y9153D01*
X10233Y9152D01*
X10235Y9151D01*
X10237Y9150D01*
X10239Y9149D01*
X10239Y9149D01*
X10239Y9149D01*
X10240Y9148D01*
X10241Y9147D01*
X10241Y9147D01*
X10242Y9146D01*
X10243Y9145D01*
X10244Y9144D01*
X10246Y9142D01*
X10247Y9140D01*
X10248Y9139D01*
X10249Y9137D01*
X10250Y9135D01*
X10251Y9133D01*
X10252Y9130D01*
X10253Y9128D01*
X10240Y9125D01*
Y9125D01*
X10240Y9125D01*
X10240Y9126D01*
X10239Y9127D01*
X10239Y9127D01*
X10239Y9129D01*
X10238Y9131D01*
X10236Y9133D01*
X10235Y9136D01*
X10232Y9138D01*
X10230Y9140D01*
X10230Y9141D01*
X10229Y9141D01*
X10228Y9142D01*
X10226Y9143D01*
X10223Y9144D01*
X10221Y9145D01*
X10217Y9145D01*
X10214Y9145D01*
X10213D01*
X10212Y9145D01*
X10211D01*
X10210Y9145D01*
X10207Y9145D01*
X10204Y9144D01*
X10201Y9143D01*
X10198Y9142D01*
X10195Y9140D01*
X10195D01*
X10195Y9140D01*
X10194Y9139D01*
X10193Y9138D01*
X10191Y9136D01*
X10189Y9134D01*
X10187Y9132D01*
X10186Y9129D01*
X10184Y9125D01*
Y9125D01*
X10184Y9125D01*
X10184Y9125D01*
X10184Y9124D01*
X10184Y9123D01*
X10183Y9122D01*
X10183Y9120D01*
X10183Y9117D01*
X10182Y9114D01*
X10182Y9110D01*
X10182Y9107D01*
Y9106D01*
Y9106D01*
Y9105D01*
Y9104D01*
X10182Y9104D01*
Y9102D01*
X10182Y9101D01*
X10182Y9099D01*
X10182Y9096D01*
X10183Y9092D01*
X10184Y9089D01*
X10185Y9085D01*
Y9085D01*
X10185Y9084D01*
X10185Y9084D01*
X10186Y9083D01*
X10187Y9082D01*
X10188Y9080D01*
X10189Y9077D01*
X10191Y9075D01*
X10194Y9073D01*
X10196Y9071D01*
X10196D01*
X10197Y9071D01*
X10197Y9071D01*
X10198Y9070D01*
X10198Y9070D01*
X10199Y9070D01*
X10201Y9069D01*
X10204Y9068D01*
X10207Y9067D01*
X10210Y9067D01*
X10213Y9066D01*
X10214D01*
X10215Y9067D01*
X10216D01*
X10217Y9067D01*
X10219Y9067D01*
X10222Y9068D01*
X10225Y9069D01*
X10228Y9071D01*
X10230Y9072D01*
X10231Y9073D01*
X10231Y9073D01*
X10232Y9073D01*
X10232Y9073D01*
X10233Y9074D01*
X10233Y9074D01*
X10234Y9075D01*
X10235Y9076D01*
X10235Y9077D01*
X10236Y9079D01*
X10237Y9080D01*
X10238Y9081D01*
X10239Y9083D01*
X10240Y9085D01*
X10240Y9087D01*
X10241Y9089D01*
X10242Y9091D01*
X10255Y9088D01*
Y9088D01*
X10254Y9087D01*
X10254Y9086D01*
X10254Y9085D01*
X10253Y9084D01*
X10253Y9082D01*
X10252Y9081D01*
X10251Y9079D01*
X10249Y9075D01*
X10247Y9071D01*
X10245Y9069D01*
X10244Y9067D01*
X10242Y9065D01*
X10240Y9064D01*
X10240Y9064D01*
X10239Y9063D01*
X10239Y9063D01*
X10238Y9062D01*
X10237Y9062D01*
X10236Y9061D01*
X10234Y9060D01*
X10233Y9060D01*
X10231Y9059D01*
X10229Y9058D01*
X10227Y9057D01*
X10225Y9057D01*
X10222Y9056D01*
X10220Y9056D01*
X10217Y9056D01*
X10214Y9055D01*
X10213D01*
X10211Y9056D01*
X10210D01*
X10209Y9056D01*
X10207Y9056D01*
X10205Y9056D01*
X10201Y9057D01*
X10197Y9058D01*
X10192Y9060D01*
X10190Y9061D01*
X10188Y9062D01*
X10188Y9062D01*
X10188Y9062D01*
X10187Y9062D01*
X10187Y9063D01*
X10186Y9064D01*
X10185Y9064D01*
X10184Y9065D01*
X10183Y9067D01*
X10182Y9068D01*
X10180Y9069D01*
X10178Y9072D01*
X10175Y9076D01*
X10173Y9080D01*
Y9081D01*
X10173Y9081D01*
X10173Y9082D01*
X10172Y9082D01*
X10172Y9084D01*
X10172Y9085D01*
X10171Y9087D01*
X10171Y9088D01*
X10170Y9090D01*
X10170Y9092D01*
X10169Y9097D01*
X10169Y9102D01*
X10168Y9107D01*
Y9107D01*
Y9107D01*
Y9108D01*
X10168Y9109D01*
Y9111D01*
X10169Y9112D01*
X10169Y9114D01*
X10169Y9116D01*
X10170Y9120D01*
X10171Y9124D01*
X10172Y9129D01*
X10174Y9133D01*
X10174Y9133D01*
X10174Y9134D01*
X10175Y9134D01*
X10175Y9135D01*
X10176Y9136D01*
X10176Y9137D01*
X10178Y9140D01*
X10181Y9142D01*
X10183Y9145D01*
X10187Y9148D01*
X10191Y9150D01*
X10191Y9151D01*
X10191Y9151D01*
X10192Y9151D01*
X10192Y9151D01*
X10193Y9152D01*
X10195Y9152D01*
X10196Y9153D01*
X10198Y9153D01*
X10199Y9154D01*
X10201Y9155D01*
X10205Y9155D01*
X10210Y9156D01*
X10214Y9156D01*
X10216D01*
X10217Y9156D01*
D02*
G37*
G36*
X10299Y9155D02*
X10301Y9155D01*
X10303Y9154D01*
X10306Y9154D01*
X10308Y9153D01*
X10311Y9152D01*
X10311D01*
X10311Y9151D01*
X10312Y9151D01*
X10313Y9150D01*
X10315Y9149D01*
X10316Y9148D01*
X10318Y9146D01*
X10320Y9144D01*
X10321Y9142D01*
X10321Y9142D01*
X10322Y9141D01*
X10322Y9140D01*
X10323Y9138D01*
X10324Y9137D01*
X10324Y9135D01*
X10325Y9132D01*
X10325Y9130D01*
Y9129D01*
Y9129D01*
X10325Y9127D01*
X10324Y9126D01*
X10324Y9124D01*
X10323Y9122D01*
X10322Y9120D01*
X10321Y9118D01*
X10321Y9118D01*
X10321Y9117D01*
X10320Y9116D01*
X10319Y9115D01*
X10317Y9114D01*
X10316Y9113D01*
X10314Y9111D01*
X10311Y9110D01*
X10311D01*
X10312Y9110D01*
X10312Y9110D01*
X10313Y9110D01*
X10314Y9109D01*
X10316Y9108D01*
X10318Y9107D01*
X10321Y9106D01*
X10323Y9104D01*
X10325Y9102D01*
X10325Y9101D01*
X10325Y9101D01*
X10326Y9099D01*
X10327Y9097D01*
X10328Y9095D01*
X10329Y9092D01*
X10329Y9089D01*
X10330Y9086D01*
Y9086D01*
Y9085D01*
Y9085D01*
X10329Y9084D01*
X10329Y9083D01*
X10329Y9081D01*
X10329Y9080D01*
X10328Y9078D01*
X10327Y9075D01*
X10326Y9073D01*
X10326Y9072D01*
X10324Y9070D01*
X10323Y9068D01*
X10322Y9066D01*
X10320Y9064D01*
X10320Y9064D01*
X10320Y9064D01*
X10319Y9063D01*
X10318Y9063D01*
X10318Y9062D01*
X10316Y9061D01*
X10315Y9061D01*
X10314Y9060D01*
X10312Y9059D01*
X10310Y9058D01*
X10308Y9058D01*
X10306Y9057D01*
X10304Y9056D01*
X10302Y9056D01*
X10299Y9056D01*
X10297Y9055D01*
X10295D01*
X10294Y9056D01*
X10293Y9056D01*
X10292Y9056D01*
X10291Y9056D01*
X10289Y9056D01*
X10286Y9057D01*
X10282Y9059D01*
X10280Y9060D01*
X10279Y9061D01*
X10277Y9062D01*
X10275Y9063D01*
X10275Y9063D01*
X10275Y9063D01*
X10274Y9064D01*
X10274Y9064D01*
X10273Y9065D01*
X10273Y9066D01*
X10272Y9067D01*
X10271Y9068D01*
X10270Y9070D01*
X10269Y9071D01*
X10268Y9075D01*
X10266Y9079D01*
X10266Y9081D01*
X10266Y9083D01*
X10278Y9084D01*
Y9084D01*
X10278Y9084D01*
X10278Y9083D01*
X10278Y9083D01*
X10278Y9082D01*
X10279Y9081D01*
X10279Y9079D01*
X10280Y9076D01*
X10281Y9074D01*
X10283Y9072D01*
X10285Y9070D01*
X10285Y9070D01*
X10285Y9069D01*
X10287Y9068D01*
X10288Y9068D01*
X10290Y9067D01*
X10292Y9066D01*
X10294Y9065D01*
X10297Y9065D01*
X10298D01*
X10298Y9065D01*
X10300Y9066D01*
X10302Y9066D01*
X10304Y9067D01*
X10306Y9068D01*
X10309Y9069D01*
X10311Y9071D01*
X10311Y9071D01*
X10312Y9072D01*
X10313Y9073D01*
X10314Y9075D01*
X10315Y9077D01*
X10316Y9080D01*
X10317Y9082D01*
X10317Y9086D01*
Y9086D01*
Y9086D01*
Y9086D01*
X10317Y9087D01*
X10317Y9089D01*
X10316Y9090D01*
X10316Y9093D01*
X10315Y9095D01*
X10313Y9097D01*
X10311Y9099D01*
X10311Y9100D01*
X10310Y9100D01*
X10309Y9101D01*
X10308Y9102D01*
X10306Y9103D01*
X10303Y9104D01*
X10301Y9104D01*
X10298Y9105D01*
X10296D01*
X10295Y9104D01*
X10294Y9104D01*
X10293Y9104D01*
X10291Y9104D01*
X10289Y9103D01*
X10291Y9114D01*
X10291D01*
X10292Y9114D01*
X10294D01*
X10295Y9114D01*
X10297Y9114D01*
X10299Y9115D01*
X10302Y9115D01*
X10304Y9116D01*
X10306Y9118D01*
X10306D01*
X10307Y9118D01*
X10307Y9118D01*
X10308Y9119D01*
X10309Y9121D01*
X10311Y9123D01*
X10311Y9125D01*
X10312Y9127D01*
X10312Y9128D01*
Y9130D01*
Y9130D01*
Y9130D01*
Y9131D01*
X10312Y9132D01*
X10312Y9134D01*
X10311Y9136D01*
X10311Y9137D01*
X10310Y9139D01*
X10308Y9141D01*
X10308Y9141D01*
X10307Y9142D01*
X10306Y9142D01*
X10305Y9143D01*
X10303Y9144D01*
X10301Y9145D01*
X10299Y9145D01*
X10296Y9145D01*
X10295D01*
X10294Y9145D01*
X10292Y9145D01*
X10290Y9144D01*
X10289Y9143D01*
X10287Y9142D01*
X10285Y9141D01*
X10285Y9141D01*
X10284Y9140D01*
X10283Y9139D01*
X10282Y9138D01*
X10281Y9136D01*
X10280Y9134D01*
X10279Y9131D01*
X10279Y9128D01*
X10267Y9130D01*
Y9130D01*
X10267Y9130D01*
X10267Y9131D01*
X10267Y9132D01*
X10268Y9133D01*
X10268Y9134D01*
X10269Y9137D01*
X10270Y9140D01*
X10272Y9143D01*
X10274Y9146D01*
X10277Y9148D01*
X10277Y9149D01*
X10277Y9149D01*
X10278Y9149D01*
X10278Y9149D01*
X10279Y9150D01*
X10280Y9151D01*
X10281Y9151D01*
X10282Y9152D01*
X10285Y9153D01*
X10288Y9154D01*
X10292Y9155D01*
X10294Y9155D01*
X10298D01*
X10299Y9155D01*
D02*
G37*
G36*
X6883Y7725D02*
X6907D01*
Y7713D01*
X6883D01*
Y7671D01*
X6872D01*
X6809Y7716D01*
Y7725D01*
X6872D01*
Y7739D01*
X6883D01*
Y7725D01*
D02*
G37*
G36*
X6877Y7664D02*
X6877Y7664D01*
X6879Y7663D01*
X6880Y7663D01*
X6881Y7662D01*
X6883Y7661D01*
X6885Y7661D01*
X6889Y7659D01*
X6893Y7656D01*
X6895Y7655D01*
X6897Y7653D01*
X6898Y7651D01*
X6900Y7649D01*
X6900Y7649D01*
X6901Y7649D01*
X6901Y7648D01*
X6901Y7647D01*
X6902Y7646D01*
X6903Y7645D01*
X6904Y7644D01*
X6904Y7642D01*
X6905Y7640D01*
X6906Y7638D01*
X6906Y7636D01*
X6907Y7634D01*
X6908Y7632D01*
X6908Y7629D01*
X6908Y7626D01*
X6908Y7623D01*
Y7622D01*
X6908Y7621D01*
Y7620D01*
X6908Y7618D01*
X6908Y7616D01*
X6908Y7614D01*
X6907Y7610D01*
X6906Y7606D01*
X6904Y7602D01*
X6903Y7600D01*
X6902Y7598D01*
X6902Y7598D01*
X6902Y7597D01*
X6901Y7597D01*
X6901Y7596D01*
X6900Y7595D01*
X6899Y7594D01*
X6898Y7593D01*
X6897Y7592D01*
X6896Y7591D01*
X6895Y7590D01*
X6892Y7587D01*
X6888Y7585D01*
X6884Y7583D01*
X6883D01*
X6883Y7582D01*
X6882Y7582D01*
X6881Y7582D01*
X6880Y7582D01*
X6879Y7581D01*
X6877Y7581D01*
X6876Y7580D01*
X6874Y7580D01*
X6872Y7579D01*
X6867Y7579D01*
X6862Y7578D01*
X6857Y7578D01*
X6857D01*
X6857D01*
X6856D01*
X6855Y7578D01*
X6853D01*
X6852Y7578D01*
X6850Y7578D01*
X6848Y7578D01*
X6844Y7579D01*
X6840Y7580D01*
X6835Y7581D01*
X6831Y7583D01*
X6831Y7584D01*
X6830Y7584D01*
X6830Y7584D01*
X6829Y7585D01*
X6828Y7585D01*
X6827Y7586D01*
X6824Y7588D01*
X6821Y7590D01*
X6819Y7593D01*
X6816Y7596D01*
X6813Y7600D01*
X6813Y7600D01*
X6813Y7601D01*
X6813Y7601D01*
X6812Y7602D01*
X6812Y7603D01*
X6812Y7604D01*
X6811Y7605D01*
X6810Y7607D01*
X6810Y7609D01*
X6809Y7611D01*
X6809Y7614D01*
X6808Y7619D01*
X6808Y7624D01*
Y7625D01*
X6808Y7626D01*
X6808Y7627D01*
X6808Y7629D01*
X6808Y7630D01*
X6809Y7632D01*
X6809Y7636D01*
X6811Y7640D01*
X6811Y7642D01*
X6812Y7644D01*
X6814Y7646D01*
X6815Y7648D01*
X6815Y7648D01*
X6815Y7649D01*
X6816Y7649D01*
X6816Y7650D01*
X6817Y7651D01*
X6818Y7652D01*
X6819Y7653D01*
X6820Y7654D01*
X6822Y7655D01*
X6823Y7656D01*
X6825Y7657D01*
X6827Y7658D01*
X6829Y7659D01*
X6831Y7661D01*
X6833Y7661D01*
X6836Y7662D01*
X6839Y7650D01*
X6839D01*
X6839Y7649D01*
X6838Y7649D01*
X6837Y7649D01*
X6836Y7649D01*
X6835Y7648D01*
X6833Y7647D01*
X6831Y7646D01*
X6828Y7644D01*
X6826Y7642D01*
X6823Y7640D01*
X6823Y7639D01*
X6823Y7638D01*
X6822Y7637D01*
X6821Y7635D01*
X6820Y7633D01*
X6819Y7630D01*
X6819Y7627D01*
X6819Y7623D01*
Y7622D01*
X6819Y7622D01*
Y7621D01*
X6819Y7619D01*
X6819Y7617D01*
X6820Y7614D01*
X6821Y7611D01*
X6822Y7607D01*
X6824Y7604D01*
Y7604D01*
X6824Y7604D01*
X6825Y7603D01*
X6826Y7602D01*
X6828Y7600D01*
X6830Y7599D01*
X6832Y7597D01*
X6835Y7595D01*
X6839Y7594D01*
X6839D01*
X6839Y7594D01*
X6839Y7594D01*
X6840Y7593D01*
X6841Y7593D01*
X6842Y7593D01*
X6844Y7592D01*
X6847Y7592D01*
X6850Y7591D01*
X6854Y7591D01*
X6857Y7591D01*
X6857D01*
X6858D01*
X6859D01*
X6859D01*
X6860Y7591D01*
X6862D01*
X6863Y7591D01*
X6865Y7591D01*
X6868Y7592D01*
X6872Y7592D01*
X6875Y7593D01*
X6879Y7594D01*
X6879D01*
X6879Y7595D01*
X6880Y7595D01*
X6881Y7595D01*
X6882Y7596D01*
X6884Y7597D01*
X6886Y7599D01*
X6889Y7601D01*
X6891Y7603D01*
X6893Y7606D01*
Y7606D01*
X6893Y7606D01*
X6893Y7607D01*
X6894Y7607D01*
X6894Y7608D01*
X6894Y7609D01*
X6895Y7611D01*
X6896Y7613D01*
X6897Y7616D01*
X6897Y7619D01*
X6897Y7622D01*
Y7623D01*
X6897Y7624D01*
Y7625D01*
X6897Y7626D01*
X6897Y7629D01*
X6896Y7632D01*
X6895Y7635D01*
X6893Y7638D01*
X6892Y7639D01*
X6891Y7641D01*
X6891Y7641D01*
X6891Y7641D01*
X6891Y7641D01*
X6890Y7642D01*
X6889Y7643D01*
X6889Y7643D01*
X6888Y7644D01*
X6887Y7645D01*
X6885Y7646D01*
X6884Y7647D01*
X6883Y7647D01*
X6881Y7648D01*
X6879Y7649D01*
X6877Y7650D01*
X6875Y7650D01*
X6873Y7651D01*
X6876Y7664D01*
X6876D01*
X6877Y7664D01*
D02*
G37*
G36*
X9558Y8905D02*
X9546D01*
Y8981D01*
X9546Y8981D01*
X9545Y8980D01*
X9544Y8979D01*
X9543Y8978D01*
X9541Y8977D01*
X9539Y8976D01*
X9537Y8974D01*
X9534Y8972D01*
X9534D01*
X9534Y8972D01*
X9533Y8972D01*
X9532Y8971D01*
X9530Y8970D01*
X9528Y8969D01*
X9526Y8968D01*
X9524Y8967D01*
X9522Y8966D01*
Y8978D01*
X9522D01*
X9522Y8978D01*
X9523Y8978D01*
X9524Y8979D01*
X9524Y8979D01*
X9525Y8980D01*
X9528Y8981D01*
X9531Y8983D01*
X9534Y8985D01*
X9536Y8987D01*
X9539Y8989D01*
X9540Y8990D01*
X9540Y8990D01*
X9540Y8990D01*
X9541Y8991D01*
X9542Y8992D01*
X9544Y8994D01*
X9545Y8996D01*
X9547Y8998D01*
X9549Y9000D01*
X9550Y9002D01*
X9558D01*
Y8905D01*
D02*
G37*
G36*
X9454Y8916D02*
X9502D01*
Y8905D01*
X9441D01*
Y9002D01*
X9454D01*
Y8916D01*
D02*
G37*
G36*
X9118Y9637D02*
X9119Y9637D01*
X9120Y9637D01*
X9122Y9637D01*
X9123Y9636D01*
X9127Y9636D01*
X9131Y9634D01*
X9132Y9633D01*
X9134Y9632D01*
X9136Y9631D01*
X9138Y9630D01*
X9138Y9629D01*
X9138Y9629D01*
X9138Y9629D01*
X9139Y9628D01*
X9139Y9627D01*
X9140Y9626D01*
X9141Y9626D01*
X9142Y9624D01*
X9143Y9622D01*
X9145Y9618D01*
X9145Y9616D01*
X9145Y9615D01*
X9146Y9613D01*
X9146Y9610D01*
Y9610D01*
Y9609D01*
X9146Y9608D01*
X9146Y9607D01*
X9145Y9605D01*
X9145Y9603D01*
X9144Y9601D01*
X9143Y9599D01*
X9143Y9599D01*
X9143Y9598D01*
X9142Y9597D01*
X9141Y9595D01*
X9140Y9594D01*
X9139Y9591D01*
X9137Y9589D01*
X9135Y9587D01*
X9135Y9587D01*
X9134Y9586D01*
X9134Y9585D01*
X9133Y9584D01*
X9132Y9583D01*
X9131Y9582D01*
X9130Y9581D01*
X9128Y9580D01*
X9127Y9579D01*
X9125Y9577D01*
X9123Y9575D01*
X9121Y9574D01*
X9119Y9572D01*
X9117Y9570D01*
X9117Y9570D01*
X9117Y9569D01*
X9116Y9569D01*
X9115Y9568D01*
X9114Y9568D01*
X9113Y9567D01*
X9111Y9565D01*
X9109Y9563D01*
X9106Y9561D01*
X9105Y9559D01*
X9104Y9558D01*
X9103Y9557D01*
X9103Y9557D01*
X9102Y9557D01*
X9102Y9556D01*
X9101Y9555D01*
X9100Y9554D01*
X9100Y9553D01*
X9098Y9551D01*
X9146D01*
Y9540D01*
X9081D01*
Y9540D01*
Y9540D01*
Y9541D01*
X9081Y9542D01*
X9082Y9543D01*
X9082Y9545D01*
X9082Y9546D01*
X9083Y9548D01*
Y9548D01*
X9083Y9548D01*
X9083Y9549D01*
X9084Y9550D01*
X9085Y9552D01*
X9086Y9554D01*
X9087Y9556D01*
X9089Y9558D01*
X9091Y9561D01*
Y9561D01*
X9091Y9561D01*
X9092Y9562D01*
X9093Y9563D01*
X9095Y9565D01*
X9097Y9567D01*
X9099Y9570D01*
X9103Y9572D01*
X9106Y9575D01*
X9106Y9576D01*
X9107Y9576D01*
X9108Y9577D01*
X9109Y9578D01*
X9110Y9579D01*
X9112Y9580D01*
X9113Y9581D01*
X9115Y9583D01*
X9118Y9586D01*
X9122Y9590D01*
X9124Y9591D01*
X9125Y9593D01*
X9127Y9595D01*
X9128Y9596D01*
Y9596D01*
X9128Y9596D01*
X9128Y9597D01*
X9129Y9597D01*
X9130Y9599D01*
X9131Y9601D01*
X9132Y9603D01*
X9133Y9605D01*
X9133Y9608D01*
X9134Y9611D01*
Y9611D01*
Y9611D01*
X9133Y9612D01*
X9133Y9613D01*
X9133Y9615D01*
X9132Y9617D01*
X9131Y9619D01*
X9130Y9621D01*
X9128Y9623D01*
X9128Y9623D01*
X9127Y9624D01*
X9126Y9624D01*
X9125Y9625D01*
X9123Y9626D01*
X9121Y9627D01*
X9118Y9627D01*
X9115Y9628D01*
X9114D01*
X9114Y9627D01*
X9112Y9627D01*
X9110Y9627D01*
X9108Y9626D01*
X9105Y9625D01*
X9103Y9624D01*
X9101Y9622D01*
X9101Y9622D01*
X9100Y9621D01*
X9099Y9620D01*
X9098Y9619D01*
X9097Y9617D01*
X9097Y9614D01*
X9096Y9611D01*
X9096Y9608D01*
X9084Y9609D01*
Y9609D01*
X9084Y9610D01*
Y9611D01*
X9084Y9612D01*
X9084Y9613D01*
X9084Y9614D01*
X9085Y9615D01*
X9085Y9617D01*
X9086Y9620D01*
X9088Y9624D01*
X9089Y9626D01*
X9090Y9627D01*
X9092Y9629D01*
X9093Y9630D01*
X9093Y9630D01*
X9093Y9630D01*
X9094Y9631D01*
X9095Y9631D01*
X9095Y9632D01*
X9096Y9632D01*
X9097Y9633D01*
X9099Y9634D01*
X9100Y9635D01*
X9102Y9635D01*
X9104Y9636D01*
X9106Y9636D01*
X9108Y9637D01*
X9110Y9637D01*
X9113Y9637D01*
X9115Y9637D01*
X9117D01*
X9118Y9637D01*
D02*
G37*
G36*
X9036Y9637D02*
X9037D01*
X9040Y9637D01*
X9043Y9636D01*
X9047Y9636D01*
X9050Y9635D01*
X9051Y9635D01*
X9053Y9634D01*
X9053D01*
X9053Y9634D01*
X9054Y9634D01*
X9055Y9633D01*
X9057Y9632D01*
X9058Y9631D01*
X9060Y9629D01*
X9062Y9627D01*
X9064Y9625D01*
Y9625D01*
X9064Y9625D01*
X9064Y9624D01*
X9065Y9623D01*
X9066Y9621D01*
X9066Y9619D01*
X9067Y9616D01*
X9067Y9613D01*
X9068Y9610D01*
Y9610D01*
Y9610D01*
Y9609D01*
X9067Y9609D01*
Y9608D01*
X9067Y9607D01*
X9067Y9604D01*
X9066Y9602D01*
X9065Y9599D01*
X9063Y9596D01*
X9062Y9594D01*
X9061Y9593D01*
X9061Y9593D01*
X9061Y9593D01*
X9060Y9592D01*
X9060Y9592D01*
X9059Y9591D01*
X9058Y9591D01*
X9057Y9590D01*
X9056Y9589D01*
X9054Y9588D01*
X9053Y9588D01*
X9051Y9587D01*
X9049Y9586D01*
X9047Y9585D01*
X9045Y9585D01*
X9043Y9584D01*
X9040Y9584D01*
X9040Y9584D01*
X9041Y9583D01*
X9042Y9583D01*
X9043Y9582D01*
X9045Y9581D01*
X9047Y9580D01*
X9048Y9579D01*
X9048Y9579D01*
X9049Y9578D01*
X9050Y9577D01*
X9051Y9575D01*
X9053Y9573D01*
X9055Y9571D01*
X9057Y9569D01*
X9059Y9566D01*
X9075Y9540D01*
X9059D01*
X9046Y9560D01*
Y9560D01*
X9046Y9560D01*
X9046Y9561D01*
X9045Y9561D01*
X9044Y9563D01*
X9043Y9565D01*
X9042Y9567D01*
X9040Y9569D01*
X9039Y9571D01*
X9037Y9573D01*
X9037Y9573D01*
X9037Y9574D01*
X9036Y9575D01*
X9035Y9576D01*
X9033Y9578D01*
X9032Y9579D01*
X9031Y9580D01*
X9030Y9580D01*
X9030Y9580D01*
X9030Y9580D01*
X9029Y9581D01*
X9028Y9581D01*
X9027Y9582D01*
X9025Y9582D01*
X9024D01*
X9024Y9582D01*
X9024D01*
X9023Y9583D01*
X9022Y9583D01*
X9021D01*
X9019Y9583D01*
X9003D01*
Y9540D01*
X8990D01*
Y9637D01*
X9035D01*
X9036Y9637D01*
D02*
G37*
G36*
X9137Y9324D02*
X9125D01*
Y9400D01*
X9125Y9400D01*
X9124Y9399D01*
X9123Y9398D01*
X9122Y9397D01*
X9120Y9396D01*
X9118Y9395D01*
X9116Y9393D01*
X9114Y9392D01*
X9113D01*
X9113Y9391D01*
X9112Y9391D01*
X9111Y9390D01*
X9109Y9389D01*
X9107Y9388D01*
X9105Y9387D01*
X9103Y9386D01*
X9101Y9385D01*
Y9397D01*
X9101D01*
X9101Y9397D01*
X9102Y9397D01*
X9103Y9398D01*
X9104Y9398D01*
X9105Y9399D01*
X9107Y9400D01*
X9110Y9402D01*
X9113Y9404D01*
X9116Y9406D01*
X9119Y9408D01*
X9119Y9409D01*
X9119Y9409D01*
X9119Y9409D01*
X9120Y9410D01*
X9121Y9411D01*
X9123Y9413D01*
X9124Y9415D01*
X9126Y9417D01*
X9128Y9419D01*
X9129Y9422D01*
X9137D01*
Y9324D01*
D02*
G37*
G36*
X9045Y9421D02*
X9046D01*
X9049Y9421D01*
X9052Y9420D01*
X9056Y9420D01*
X9059Y9419D01*
X9060Y9419D01*
X9062Y9418D01*
X9062D01*
X9062Y9418D01*
X9063Y9418D01*
X9064Y9417D01*
X9066Y9416D01*
X9067Y9415D01*
X9069Y9413D01*
X9071Y9411D01*
X9072Y9409D01*
Y9409D01*
X9073Y9409D01*
X9073Y9408D01*
X9074Y9407D01*
X9075Y9405D01*
X9075Y9403D01*
X9076Y9400D01*
X9076Y9397D01*
X9077Y9395D01*
Y9394D01*
Y9394D01*
Y9394D01*
X9076Y9393D01*
Y9392D01*
X9076Y9391D01*
X9076Y9388D01*
X9075Y9386D01*
X9074Y9383D01*
X9072Y9380D01*
X9071Y9378D01*
X9070Y9377D01*
X9070Y9377D01*
X9069Y9377D01*
X9069Y9376D01*
X9069Y9376D01*
X9068Y9375D01*
X9067Y9375D01*
X9066Y9374D01*
X9065Y9373D01*
X9063Y9372D01*
X9062Y9372D01*
X9060Y9371D01*
X9058Y9370D01*
X9056Y9370D01*
X9054Y9369D01*
X9052Y9368D01*
X9049Y9368D01*
X9049Y9368D01*
X9050Y9368D01*
X9051Y9367D01*
X9052Y9366D01*
X9054Y9365D01*
X9056Y9364D01*
X9057Y9363D01*
X9057Y9363D01*
X9058Y9362D01*
X9059Y9361D01*
X9060Y9360D01*
X9062Y9358D01*
X9064Y9355D01*
X9066Y9353D01*
X9068Y9350D01*
X9084Y9324D01*
X9068D01*
X9055Y9344D01*
Y9344D01*
X9055Y9344D01*
X9055Y9345D01*
X9054Y9345D01*
X9053Y9347D01*
X9052Y9349D01*
X9051Y9351D01*
X9049Y9353D01*
X9047Y9355D01*
X9046Y9357D01*
X9046Y9357D01*
X9046Y9358D01*
X9045Y9359D01*
X9044Y9360D01*
X9042Y9362D01*
X9041Y9363D01*
X9039Y9364D01*
X9039Y9364D01*
X9039Y9364D01*
X9038Y9364D01*
X9038Y9365D01*
X9037Y9365D01*
X9036Y9366D01*
X9034Y9366D01*
X9033D01*
X9033Y9366D01*
X9033D01*
X9032Y9367D01*
X9031Y9367D01*
X9030D01*
X9028Y9367D01*
X9012D01*
Y9324D01*
X8999D01*
Y9421D01*
X9044D01*
X9045Y9421D01*
D02*
G37*
G36*
X10362Y10165D02*
X10350D01*
Y10241D01*
X10350Y10241D01*
X10350Y10241D01*
X10349Y10240D01*
X10347Y10239D01*
X10346Y10237D01*
X10344Y10236D01*
X10342Y10234D01*
X10339Y10233D01*
X10339D01*
X10339Y10233D01*
X10338Y10232D01*
X10336Y10232D01*
X10335Y10231D01*
X10333Y10230D01*
X10331Y10229D01*
X10329Y10228D01*
X10326Y10227D01*
Y10238D01*
X10327D01*
X10327Y10239D01*
X10327Y10239D01*
X10328Y10239D01*
X10329Y10240D01*
X10330Y10240D01*
X10332Y10242D01*
X10335Y10243D01*
X10338Y10245D01*
X10341Y10247D01*
X10344Y10250D01*
X10344Y10250D01*
X10344Y10250D01*
X10345Y10251D01*
X10345Y10251D01*
X10346Y10252D01*
X10348Y10254D01*
X10350Y10256D01*
X10352Y10258D01*
X10353Y10261D01*
X10355Y10263D01*
X10362D01*
Y10165D01*
D02*
G37*
G36*
X10260Y10264D02*
X10262D01*
X10263Y10264D01*
X10265Y10264D01*
X10266Y10263D01*
X10270Y10263D01*
X10274Y10262D01*
X10278Y10260D01*
X10281Y10259D01*
X10283Y10258D01*
X10283Y10258D01*
X10283Y10257D01*
X10284Y10257D01*
X10284Y10257D01*
X10285Y10256D01*
X10286Y10255D01*
X10289Y10253D01*
X10291Y10251D01*
X10294Y10247D01*
X10297Y10244D01*
X10299Y10240D01*
Y10240D01*
X10299Y10239D01*
X10300Y10239D01*
X10300Y10238D01*
X10301Y10237D01*
X10301Y10235D01*
X10302Y10234D01*
X10302Y10232D01*
X10303Y10230D01*
X10303Y10228D01*
X10304Y10226D01*
X10304Y10224D01*
X10305Y10219D01*
X10305Y10214D01*
Y10214D01*
Y10213D01*
Y10213D01*
Y10212D01*
X10305Y10211D01*
Y10209D01*
X10305Y10208D01*
X10304Y10207D01*
X10304Y10203D01*
X10303Y10200D01*
X10303Y10196D01*
X10301Y10192D01*
Y10192D01*
X10301Y10192D01*
X10301Y10191D01*
X10301Y10190D01*
X10300Y10190D01*
X10300Y10189D01*
X10299Y10186D01*
X10297Y10184D01*
X10295Y10181D01*
X10293Y10178D01*
X10290Y10175D01*
X10290D01*
X10291Y10175D01*
X10291Y10175D01*
X10292Y10174D01*
X10292Y10174D01*
X10293Y10173D01*
X10296Y10172D01*
X10298Y10170D01*
X10301Y10169D01*
X10304Y10168D01*
X10307Y10166D01*
X10303Y10157D01*
X10303D01*
X10303Y10158D01*
X10302Y10158D01*
X10301Y10158D01*
X10300Y10158D01*
X10299Y10159D01*
X10298Y10160D01*
X10296Y10160D01*
X10293Y10162D01*
X10290Y10164D01*
X10286Y10167D01*
X10282Y10169D01*
X10282D01*
X10282Y10169D01*
X10281Y10169D01*
X10280Y10168D01*
X10279Y10168D01*
X10278Y10167D01*
X10276Y10167D01*
X10275Y10166D01*
X10273Y10166D01*
X10271Y10165D01*
X10267Y10164D01*
X10263Y10164D01*
X10260Y10163D01*
X10258Y10163D01*
X10257D01*
X10256Y10163D01*
X10255D01*
X10253Y10164D01*
X10252Y10164D01*
X10250Y10164D01*
X10246Y10165D01*
X10242Y10166D01*
X10238Y10168D01*
X10236Y10169D01*
X10234Y10170D01*
X10234Y10170D01*
X10233Y10170D01*
X10233Y10170D01*
X10232Y10171D01*
X10231Y10171D01*
X10230Y10172D01*
X10228Y10174D01*
X10225Y10177D01*
X10222Y10180D01*
X10220Y10183D01*
X10217Y10188D01*
Y10188D01*
X10217Y10188D01*
X10217Y10189D01*
X10217Y10190D01*
X10216Y10191D01*
X10216Y10192D01*
X10215Y10193D01*
X10215Y10195D01*
X10214Y10197D01*
X10213Y10199D01*
X10213Y10201D01*
X10212Y10203D01*
X10212Y10208D01*
X10212Y10214D01*
Y10214D01*
Y10214D01*
Y10215D01*
X10212Y10216D01*
Y10217D01*
X10212Y10219D01*
X10212Y10221D01*
X10212Y10222D01*
X10213Y10226D01*
X10214Y10231D01*
X10215Y10235D01*
X10217Y10240D01*
X10218Y10240D01*
X10218Y10241D01*
X10218Y10241D01*
X10218Y10242D01*
X10219Y10243D01*
X10220Y10244D01*
X10222Y10247D01*
X10224Y10250D01*
X10227Y10253D01*
X10230Y10255D01*
X10234Y10258D01*
X10234Y10258D01*
X10235Y10258D01*
X10235Y10259D01*
X10236Y10259D01*
X10237Y10259D01*
X10238Y10260D01*
X10239Y10261D01*
X10241Y10261D01*
X10243Y10262D01*
X10245Y10262D01*
X10249Y10263D01*
X10253Y10264D01*
X10256Y10264D01*
X10260D01*
X10260Y10264D01*
D02*
G37*
G36*
X11200Y9873D02*
X11123D01*
X11123Y9872D01*
X11124Y9872D01*
X11125Y9871D01*
X11126Y9870D01*
X11127Y9868D01*
X11129Y9866D01*
X11130Y9864D01*
X11132Y9861D01*
Y9861D01*
X11132Y9861D01*
X11132Y9860D01*
X11133Y9859D01*
X11134Y9857D01*
X11135Y9855D01*
X11136Y9853D01*
X11137Y9851D01*
X11138Y9849D01*
X11126D01*
Y9849D01*
X11126Y9849D01*
X11126Y9850D01*
X11125Y9850D01*
X11125Y9851D01*
X11124Y9852D01*
X11123Y9855D01*
X11121Y9857D01*
X11119Y9860D01*
X11117Y9863D01*
X11115Y9866D01*
X11115Y9866D01*
X11114Y9866D01*
X11114Y9867D01*
X11114Y9867D01*
X11112Y9869D01*
X11110Y9870D01*
X11109Y9872D01*
X11106Y9874D01*
X11104Y9875D01*
X11102Y9877D01*
Y9885D01*
X11200D01*
Y9873D01*
D02*
G37*
G36*
X11153Y9827D02*
X11154D01*
X11157Y9826D01*
X11160Y9826D01*
X11163Y9826D01*
X11167Y9825D01*
X11170Y9824D01*
X11170D01*
X11171Y9824D01*
X11171Y9824D01*
X11172Y9824D01*
X11173Y9823D01*
X11175Y9822D01*
X11177Y9821D01*
X11180Y9820D01*
X11182Y9819D01*
X11184Y9817D01*
X11185Y9817D01*
X11185Y9817D01*
X11186Y9816D01*
X11187Y9815D01*
X11189Y9813D01*
X11190Y9812D01*
X11192Y9810D01*
X11193Y9808D01*
X11193Y9808D01*
X11194Y9808D01*
X11194Y9807D01*
X11195Y9805D01*
X11196Y9804D01*
X11196Y9802D01*
X11197Y9799D01*
X11198Y9797D01*
Y9796D01*
X11198Y9796D01*
X11198Y9796D01*
X11198Y9794D01*
X11199Y9792D01*
X11199Y9790D01*
X11199Y9787D01*
X11199Y9784D01*
X11200Y9781D01*
Y9746D01*
X11102D01*
Y9784D01*
X11102Y9786D01*
X11102Y9789D01*
X11103Y9792D01*
X11103Y9795D01*
X11103Y9797D01*
Y9797D01*
X11104Y9797D01*
Y9798D01*
X11104Y9798D01*
X11104Y9800D01*
X11105Y9802D01*
X11106Y9804D01*
X11107Y9806D01*
X11109Y9809D01*
X11110Y9811D01*
X11111Y9811D01*
X11111Y9811D01*
X11111Y9812D01*
X11112Y9812D01*
X11113Y9814D01*
X11115Y9816D01*
X11117Y9817D01*
X11120Y9819D01*
X11123Y9821D01*
X11127Y9823D01*
X11127D01*
X11128Y9823D01*
X11128Y9823D01*
X11129Y9823D01*
X11130Y9824D01*
X11131Y9824D01*
X11132Y9824D01*
X11134Y9825D01*
X11135Y9825D01*
X11137Y9825D01*
X11141Y9826D01*
X11146Y9827D01*
X11150Y9827D01*
X11151D01*
X11151D01*
X11152D01*
X11152D01*
X11153Y9827D01*
D02*
G37*
G36*
X8807Y10083D02*
X8808Y10083D01*
X8809Y10083D01*
X8811Y10083D01*
X8813Y10082D01*
X8817Y10082D01*
X8821Y10080D01*
X8823Y10080D01*
X8825Y10079D01*
X8827Y10077D01*
X8829Y10076D01*
X8829Y10076D01*
X8829Y10076D01*
X8830Y10075D01*
X8831Y10075D01*
X8831Y10074D01*
X8832Y10073D01*
X8833Y10072D01*
X8834Y10071D01*
X8835Y10069D01*
X8837Y10068D01*
X8838Y10066D01*
X8839Y10064D01*
X8840Y10062D01*
X8841Y10060D01*
X8842Y10058D01*
X8843Y10055D01*
X8830Y10052D01*
Y10052D01*
X8830Y10052D01*
X8830Y10053D01*
X8829Y10054D01*
X8829Y10055D01*
X8829Y10056D01*
X8828Y10058D01*
X8826Y10060D01*
X8824Y10063D01*
X8822Y10065D01*
X8820Y10068D01*
X8820Y10068D01*
X8819Y10068D01*
X8818Y10069D01*
X8816Y10070D01*
X8813Y10071D01*
X8811Y10072D01*
X8807Y10072D01*
X8804Y10072D01*
X8803D01*
X8802Y10072D01*
X8801D01*
X8800Y10072D01*
X8797Y10072D01*
X8794Y10071D01*
X8791Y10070D01*
X8788Y10069D01*
X8785Y10067D01*
X8785D01*
X8785Y10067D01*
X8784Y10066D01*
X8782Y10065D01*
X8781Y10063D01*
X8779Y10061D01*
X8777Y10059D01*
X8776Y10056D01*
X8774Y10052D01*
Y10052D01*
X8774Y10052D01*
X8774Y10052D01*
X8774Y10051D01*
X8774Y10050D01*
X8773Y10049D01*
X8773Y10047D01*
X8772Y10044D01*
X8772Y10041D01*
X8772Y10037D01*
X8771Y10034D01*
Y10034D01*
Y10033D01*
Y10032D01*
Y10032D01*
X8772Y10031D01*
Y10029D01*
X8772Y10028D01*
X8772Y10026D01*
X8772Y10023D01*
X8773Y10019D01*
X8774Y10016D01*
X8775Y10012D01*
Y10012D01*
X8775Y10012D01*
X8775Y10011D01*
X8776Y10010D01*
X8777Y10009D01*
X8778Y10007D01*
X8779Y10005D01*
X8781Y10002D01*
X8784Y10000D01*
X8786Y9998D01*
X8786D01*
X8787Y9998D01*
X8787Y9998D01*
X8788Y9997D01*
X8788Y9997D01*
X8789Y9997D01*
X8791Y9996D01*
X8794Y9995D01*
X8797Y9994D01*
X8800Y9994D01*
X8803Y9994D01*
X8804D01*
X8805Y9994D01*
X8806D01*
X8807Y9994D01*
X8809Y9994D01*
X8812Y9995D01*
X8815Y9996D01*
X8818Y9998D01*
X8820Y9999D01*
X8821Y10000D01*
X8821Y10000D01*
X8822Y10000D01*
X8822Y10000D01*
X8822Y10001D01*
X8823Y10002D01*
X8824Y10002D01*
X8825Y10003D01*
X8825Y10004D01*
X8826Y10006D01*
X8827Y10007D01*
X8828Y10008D01*
X8829Y10010D01*
X8830Y10012D01*
X8830Y10014D01*
X8831Y10016D01*
X8832Y10018D01*
X8844Y10015D01*
Y10015D01*
X8844Y10014D01*
X8844Y10014D01*
X8844Y10012D01*
X8843Y10011D01*
X8843Y10010D01*
X8842Y10008D01*
X8841Y10006D01*
X8839Y10002D01*
X8837Y9998D01*
X8835Y9996D01*
X8833Y9994D01*
X8832Y9993D01*
X8830Y9991D01*
X8830Y9991D01*
X8829Y9990D01*
X8829Y9990D01*
X8828Y9990D01*
X8827Y9989D01*
X8826Y9988D01*
X8824Y9987D01*
X8823Y9987D01*
X8821Y9986D01*
X8819Y9985D01*
X8817Y9985D01*
X8814Y9984D01*
X8812Y9983D01*
X8810Y9983D01*
X8807Y9983D01*
X8804Y9983D01*
X8802D01*
X8801Y9983D01*
X8800D01*
X8799Y9983D01*
X8797Y9983D01*
X8795Y9983D01*
X8791Y9984D01*
X8787Y9985D01*
X8782Y9987D01*
X8780Y9988D01*
X8778Y9989D01*
X8778Y9989D01*
X8778Y9989D01*
X8777Y9990D01*
X8777Y9990D01*
X8776Y9991D01*
X8775Y9992D01*
X8774Y9993D01*
X8773Y9994D01*
X8772Y9995D01*
X8770Y9996D01*
X8768Y9999D01*
X8765Y10003D01*
X8763Y10007D01*
Y10008D01*
X8763Y10008D01*
X8763Y10009D01*
X8762Y10010D01*
X8762Y10011D01*
X8762Y10012D01*
X8761Y10014D01*
X8761Y10015D01*
X8760Y10017D01*
X8760Y10019D01*
X8759Y10024D01*
X8758Y10029D01*
X8758Y10034D01*
Y10034D01*
Y10034D01*
Y10035D01*
X8758Y10036D01*
Y10038D01*
X8758Y10039D01*
X8759Y10041D01*
X8759Y10043D01*
X8760Y10047D01*
X8761Y10051D01*
X8762Y10056D01*
X8764Y10060D01*
X8764Y10060D01*
X8764Y10061D01*
X8765Y10061D01*
X8765Y10062D01*
X8766Y10063D01*
X8766Y10064D01*
X8768Y10067D01*
X8771Y10070D01*
X8773Y10072D01*
X8777Y10075D01*
X8780Y10078D01*
X8781Y10078D01*
X8781Y10078D01*
X8782Y10078D01*
X8782Y10079D01*
X8783Y10079D01*
X8785Y10079D01*
X8786Y10080D01*
X8788Y10081D01*
X8789Y10081D01*
X8791Y10082D01*
X8795Y10082D01*
X8800Y10083D01*
X8804Y10083D01*
X8806D01*
X8807Y10083D01*
D02*
G37*
G36*
X8916Y10069D02*
X8876D01*
X8871Y10043D01*
X8871Y10043D01*
X8872Y10043D01*
X8872Y10043D01*
X8873Y10044D01*
X8874Y10044D01*
X8875Y10045D01*
X8877Y10046D01*
X8880Y10047D01*
X8883Y10048D01*
X8886Y10049D01*
X8888Y10049D01*
X8891D01*
X8892Y10049D01*
X8893Y10049D01*
X8894Y10049D01*
X8896Y10048D01*
X8897Y10048D01*
X8901Y10047D01*
X8902Y10046D01*
X8904Y10045D01*
X8906Y10044D01*
X8908Y10043D01*
X8910Y10042D01*
X8911Y10040D01*
X8911Y10040D01*
X8912Y10040D01*
X8912Y10039D01*
X8913Y10038D01*
X8913Y10038D01*
X8914Y10037D01*
X8915Y10035D01*
X8916Y10034D01*
X8917Y10032D01*
X8917Y10031D01*
X8918Y10029D01*
X8919Y10027D01*
X8919Y10025D01*
X8920Y10022D01*
X8920Y10020D01*
X8920Y10017D01*
Y10017D01*
Y10017D01*
Y10016D01*
X8920Y10015D01*
X8920Y10014D01*
X8920Y10013D01*
X8919Y10011D01*
X8919Y10009D01*
X8918Y10006D01*
X8917Y10002D01*
X8916Y10000D01*
X8915Y9998D01*
X8914Y9996D01*
X8912Y9994D01*
X8912Y9994D01*
X8912Y9994D01*
X8911Y9993D01*
X8911Y9993D01*
X8910Y9992D01*
X8909Y9991D01*
X8907Y9990D01*
X8906Y9988D01*
X8904Y9987D01*
X8902Y9986D01*
X8900Y9985D01*
X8898Y9984D01*
X8895Y9984D01*
X8893Y9983D01*
X8890Y9983D01*
X8887Y9983D01*
X8886D01*
X8885Y9983D01*
X8883Y9983D01*
X8882Y9983D01*
X8881Y9983D01*
X8879Y9984D01*
X8875Y9984D01*
X8872Y9986D01*
X8870Y9986D01*
X8868Y9987D01*
X8867Y9989D01*
X8865Y9990D01*
X8865Y9990D01*
X8865Y9990D01*
X8864Y9991D01*
X8864Y9991D01*
X8863Y9992D01*
X8862Y9993D01*
X8861Y9994D01*
X8861Y9995D01*
X8860Y9996D01*
X8859Y9998D01*
X8857Y10001D01*
X8856Y10005D01*
X8856Y10007D01*
X8855Y10010D01*
X8868Y10011D01*
Y10011D01*
Y10010D01*
X8868Y10010D01*
X8868Y10009D01*
X8869Y10008D01*
X8869Y10006D01*
X8870Y10003D01*
X8871Y10001D01*
X8873Y9999D01*
X8874Y9997D01*
X8875Y9997D01*
X8875Y9996D01*
X8876Y9996D01*
X8878Y9995D01*
X8880Y9994D01*
X8882Y9993D01*
X8884Y9993D01*
X8887Y9992D01*
X8888D01*
X8888Y9993D01*
X8890Y9993D01*
X8892Y9993D01*
X8894Y9994D01*
X8897Y9995D01*
X8899Y9997D01*
X8900Y9998D01*
X8901Y9999D01*
X8902Y9999D01*
X8902Y9999D01*
X8902Y10000D01*
X8902Y10000D01*
X8903Y10002D01*
X8905Y10004D01*
X8906Y10006D01*
X8907Y10009D01*
X8907Y10012D01*
X8907Y10014D01*
Y10016D01*
Y10016D01*
Y10017D01*
Y10017D01*
X8907Y10018D01*
Y10019D01*
X8907Y10020D01*
X8907Y10022D01*
X8906Y10025D01*
X8905Y10027D01*
X8904Y10030D01*
X8902Y10032D01*
Y10032D01*
X8901Y10033D01*
X8901Y10033D01*
X8899Y10034D01*
X8898Y10035D01*
X8896Y10036D01*
X8893Y10037D01*
X8890Y10038D01*
X8888Y10038D01*
X8886D01*
X8885Y10038D01*
X8883Y10038D01*
X8881Y10038D01*
X8880Y10037D01*
X8878Y10037D01*
X8876Y10036D01*
X8876Y10036D01*
X8875Y10035D01*
X8875Y10035D01*
X8873Y10034D01*
X8872Y10033D01*
X8871Y10032D01*
X8870Y10030D01*
X8869Y10029D01*
X8858Y10030D01*
X8867Y10081D01*
X8916D01*
Y10069D01*
D02*
G37*
G36*
X9769Y9118D02*
X9770Y9118D01*
X9772Y9118D01*
X9773Y9118D01*
X9775Y9117D01*
X9779Y9116D01*
X9783Y9115D01*
X9785Y9114D01*
X9787Y9113D01*
X9789Y9112D01*
X9791Y9111D01*
X9791Y9111D01*
X9792Y9111D01*
X9792Y9110D01*
X9793Y9109D01*
X9794Y9109D01*
X9795Y9108D01*
X9796Y9107D01*
X9797Y9105D01*
X9798Y9104D01*
X9799Y9102D01*
X9800Y9101D01*
X9801Y9099D01*
X9802Y9097D01*
X9803Y9095D01*
X9804Y9092D01*
X9805Y9090D01*
X9792Y9087D01*
Y9087D01*
X9792Y9087D01*
X9792Y9088D01*
X9792Y9089D01*
X9791Y9089D01*
X9791Y9090D01*
X9790Y9093D01*
X9788Y9095D01*
X9787Y9098D01*
X9785Y9100D01*
X9782Y9102D01*
X9782Y9103D01*
X9781Y9103D01*
X9780Y9104D01*
X9778Y9105D01*
X9776Y9106D01*
X9773Y9107D01*
X9770Y9107D01*
X9766Y9107D01*
X9765D01*
X9764Y9107D01*
X9763D01*
X9762Y9107D01*
X9760Y9107D01*
X9757Y9106D01*
X9753Y9105D01*
X9750Y9104D01*
X9747Y9102D01*
X9747D01*
X9747Y9101D01*
X9746Y9101D01*
X9745Y9100D01*
X9743Y9098D01*
X9741Y9096D01*
X9740Y9093D01*
X9738Y9090D01*
X9737Y9087D01*
Y9087D01*
X9737Y9087D01*
X9736Y9086D01*
X9736Y9086D01*
X9736Y9085D01*
X9736Y9084D01*
X9735Y9081D01*
X9735Y9079D01*
X9734Y9076D01*
X9734Y9072D01*
X9734Y9069D01*
Y9068D01*
Y9068D01*
Y9067D01*
Y9066D01*
X9734Y9065D01*
Y9064D01*
X9734Y9063D01*
X9734Y9061D01*
X9735Y9058D01*
X9735Y9054D01*
X9736Y9050D01*
X9737Y9047D01*
Y9047D01*
X9737Y9046D01*
X9738Y9046D01*
X9738Y9045D01*
X9739Y9044D01*
X9740Y9042D01*
X9742Y9039D01*
X9744Y9037D01*
X9746Y9035D01*
X9749Y9033D01*
X9749D01*
X9749Y9033D01*
X9749Y9032D01*
X9750Y9032D01*
X9751Y9032D01*
X9752Y9031D01*
X9753Y9031D01*
X9756Y9030D01*
X9759Y9029D01*
X9762Y9028D01*
X9765Y9028D01*
X9766D01*
X9767Y9028D01*
X9768D01*
X9769Y9029D01*
X9772Y9029D01*
X9775Y9030D01*
X9777Y9031D01*
X9781Y9033D01*
X9782Y9033D01*
X9784Y9035D01*
X9784Y9035D01*
X9784Y9035D01*
X9784Y9035D01*
X9785Y9036D01*
X9785Y9036D01*
X9786Y9037D01*
X9787Y9038D01*
X9788Y9039D01*
X9788Y9040D01*
X9789Y9042D01*
X9790Y9043D01*
X9791Y9045D01*
X9792Y9047D01*
X9793Y9049D01*
X9793Y9051D01*
X9794Y9053D01*
X9807Y9050D01*
Y9050D01*
X9807Y9049D01*
X9806Y9048D01*
X9806Y9047D01*
X9806Y9046D01*
X9805Y9044D01*
X9804Y9043D01*
X9803Y9041D01*
X9801Y9037D01*
X9799Y9033D01*
X9797Y9031D01*
X9796Y9029D01*
X9794Y9027D01*
X9792Y9026D01*
X9792Y9026D01*
X9792Y9025D01*
X9791Y9025D01*
X9790Y9024D01*
X9789Y9024D01*
X9788Y9023D01*
X9786Y9022D01*
X9785Y9022D01*
X9783Y9021D01*
X9781Y9020D01*
X9779Y9019D01*
X9777Y9019D01*
X9774Y9018D01*
X9772Y9018D01*
X9769Y9017D01*
X9766Y9017D01*
X9765D01*
X9764Y9017D01*
X9762D01*
X9761Y9018D01*
X9759Y9018D01*
X9757Y9018D01*
X9753Y9019D01*
X9749Y9020D01*
X9745Y9022D01*
X9743Y9023D01*
X9741Y9024D01*
X9741Y9024D01*
X9740Y9024D01*
X9740Y9024D01*
X9739Y9025D01*
X9738Y9026D01*
X9737Y9026D01*
X9736Y9027D01*
X9735Y9028D01*
X9734Y9030D01*
X9733Y9031D01*
X9730Y9034D01*
X9728Y9038D01*
X9726Y9042D01*
Y9042D01*
X9725Y9043D01*
X9725Y9044D01*
X9725Y9044D01*
X9724Y9046D01*
X9724Y9047D01*
X9723Y9048D01*
X9723Y9050D01*
X9723Y9052D01*
X9722Y9054D01*
X9721Y9058D01*
X9721Y9063D01*
X9721Y9069D01*
Y9069D01*
Y9069D01*
Y9070D01*
X9721Y9071D01*
Y9072D01*
X9721Y9074D01*
X9721Y9076D01*
X9721Y9078D01*
X9722Y9082D01*
X9723Y9086D01*
X9724Y9091D01*
X9726Y9095D01*
X9726Y9095D01*
X9727Y9096D01*
X9727Y9096D01*
X9727Y9097D01*
X9728Y9098D01*
X9729Y9099D01*
X9731Y9101D01*
X9733Y9104D01*
X9736Y9107D01*
X9739Y9110D01*
X9743Y9112D01*
X9743Y9112D01*
X9743Y9113D01*
X9744Y9113D01*
X9745Y9113D01*
X9746Y9114D01*
X9747Y9114D01*
X9748Y9115D01*
X9750Y9115D01*
X9752Y9116D01*
X9753Y9116D01*
X9757Y9117D01*
X9762Y9118D01*
X9766Y9118D01*
X9768D01*
X9769Y9118D01*
D02*
G37*
G36*
X9863Y9019D02*
X9851D01*
Y9095D01*
X9851Y9095D01*
X9850Y9095D01*
X9849Y9094D01*
X9848Y9093D01*
X9846Y9091D01*
X9844Y9090D01*
X9842Y9089D01*
X9839Y9087D01*
X9839D01*
X9839Y9087D01*
X9838Y9086D01*
X9837Y9086D01*
X9835Y9085D01*
X9833Y9084D01*
X9831Y9083D01*
X9829Y9082D01*
X9827Y9081D01*
Y9092D01*
X9827D01*
X9827Y9093D01*
X9828Y9093D01*
X9829Y9093D01*
X9829Y9094D01*
X9830Y9094D01*
X9833Y9096D01*
X9836Y9097D01*
X9839Y9099D01*
X9841Y9101D01*
X9844Y9104D01*
X9845Y9104D01*
X9845Y9104D01*
X9845Y9105D01*
X9846Y9105D01*
X9847Y9106D01*
X9849Y9108D01*
X9850Y9110D01*
X9852Y9112D01*
X9854Y9115D01*
X9855Y9117D01*
X9863D01*
Y9019D01*
D02*
G37*
%LPC*%
G36*
X6872Y7713D02*
X6829D01*
X6872Y7683D01*
Y7713D01*
D02*
G37*
G36*
X9033Y9626D02*
X9003D01*
Y9594D01*
X9032D01*
X9033Y9594D01*
X9035Y9594D01*
X9038Y9594D01*
X9040Y9595D01*
X9042Y9595D01*
X9044Y9596D01*
X9044Y9596D01*
X9045Y9596D01*
X9046Y9596D01*
X9047Y9597D01*
X9048Y9598D01*
X9049Y9599D01*
X9051Y9600D01*
X9052Y9602D01*
X9052Y9602D01*
X9052Y9602D01*
X9053Y9603D01*
X9053Y9604D01*
X9053Y9605D01*
X9054Y9607D01*
X9054Y9609D01*
X9054Y9610D01*
Y9610D01*
Y9611D01*
X9054Y9611D01*
X9054Y9613D01*
X9054Y9614D01*
X9053Y9616D01*
X9052Y9618D01*
X9051Y9620D01*
X9049Y9622D01*
X9049Y9622D01*
X9048Y9622D01*
X9047Y9623D01*
X9045Y9624D01*
X9043Y9625D01*
X9040Y9626D01*
X9037Y9626D01*
X9033Y9626D01*
D02*
G37*
G36*
X9042Y9410D02*
X9012D01*
Y9378D01*
X9041D01*
X9042Y9378D01*
X9044Y9378D01*
X9047Y9378D01*
X9049Y9379D01*
X9051Y9379D01*
X9053Y9380D01*
X9053Y9380D01*
X9054Y9380D01*
X9055Y9381D01*
X9056Y9381D01*
X9057Y9382D01*
X9058Y9383D01*
X9060Y9384D01*
X9061Y9386D01*
X9061Y9386D01*
X9061Y9386D01*
X9061Y9387D01*
X9062Y9388D01*
X9062Y9390D01*
X9063Y9391D01*
X9063Y9393D01*
X9063Y9394D01*
Y9395D01*
Y9395D01*
X9063Y9396D01*
X9063Y9397D01*
X9063Y9398D01*
X9062Y9400D01*
X9061Y9402D01*
X9060Y9404D01*
X9058Y9406D01*
X9058Y9406D01*
X9057Y9407D01*
X9056Y9407D01*
X9054Y9408D01*
X9052Y9409D01*
X9049Y9410D01*
X9046Y9410D01*
X9042Y9410D01*
D02*
G37*
G36*
X10258Y10253D02*
X10257D01*
X10256Y10253D01*
X10255Y10253D01*
X10253Y10253D01*
X10252Y10252D01*
X10250Y10252D01*
X10248Y10251D01*
X10246Y10251D01*
X10244Y10250D01*
X10242Y10249D01*
X10240Y10248D01*
X10238Y10246D01*
X10236Y10245D01*
X10234Y10243D01*
X10234Y10243D01*
X10234Y10243D01*
X10233Y10242D01*
X10233Y10241D01*
X10232Y10240D01*
X10231Y10239D01*
X10230Y10237D01*
X10230Y10236D01*
X10229Y10234D01*
X10228Y10232D01*
X10227Y10229D01*
X10226Y10226D01*
X10226Y10224D01*
X10225Y10221D01*
X10225Y10217D01*
X10225Y10214D01*
Y10213D01*
Y10213D01*
Y10212D01*
X10225Y10211D01*
X10225Y10209D01*
X10225Y10207D01*
X10226Y10205D01*
X10226Y10203D01*
X10227Y10198D01*
X10228Y10196D01*
X10229Y10193D01*
X10230Y10191D01*
X10231Y10189D01*
X10232Y10186D01*
X10234Y10184D01*
X10234Y10184D01*
X10235Y10184D01*
X10235Y10183D01*
X10236Y10183D01*
X10237Y10182D01*
X10238Y10181D01*
X10239Y10180D01*
X10241Y10179D01*
X10242Y10178D01*
X10244Y10178D01*
X10246Y10177D01*
X10248Y10176D01*
X10251Y10175D01*
X10253Y10175D01*
X10256Y10174D01*
X10258Y10174D01*
X10260D01*
X10261Y10174D01*
X10262Y10175D01*
X10265Y10175D01*
X10267Y10175D01*
X10269Y10176D01*
X10271Y10177D01*
X10271Y10177D01*
X10270Y10178D01*
X10269Y10178D01*
X10268Y10179D01*
X10266Y10180D01*
X10263Y10181D01*
X10261Y10182D01*
X10259Y10182D01*
X10262Y10192D01*
X10262D01*
X10262Y10192D01*
X10263Y10191D01*
X10264Y10191D01*
X10265Y10191D01*
X10266Y10190D01*
X10268Y10190D01*
X10271Y10188D01*
X10274Y10187D01*
X10277Y10185D01*
X10280Y10182D01*
X10280Y10183D01*
X10281Y10183D01*
X10281Y10184D01*
X10282Y10184D01*
X10283Y10186D01*
X10284Y10187D01*
X10285Y10188D01*
X10286Y10190D01*
X10287Y10192D01*
X10288Y10195D01*
X10289Y10197D01*
X10290Y10200D01*
X10291Y10203D01*
X10291Y10206D01*
X10292Y10210D01*
X10292Y10214D01*
Y10214D01*
Y10214D01*
Y10215D01*
Y10216D01*
X10292Y10217D01*
Y10218D01*
X10291Y10219D01*
X10291Y10221D01*
X10291Y10224D01*
X10290Y10227D01*
X10289Y10231D01*
X10288Y10234D01*
Y10234D01*
X10287Y10235D01*
X10287Y10235D01*
X10287Y10236D01*
X10286Y10237D01*
X10285Y10239D01*
X10283Y10242D01*
X10281Y10244D01*
X10278Y10246D01*
X10276Y10248D01*
X10276D01*
X10275Y10248D01*
X10275Y10249D01*
X10274Y10249D01*
X10274Y10249D01*
X10273Y10250D01*
X10271Y10251D01*
X10268Y10252D01*
X10265Y10252D01*
X10262Y10253D01*
X10258Y10253D01*
D02*
G37*
G36*
X11150Y9813D02*
X11150D01*
X11149D01*
X11149D01*
X11148Y9813D01*
X11146D01*
X11145Y9813D01*
X11143Y9813D01*
X11142Y9813D01*
X11138Y9812D01*
X11134Y9811D01*
X11130Y9810D01*
X11128Y9809D01*
X11127Y9808D01*
X11127D01*
X11126Y9808D01*
X11126Y9808D01*
X11125Y9807D01*
X11124Y9806D01*
X11122Y9805D01*
X11120Y9803D01*
X11119Y9801D01*
X11117Y9799D01*
X11116Y9796D01*
X11116Y9796D01*
X11115Y9795D01*
X11115Y9794D01*
X11115Y9792D01*
X11114Y9790D01*
X11114Y9787D01*
X11114Y9785D01*
Y9783D01*
X11114Y9782D01*
Y9759D01*
X11188D01*
Y9782D01*
X11188Y9783D01*
X11188Y9785D01*
X11188Y9788D01*
X11187Y9790D01*
X11187Y9793D01*
X11186Y9795D01*
X11186Y9795D01*
X11186Y9796D01*
X11186Y9797D01*
X11185Y9798D01*
X11184Y9799D01*
X11183Y9801D01*
X11182Y9802D01*
X11181Y9804D01*
X11181Y9804D01*
X11180Y9804D01*
X11179Y9805D01*
X11178Y9806D01*
X11176Y9807D01*
X11174Y9809D01*
X11172Y9810D01*
X11169Y9811D01*
X11169D01*
X11169Y9811D01*
X11168Y9811D01*
X11168Y9811D01*
X11167Y9811D01*
X11166Y9812D01*
X11165Y9812D01*
X11164Y9812D01*
X11161Y9813D01*
X11158Y9813D01*
X11154Y9813D01*
X11150Y9813D01*
D02*
G37*
%LPD*%
D20*
X10919Y5603D02*
Y7503D01*
X9019Y5603D02*
Y7503D01*
X9809D01*
X10130D02*
X10919D01*
X9019Y5603D02*
X9809D01*
X10130D02*
X10919D01*
X8913Y7572D02*
Y9472D01*
X7013Y7572D02*
Y9472D01*
X7802D01*
X8124D02*
X8913D01*
X7013Y7572D02*
X7802D01*
X8124D02*
X8913D01*
X9419Y8806D02*
X10519D01*
X9419Y7806D02*
X10519D01*
X9373Y9422D02*
Y9527D01*
Y9193D02*
Y9298D01*
X10152Y10141D02*
Y10328D01*
X9126Y10141D02*
Y10328D01*
Y10141D02*
X10152D01*
X10976Y9540D02*
Y10121D01*
X10614Y9540D02*
Y10067D01*
D32*
X8952Y10935D02*
G03*
X8952Y10935I-10J0D01*
G01*
X9993Y7720D02*
G03*
X9993Y7720I-9J0D01*
G01*
X7987Y9688D02*
G03*
X7987Y9688I-9J0D01*
G01*
D33*
X9314Y9651D02*
G03*
X9314Y9651I-14J0D01*
G01*
D34*
X6709Y10415D02*
Y11175D01*
X8869Y10718D02*
Y11175D01*
Y10415D02*
Y10432D01*
X6709Y11175D02*
X8869D01*
X6709Y10415D02*
X8869D01*
%TF.MD5,cc3bc022258e6cb968ceb54d5c812591*%
M02*
