%TF.GenerationSoftware,Altium Limited,Altium Designer,21.1.1 (26)*%
G04 Layer_Physical_Order=1*
G04 Layer_Color=255*
%FSLAX42Y42*%
%MOMM*%
%TF.SameCoordinates,4B38A6DA-841C-4E6F-8FC0-14FCB5F023F9*%
%TF.FilePolarity,Positive*%
%TF.FileFunction,Copper,L1,Top,Signal*%
%TF.Part,Single*%
G01*
G75*
%TA.AperFunction,FiducialPad,Global*%
%ADD10C,1.00*%
%TA.AperFunction,SMDPad,CuDef*%
%ADD11R,2.50X7.50*%
%ADD12R,1.47X0.97*%
%ADD13R,3.50X3.20*%
%ADD14R,1.00X1.40*%
%ADD15R,10.90X9.10*%
%ADD16R,1.05X2.50*%
%ADD17R,2.05X2.25*%
%ADD18R,0.97X1.47*%
%TA.AperFunction,Conductor*%
%ADD19C,0.51*%
%TA.AperFunction,NonConductor*%
%ADD20C,0.51*%
%TA.AperFunction,Conductor*%
%ADD21C,0.25*%
%TA.AperFunction,ComponentPad*%
%ADD22C,1.80*%
%ADD23R,1.80X1.80*%
%ADD24C,1.35*%
%TA.AperFunction,ViaPad*%
%ADD25C,1.27*%
%ADD26C,0.76*%
G36*
X9513Y9404D02*
X9509Y9402D01*
X9505Y9400D01*
X9502Y9396D01*
X9499Y9392D01*
X9497Y9386D01*
X9495Y9380D01*
X9494Y9372D01*
X9493Y9363D01*
X9493Y9360D01*
X9493Y9356D01*
X9494Y9348D01*
X9495Y9340D01*
X9497Y9334D01*
X9499Y9328D01*
X9502Y9323D01*
X9505Y9320D01*
X9509Y9317D01*
X9513Y9316D01*
X9517Y9315D01*
X9418D01*
X9423Y9316D01*
X9427Y9317D01*
X9430Y9320D01*
X9433Y9323D01*
X9436Y9328D01*
X9438Y9334D01*
X9440Y9340D01*
X9441Y9348D01*
X9442Y9356D01*
X9442Y9360D01*
X9442Y9363D01*
X9441Y9372D01*
X9440Y9380D01*
X9438Y9386D01*
X9436Y9392D01*
X9433Y9396D01*
X9430Y9400D01*
X9427Y9402D01*
X9423Y9404D01*
X9418Y9405D01*
X9517D01*
X9513Y9404D01*
D02*
G37*
G36*
X10452Y8516D02*
X10452Y8507D01*
X10453Y8498D01*
X10454Y8490D01*
X10456Y8484D01*
X10458Y8478D01*
X10461Y8474D01*
X10465Y8470D01*
X10468Y8468D01*
X10473Y8466D01*
X10478Y8465D01*
X10376D01*
X10381Y8466D01*
X10385Y8468D01*
X10389Y8470D01*
X10392Y8474D01*
X10395Y8478D01*
X10397Y8484D01*
X10399Y8490D01*
X10400Y8498D01*
X10401Y8507D01*
X10401Y8516D01*
X10452D01*
D02*
G37*
G36*
X10002Y9395D02*
X10002Y9385D01*
X10003Y9377D01*
X10004Y9369D01*
X10005Y9362D01*
X10007Y9357D01*
X10010Y9352D01*
X10013Y9349D01*
X10016Y9346D01*
X10020Y9345D01*
X10024Y9344D01*
X9928D01*
X9932Y9345D01*
X9936Y9346D01*
X9940Y9349D01*
X9943Y9352D01*
X9945Y9357D01*
X9947Y9362D01*
X9949Y9369D01*
X9950Y9377D01*
X9951Y9385D01*
X9951Y9395D01*
X10002D01*
D02*
G37*
G36*
X9836D02*
X9836Y9385D01*
X9837Y9377D01*
X9838Y9369D01*
X9839Y9362D01*
X9841Y9357D01*
X9844Y9352D01*
X9847Y9349D01*
X9850Y9346D01*
X9854Y9345D01*
X9858Y9344D01*
X9762D01*
X9766Y9345D01*
X9770Y9346D01*
X9774Y9349D01*
X9777Y9352D01*
X9779Y9357D01*
X9781Y9362D01*
X9783Y9369D01*
X9784Y9377D01*
X9785Y9385D01*
X9785Y9395D01*
X9836D01*
D02*
G37*
G36*
X9493Y9595D02*
X9493Y9585D01*
X9494Y9576D01*
X9495Y9569D01*
X9497Y9562D01*
X9499Y9557D01*
X9502Y9552D01*
X9505Y9548D01*
X9509Y9546D01*
X9513Y9544D01*
X9517Y9544D01*
X9418D01*
X9423Y9544D01*
X9427Y9546D01*
X9430Y9548D01*
X9433Y9552D01*
X9436Y9557D01*
X9438Y9562D01*
X9440Y9569D01*
X9441Y9576D01*
X9442Y9585D01*
X9442Y9595D01*
X9493D01*
D02*
G37*
G36*
X9442Y9680D02*
X9442Y9690D01*
X9441Y9699D01*
X9440Y9706D01*
X9438Y9713D01*
X9436Y9718D01*
X9433Y9723D01*
X9430Y9727D01*
X9426Y9729D01*
X9422Y9731D01*
X9417Y9731D01*
X9518Y9731D01*
X9514Y9731D01*
X9509Y9729D01*
X9505Y9727D01*
X9502Y9723D01*
X9499Y9719D01*
X9497Y9713D01*
X9495Y9706D01*
X9494Y9699D01*
X9493Y9690D01*
X9493Y9680D01*
X9442D01*
D02*
G37*
G36*
X9665Y10031D02*
X9665Y10022D01*
X9666Y10013D01*
X9667Y10005D01*
X9669Y9999D01*
X9671Y9993D01*
X9674Y9988D01*
X9677Y9985D01*
X9681Y9982D01*
X9685Y9981D01*
X9690Y9980D01*
X9589D01*
X9593Y9981D01*
X9598Y9982D01*
X9601Y9985D01*
X9605Y9988D01*
X9608Y9993D01*
X9610Y9999D01*
X9612Y10005D01*
X9613Y10013D01*
X9614Y10022D01*
X9614Y10031D01*
X9665D01*
D02*
G37*
G36*
X9785Y9680D02*
X9785Y9690D01*
X9784Y9699D01*
X9783Y9706D01*
X9781Y9713D01*
X9779Y9719D01*
X9776Y9723D01*
X9772Y9727D01*
X9769Y9729D01*
X9764Y9731D01*
X9760Y9731D01*
X9861D01*
X9856Y9731D01*
X9852Y9729D01*
X9848Y9727D01*
X9845Y9723D01*
X9842Y9719D01*
X9840Y9713D01*
X9838Y9706D01*
X9837Y9699D01*
X9836Y9690D01*
X9836Y9680D01*
X9785D01*
D02*
G37*
G36*
X9951D02*
X9951Y9690D01*
X9950Y9699D01*
X9949Y9706D01*
X9947Y9713D01*
X9945Y9718D01*
X9942Y9723D01*
X9939Y9727D01*
X9936Y9729D01*
X9932Y9731D01*
X9927Y9731D01*
X10027Y9731D01*
X10022Y9731D01*
X10018Y9729D01*
X10014Y9727D01*
X10011Y9723D01*
X10008Y9719D01*
X10006Y9713D01*
X10004Y9706D01*
X10003Y9699D01*
X10002Y9690D01*
X10002Y9680D01*
X9951D01*
D02*
G37*
D10*
X6617Y11392D02*
D03*
X11125Y5588D02*
D03*
D11*
X9969Y7263D02*
D03*
Y5843D02*
D03*
X7963Y9232D02*
D03*
Y7812D02*
D03*
D12*
X10249Y9283D02*
D03*
Y9449D02*
D03*
D13*
X9519Y8306D02*
D03*
X10419D02*
D03*
D14*
X9278Y9474D02*
D03*
X9468D02*
D03*
Y9246D02*
D03*
X9278D02*
D03*
D15*
X9639Y10846D02*
D03*
D16*
X9979Y9856D02*
D03*
X9809D02*
D03*
X9639D02*
D03*
X9469D02*
D03*
X9299D02*
D03*
D17*
X10795Y10018D02*
D03*
Y9589D02*
D03*
D18*
X8922Y9830D02*
D03*
X8756D02*
D03*
X9810Y9271D02*
D03*
X9976D02*
D03*
D19*
X8539Y10935D02*
X8547Y10927D01*
Y10211D02*
Y10927D01*
X8522Y10919D02*
X8534Y10931D01*
X9492Y8318D02*
X9507D01*
X9278Y8533D02*
X9492Y8318D01*
X9278Y8533D02*
Y9246D01*
X8941D02*
X9278D01*
X10795Y9538D02*
Y9589D01*
Y9538D02*
X10820Y9512D01*
X7963Y7812D02*
Y8103D01*
X7976Y8115D01*
X9969Y5742D02*
Y6160D01*
X9976Y7270D02*
Y9271D01*
X9969Y7263D02*
X9976Y7270D01*
X9945Y7137D02*
X9976Y7168D01*
X9461Y7137D02*
X9945D01*
X9976Y9271D02*
Y9853D01*
X7034Y10948D02*
X7036Y10949D01*
X7029Y10215D02*
X7034Y10220D01*
Y10948D01*
X7976Y9219D02*
X8002Y9246D01*
X7976Y9219D02*
Y9843D01*
X7539Y10279D02*
Y10935D01*
Y10279D02*
X7976Y9843D01*
X8002Y9246D02*
X8941D01*
X8756Y9430D02*
Y9830D01*
Y9430D02*
X8941Y9246D01*
X9278Y9834D02*
Y9837D01*
Y9474D02*
Y9834D01*
X9299Y9856D01*
X9273Y9830D02*
X9278Y9834D01*
X8922Y9830D02*
X9273D01*
X9272Y9843D02*
X9278Y9837D01*
X9982Y9277D02*
X10243D01*
X9976Y9271D02*
X9982Y9277D01*
X10243D02*
X10249Y9283D01*
Y9449D02*
Y9671D01*
X10791Y10020D02*
X10792Y10022D01*
X10427Y10020D02*
X10791D01*
X10792Y10022D02*
X10795Y10018D01*
X9809Y9783D02*
Y9856D01*
X10427Y8313D02*
Y10020D01*
X9639Y9856D02*
Y10046D01*
X9690Y10096D02*
X10350D01*
X9639Y10046D02*
X9690Y10096D01*
X10419Y8306D02*
X10427Y8313D01*
X10350Y10096D02*
X10427Y10020D01*
X10419Y8306D02*
X10422Y8308D01*
X9468Y9246D02*
Y9474D01*
X9809Y9856D02*
X9810Y9855D01*
X9976Y9853D02*
X9979Y9856D01*
X9810Y9271D02*
Y9855D01*
X9468Y9474D02*
Y9854D01*
X9469Y9856D01*
D20*
X11265Y5448D02*
Y10338D01*
X8375Y5417D02*
X11234D01*
X11265Y5448D01*
X10096Y11506D02*
X11265Y10338D01*
X6502Y11506D02*
X10096D01*
X6502Y7290D02*
X8375Y5417D01*
X6502Y7290D02*
Y11506D01*
D21*
X9507Y8318D02*
X9519Y8306D01*
D22*
X7039Y10935D02*
D03*
X7539D02*
D03*
X8039D02*
D03*
D23*
X8539D02*
D03*
D24*
X8799Y10575D02*
D03*
D25*
X8547Y10211D02*
D03*
X9461Y7137D02*
D03*
D26*
X10820Y9512D02*
D03*
X7976Y8115D02*
D03*
X9969Y6160D02*
D03*
X7029Y10215D02*
D03*
X9119Y9830D02*
D03*
X10249Y9671D02*
D03*
%TF.MD5,513ea37fb69b699cb2329ed2a68c1f14*%
M02*
