solid
 facet normal -9.989523e-01  0.000000e+00  4.576250e-02
   outer loop
     vertex -2.535000e+00 -1.810000e+00  1.163000e+00
     vertex -2.495835e+00 -1.770835e+00  2.017943e+00
     vertex -2.495835e+00  1.770835e+00  2.017943e+00
   endloop
 endfacet
 facet normal -9.989523e-01  0.000000e+00  4.576250e-02
   outer loop
     vertex -2.535000e+00  1.810000e+00  1.163000e+00
     vertex -2.535000e+00 -1.810000e+00  1.163000e+00
     vertex -2.495835e+00  1.770835e+00  2.017943e+00
   endloop
 endfacet
 facet normal -8.251631e-16 -9.989523e-01  4.576250e-02
   outer loop
     vertex -2.054000e+00 -1.751500e+00  2.440000e+00
     vertex -2.495835e+00 -1.770835e+00  2.017943e+00
     vertex -2.535000e+00 -1.810000e+00  1.163000e+00
   endloop
 endfacet
 facet normal  0.000000e+00 -9.989523e-01  4.576250e-02
   outer loop
     vertex  2.535000e+00 -1.810000e+00  1.163000e+00
     vertex -2.054000e+00 -1.751500e+00  2.440000e+00
     vertex -2.535000e+00 -1.810000e+00  1.163000e+00
   endloop
 endfacet
 facet normal  4.485737e-18 -9.989523e-01  4.576250e-02
   outer loop
     vertex  2.476500e+00 -1.751500e+00  2.440000e+00
     vertex -2.054000e+00 -1.751500e+00  2.440000e+00
     vertex  2.535000e+00 -1.810000e+00  1.163000e+00
   endloop
 endfacet
 facet normal -6.907378e-01  0.000000e+00  7.231053e-01
   outer loop
     vertex -2.495835e+00 -1.770835e+00  2.017943e+00
     vertex -2.054000e+00 -1.751500e+00  2.440000e+00
     vertex -2.054000e+00  1.751500e+00  2.440000e+00
   endloop
 endfacet
 facet normal -6.907378e-01  0.000000e+00  7.231053e-01
   outer loop
     vertex -2.495835e+00  1.770835e+00  2.017943e+00
     vertex -2.495835e+00 -1.770835e+00  2.017943e+00
     vertex -2.054000e+00  1.751500e+00  2.440000e+00
   endloop
 endfacet
 facet normal -1.000000e+00  0.000000e+00  4.440892e-14
   outer loop
     vertex -2.535000e+00  1.810000e+00  1.153000e+00
     vertex -2.535000e+00 -1.810000e+00  1.153000e+00
     vertex -2.535000e+00 -1.810000e+00  1.163000e+00
   endloop
 endfacet
 facet normal -1.000000e+00  0.000000e+00  4.440892e-14
   outer loop
     vertex -2.535000e+00  1.810000e+00  1.163000e+00
     vertex -2.535000e+00  1.810000e+00  1.153000e+00
     vertex -2.535000e+00 -1.810000e+00  1.163000e+00
   endloop
 endfacet
 facet normal -3.837968e-17  9.989523e-01  4.576250e-02
   outer loop
     vertex -2.535000e+00  1.810000e+00  1.163000e+00
     vertex -2.495835e+00  1.770835e+00  2.017943e+00
     vertex -2.054000e+00  1.751500e+00  2.440000e+00
   endloop
 endfacet
 facet normal  0.000000e+00  9.989523e-01  4.576250e-02
   outer loop
     vertex -2.535000e+00  1.810000e+00  1.163000e+00
     vertex -2.054000e+00  1.751500e+00  2.440000e+00
     vertex  2.535000e+00  1.810000e+00  1.163000e+00
   endloop
 endfacet
 facet normal  4.485737e-18  9.989523e-01  4.576250e-02
   outer loop
     vertex  2.535000e+00  1.810000e+00  1.163000e+00
     vertex -2.054000e+00  1.751500e+00  2.440000e+00
     vertex  2.476500e+00  1.751500e+00  2.440000e+00
   endloop
 endfacet
 facet normal  0.000000e+00 -1.000000e+00  0.000000e+00
   outer loop
     vertex -2.535000e+00 -1.810000e+00  1.153000e+00
     vertex  2.535000e+00 -1.810000e+00  1.153000e+00
     vertex  2.535000e+00 -1.810000e+00  1.163000e+00
   endloop
 endfacet
 facet normal  0.000000e+00 -1.000000e+00 -0.000000e+00
   outer loop
     vertex -2.535000e+00 -1.810000e+00  1.163000e+00
     vertex -2.535000e+00 -1.810000e+00  1.153000e+00
     vertex  2.535000e+00 -1.810000e+00  1.163000e+00
   endloop
 endfacet
 facet normal  9.802212e-17  0.000000e+00  1.000000e+00
   outer loop
     vertex  2.476500e+00  1.751500e+00  2.440000e+00
     vertex -2.054000e+00 -1.751500e+00  2.440000e+00
     vertex  2.476500e+00 -1.751500e+00  2.440000e+00
   endloop
 endfacet
 facet normal  9.802212e-17  0.000000e+00  1.000000e+00
   outer loop
     vertex  2.476500e+00  1.751500e+00  2.440000e+00
     vertex -2.054000e+00  1.751500e+00  2.440000e+00
     vertex -2.054000e+00 -1.751500e+00  2.440000e+00
   endloop
 endfacet
 facet normal  9.989523e-01  0.000000e+00  4.576250e-02
   outer loop
     vertex  2.535000e+00  1.810000e+00  1.163000e+00
     vertex  2.476500e+00 -1.751500e+00  2.440000e+00
     vertex  2.535000e+00 -1.810000e+00  1.163000e+00
   endloop
 endfacet
 facet normal  9.989523e-01  0.000000e+00  4.576250e-02
   outer loop
     vertex  2.476500e+00  1.751500e+00  2.440000e+00
     vertex  2.476500e+00 -1.751500e+00  2.440000e+00
     vertex  2.535000e+00  1.810000e+00  1.163000e+00
   endloop
 endfacet
 facet normal -9.984604e-01 -0.000000e+00 -5.547002e-02
   outer loop
     vertex -2.476500e+00  1.751500e+00  1.000000e-01
     vertex -2.476500e+00 -1.751500e+00  1.000000e-01
     vertex -2.535000e+00 -1.810000e+00  1.153000e+00
   endloop
 endfacet
 facet normal -9.984604e-01  0.000000e+00 -5.547002e-02
   outer loop
     vertex -2.476500e+00  1.751500e+00  1.000000e-01
     vertex -2.535000e+00 -1.810000e+00  1.153000e+00
     vertex -2.535000e+00  1.810000e+00  1.153000e+00
   endloop
 endfacet
 facet normal  0.000000e+00  1.000000e+00  0.000000e+00
   outer loop
     vertex  2.535000e+00  1.810000e+00  1.163000e+00
     vertex  2.535000e+00  1.810000e+00  1.153000e+00
     vertex -2.535000e+00  1.810000e+00  1.153000e+00
   endloop
 endfacet
 facet normal  0.000000e+00  1.000000e+00 -0.000000e+00
   outer loop
     vertex  2.535000e+00  1.810000e+00  1.163000e+00
     vertex -2.535000e+00  1.810000e+00  1.153000e+00
     vertex -2.535000e+00  1.810000e+00  1.163000e+00
   endloop
 endfacet
 facet normal  1.000000e+00 -0.000000e+00  8.881784e-14
   outer loop
     vertex  2.535000e+00 -1.810000e+00  1.163000e+00
     vertex  2.535000e+00 -1.810000e+00  1.153000e+00
     vertex  2.535000e+00  1.810000e+00  1.153000e+00
   endloop
 endfacet
 facet normal  1.000000e+00  0.000000e+00  8.881784e-14
   outer loop
     vertex  2.535000e+00 -1.810000e+00  1.163000e+00
     vertex  2.535000e+00  1.810000e+00  1.153000e+00
     vertex  2.535000e+00  1.810000e+00  1.163000e+00
   endloop
 endfacet
 facet normal  0.000000e+00 -9.984604e-01 -5.547002e-02
   outer loop
     vertex -2.535000e+00 -1.810000e+00  1.153000e+00
     vertex -2.476500e+00 -1.751500e+00  1.000000e-01
     vertex  2.535000e+00 -1.810000e+00  1.153000e+00
   endloop
 endfacet
 facet normal  0.000000e+00 -9.984604e-01 -5.547002e-02
   outer loop
     vertex  2.535000e+00 -1.810000e+00  1.153000e+00
     vertex -2.476500e+00 -1.751500e+00  1.000000e-01
     vertex  2.476500e+00 -1.751500e+00  1.000000e-01
   endloop
 endfacet
 facet normal  0.000000e+00  0.000000e+00 -1.000000e+00
   outer loop
     vertex -2.476500e+00 -1.751500e+00  1.000000e-01
     vertex -2.476500e+00  1.751500e+00  1.000000e-01
     vertex  2.476500e+00  1.751500e+00  1.000000e-01
   endloop
 endfacet
 facet normal  0.000000e+00  0.000000e+00 -1.000000e+00
   outer loop
     vertex  2.476500e+00 -1.751500e+00  1.000000e-01
     vertex -2.476500e+00 -1.751500e+00  1.000000e-01
     vertex  2.476500e+00  1.751500e+00  1.000000e-01
   endloop
 endfacet
 facet normal  0.000000e+00  9.984604e-01 -5.547002e-02
   outer loop
     vertex  2.535000e+00  1.810000e+00  1.153000e+00
     vertex -2.476500e+00  1.751500e+00  1.000000e-01
     vertex -2.535000e+00  1.810000e+00  1.153000e+00
   endloop
 endfacet
 facet normal  0.000000e+00  9.984604e-01 -5.547002e-02
   outer loop
     vertex  2.476500e+00  1.751500e+00  1.000000e-01
     vertex -2.476500e+00  1.751500e+00  1.000000e-01
     vertex  2.535000e+00  1.810000e+00  1.153000e+00
   endloop
 endfacet
 facet normal  9.984604e-01  0.000000e+00 -5.547002e-02
   outer loop
     vertex  2.535000e+00 -1.810000e+00  1.153000e+00
     vertex  2.476500e+00 -1.751500e+00  1.000000e-01
     vertex  2.476500e+00  1.751500e+00  1.000000e-01
   endloop
 endfacet
 facet normal  9.984604e-01  0.000000e+00 -5.547002e-02
   outer loop
     vertex  2.535000e+00  1.810000e+00  1.153000e+00
     vertex  2.535000e+00 -1.810000e+00  1.153000e+00
     vertex  2.476500e+00  1.751500e+00  1.000000e-01
   endloop
 endfacet
 facet normal  0.000000e+00 -1.000000e+00  0.000000e+00
   outer loop
     vertex -2.560882e+00 -1.005000e+00  3.407417e-03
     vertex -2.535000e+00 -1.005000e+00 -1.387779e-17
     vertex -2.535000e+00 -1.005000e+00  1.000000e-01
   endloop
 endfacet
 facet normal  0.000000e+00 -1.000000e+00  0.000000e+00
   outer loop
     vertex -2.585000e+00 -1.005000e+00  1.339746e-02
     vertex -2.560882e+00 -1.005000e+00  3.407417e-03
     vertex -2.535000e+00 -1.005000e+00  1.000000e-01
   endloop
 endfacet
 facet normal  0.000000e+00 -1.000000e+00  0.000000e+00
   outer loop
     vertex -2.605711e+00 -1.005000e+00  2.928932e-02
     vertex -2.585000e+00 -1.005000e+00  1.339746e-02
     vertex -2.535000e+00 -1.005000e+00  1.000000e-01
   endloop
 endfacet
 facet normal  0.000000e+00 -1.000000e+00  0.000000e+00
   outer loop
     vertex -2.621603e+00 -1.005000e+00  5.000000e-02
     vertex -2.605711e+00 -1.005000e+00  2.928932e-02
     vertex -2.535000e+00 -1.005000e+00  1.000000e-01
   endloop
 endfacet
 facet normal  0.000000e+00 -1.000000e+00  0.000000e+00
   outer loop
     vertex -2.631593e+00 -1.005000e+00  7.411810e-02
     vertex -2.621603e+00 -1.005000e+00  5.000000e-02
     vertex -2.535000e+00 -1.005000e+00  1.000000e-01
   endloop
 endfacet
 facet normal  0.000000e+00 -1.000000e+00  0.000000e+00
   outer loop
     vertex -2.635000e+00 -1.005000e+00  1.000000e-01
     vertex -2.631593e+00 -1.005000e+00  7.411810e-02
     vertex -2.535000e+00 -1.005000e+00  1.000000e-01
   endloop
 endfacet
 facet normal  0.000000e+00 -1.000000e+00 -0.000000e+00
   outer loop
     vertex -2.631593e+00 -1.005000e+00  1.078882e+00
     vertex -2.635000e+00 -1.005000e+00  1.053000e+00
     vertex -2.535000e+00 -1.005000e+00  1.053000e+00
   endloop
 endfacet
 facet normal  0.000000e+00 -1.000000e+00 -0.000000e+00
   outer loop
     vertex -2.621603e+00 -1.005000e+00  1.103000e+00
     vertex -2.631593e+00 -1.005000e+00  1.078882e+00
     vertex -2.535000e+00 -1.005000e+00  1.053000e+00
   endloop
 endfacet
 facet normal  0.000000e+00 -1.000000e+00 -0.000000e+00
   outer loop
     vertex -2.605711e+00 -1.005000e+00  1.123711e+00
     vertex -2.621603e+00 -1.005000e+00  1.103000e+00
     vertex -2.535000e+00 -1.005000e+00  1.053000e+00
   endloop
 endfacet
 facet normal  0.000000e+00 -1.000000e+00  0.000000e+00
   outer loop
     vertex -2.635000e+00 -1.005000e+00  1.053000e+00
     vertex -2.635000e+00 -1.005000e+00  1.000000e-01
     vertex -2.535000e+00 -1.005000e+00  1.053000e+00
   endloop
 endfacet
 facet normal  0.000000e+00 -1.000000e+00  0.000000e+00
   outer loop
     vertex -2.635000e+00 -1.005000e+00  1.000000e-01
     vertex -2.535000e+00 -1.005000e+00  1.000000e-01
     vertex -2.535000e+00 -1.005000e+00  1.053000e+00
   endloop
 endfacet
 facet normal  0.000000e+00 -1.000000e+00  0.000000e+00
   outer loop
     vertex -2.605711e+00 -1.005000e+00  1.123711e+00
     vertex -2.535000e+00 -1.005000e+00  1.053000e+00
     vertex -2.585000e+00 -1.005000e+00  1.139603e+00
   endloop
 endfacet
 facet normal  0.000000e+00 -1.000000e+00  0.000000e+00
   outer loop
     vertex -2.585000e+00 -1.005000e+00  1.139603e+00
     vertex -2.535000e+00 -1.005000e+00  1.053000e+00
     vertex -2.560882e+00 -1.005000e+00  1.149593e+00
   endloop
 endfacet
 facet normal  0.000000e+00 -1.000000e+00  0.000000e+00
   outer loop
     vertex -2.535000e+00 -1.005000e+00 -1.387779e-17
     vertex -1.495000e+00 -1.005000e+00  0.000000e+00
     vertex -1.495000e+00 -1.005000e+00  1.000000e-01
   endloop
 endfacet
 facet normal  0.000000e+00 -1.000000e+00  0.000000e+00
   outer loop
     vertex -2.535000e+00 -1.005000e+00  1.000000e-01
     vertex -2.535000e+00 -1.005000e+00 -1.387779e-17
     vertex -1.495000e+00 -1.005000e+00  1.000000e-01
   endloop
 endfacet
 facet normal  0.000000e+00 -1.000000e+00  0.000000e+00
   outer loop
     vertex -2.560882e+00 -1.005000e+00  1.149593e+00
     vertex -2.535000e+00 -1.005000e+00  1.053000e+00
     vertex -2.535000e+00 -1.005000e+00  1.153000e+00
   endloop
 endfacet
 facet normal  0.000000e+00 -1.000000e+00  0.000000e+00
   outer loop
     vertex -2.535000e+00 -1.005000e+00  1.053000e+00
     vertex -1.595000e+00 -1.005000e+00  1.053000e+00
     vertex -1.595000e+00 -1.005000e+00  1.153000e+00
   endloop
 endfacet
 facet normal  0.000000e+00 -1.000000e+00  0.000000e+00
   outer loop
     vertex -2.535000e+00 -1.005000e+00  1.153000e+00
     vertex -2.535000e+00 -1.005000e+00  1.053000e+00
     vertex -1.595000e+00 -1.005000e+00  1.153000e+00
   endloop
 endfacet
 facet normal -0.000000e+00  0.000000e+00  1.000000e+00
   outer loop
     vertex -2.535000e+00  1.005000e+00  1.153000e+00
     vertex -2.535000e+00 -1.005000e+00  1.153000e+00
     vertex -1.595000e+00 -1.005000e+00  1.153000e+00
   endloop
 endfacet
 facet normal  0.000000e+00  0.000000e+00  1.000000e+00
   outer loop
     vertex -1.595000e+00  1.005000e+00  1.153000e+00
     vertex -2.535000e+00  1.005000e+00  1.153000e+00
     vertex -1.595000e+00 -1.005000e+00  1.153000e+00
   endloop
 endfacet
 facet normal -9.914449e-01  0.000000e+00  1.305262e-01
   outer loop
     vertex -2.631593e+00  1.005000e+00  1.078882e+00
     vertex -2.635000e+00 -1.005000e+00  1.053000e+00
     vertex -2.631593e+00 -1.005000e+00  1.078882e+00
   endloop
 endfacet
 facet normal -9.914449e-01  0.000000e+00  1.305262e-01
   outer loop
     vertex -2.631593e+00  1.005000e+00  1.078882e+00
     vertex -2.635000e+00  1.005000e+00  1.053000e+00
     vertex -2.635000e+00 -1.005000e+00  1.053000e+00
   endloop
 endfacet
 facet normal -9.238795e-01  0.000000e+00  3.826834e-01
   outer loop
     vertex -2.621603e+00  1.005000e+00  1.103000e+00
     vertex -2.631593e+00 -1.005000e+00  1.078882e+00
     vertex -2.621603e+00 -1.005000e+00  1.103000e+00
   endloop
 endfacet
 facet normal -9.238795e-01  0.000000e+00  3.826834e-01
   outer loop
     vertex -2.621603e+00  1.005000e+00  1.103000e+00
     vertex -2.631593e+00  1.005000e+00  1.078882e+00
     vertex -2.631593e+00 -1.005000e+00  1.078882e+00
   endloop
 endfacet
 facet normal -7.933533e-01  0.000000e+00  6.087614e-01
   outer loop
     vertex -2.605711e+00  1.005000e+00  1.123711e+00
     vertex -2.621603e+00 -1.005000e+00  1.103000e+00
     vertex -2.605711e+00 -1.005000e+00  1.123711e+00
   endloop
 endfacet
 facet normal -7.933533e-01  0.000000e+00  6.087614e-01
   outer loop
     vertex -2.605711e+00  1.005000e+00  1.123711e+00
     vertex -2.621603e+00  1.005000e+00  1.103000e+00
     vertex -2.621603e+00 -1.005000e+00  1.103000e+00
   endloop
 endfacet
 facet normal -6.087614e-01  0.000000e+00  7.933533e-01
   outer loop
     vertex -2.585000e+00  1.005000e+00  1.139603e+00
     vertex -2.605711e+00 -1.005000e+00  1.123711e+00
     vertex -2.585000e+00 -1.005000e+00  1.139603e+00
   endloop
 endfacet
 facet normal -6.087614e-01  0.000000e+00  7.933533e-01
   outer loop
     vertex -2.585000e+00  1.005000e+00  1.139603e+00
     vertex -2.605711e+00  1.005000e+00  1.123711e+00
     vertex -2.605711e+00 -1.005000e+00  1.123711e+00
   endloop
 endfacet
 facet normal -3.826834e-01  0.000000e+00  9.238795e-01
   outer loop
     vertex -2.560882e+00  1.005000e+00  1.149593e+00
     vertex -2.585000e+00 -1.005000e+00  1.139603e+00
     vertex -2.560882e+00 -1.005000e+00  1.149593e+00
   endloop
 endfacet
 facet normal -3.826834e-01  0.000000e+00  9.238795e-01
   outer loop
     vertex -2.560882e+00  1.005000e+00  1.149593e+00
     vertex -2.585000e+00  1.005000e+00  1.139603e+00
     vertex -2.585000e+00 -1.005000e+00  1.139603e+00
   endloop
 endfacet
 facet normal -1.305262e-01  0.000000e+00  9.914449e-01
   outer loop
     vertex -2.535000e+00  1.005000e+00  1.153000e+00
     vertex -2.560882e+00 -1.005000e+00  1.149593e+00
     vertex -2.535000e+00 -1.005000e+00  1.153000e+00
   endloop
 endfacet
 facet normal -1.305262e-01  0.000000e+00  9.914449e-01
   outer loop
     vertex -2.535000e+00  1.005000e+00  1.153000e+00
     vertex -2.560882e+00  1.005000e+00  1.149593e+00
     vertex -2.560882e+00 -1.005000e+00  1.149593e+00
   endloop
 endfacet
 facet normal  1.000000e+00  0.000000e+00  0.000000e+00
   outer loop
     vertex -1.595000e+00 -1.005000e+00  1.053000e+00
     vertex -1.595000e+00  1.005000e+00  1.053000e+00
     vertex -1.595000e+00  1.005000e+00  1.153000e+00
   endloop
 endfacet
 facet normal  1.000000e+00 -0.000000e+00  0.000000e+00
   outer loop
     vertex -1.595000e+00 -1.005000e+00  1.153000e+00
     vertex -1.595000e+00 -1.005000e+00  1.053000e+00
     vertex -1.595000e+00  1.005000e+00  1.153000e+00
   endloop
 endfacet
 facet normal -1.000000e+00  0.000000e+00  0.000000e+00
   outer loop
     vertex -2.635000e+00  1.005000e+00  1.000000e-01
     vertex -2.635000e+00 -1.005000e+00  1.000000e-01
     vertex -2.635000e+00 -1.005000e+00  1.053000e+00
   endloop
 endfacet
 facet normal -1.000000e+00 -0.000000e+00 -0.000000e+00
   outer loop
     vertex -2.635000e+00  1.005000e+00  1.053000e+00
     vertex -2.635000e+00  1.005000e+00  1.000000e-01
     vertex -2.635000e+00 -1.005000e+00  1.053000e+00
   endloop
 endfacet
 facet normal  0.000000e+00  0.000000e+00 -1.000000e+00
   outer loop
     vertex -1.595000e+00 -1.005000e+00  1.053000e+00
     vertex -2.535000e+00 -1.005000e+00  1.053000e+00
     vertex -2.535000e+00  1.005000e+00  1.053000e+00
   endloop
 endfacet
 facet normal  0.000000e+00  0.000000e+00 -1.000000e+00
   outer loop
     vertex -1.595000e+00 -1.005000e+00  1.053000e+00
     vertex -2.535000e+00  1.005000e+00  1.053000e+00
     vertex -1.595000e+00  1.005000e+00  1.053000e+00
   endloop
 endfacet
 facet normal -1.305262e-01 -0.000000e+00 -9.914449e-01
   outer loop
     vertex -2.535000e+00  1.005000e+00 -1.387779e-17
     vertex -2.535000e+00 -1.005000e+00 -1.387779e-17
     vertex -2.560882e+00 -1.005000e+00  3.407417e-03
   endloop
 endfacet
 facet normal -3.826834e-01 -0.000000e+00 -9.238795e-01
   outer loop
     vertex -2.560882e+00  1.005000e+00  3.407417e-03
     vertex -2.560882e+00 -1.005000e+00  3.407417e-03
     vertex -2.585000e+00 -1.005000e+00  1.339746e-02
   endloop
 endfacet
 facet normal -1.305262e-01  0.000000e+00 -9.914449e-01
   outer loop
     vertex -2.560882e+00  1.005000e+00  3.407417e-03
     vertex -2.535000e+00  1.005000e+00 -1.387779e-17
     vertex -2.560882e+00 -1.005000e+00  3.407417e-03
   endloop
 endfacet
 facet normal -6.087614e-01 -0.000000e+00 -7.933533e-01
   outer loop
     vertex -2.585000e+00  1.005000e+00  1.339746e-02
     vertex -2.585000e+00 -1.005000e+00  1.339746e-02
     vertex -2.605711e+00 -1.005000e+00  2.928932e-02
   endloop
 endfacet
 facet normal -3.826834e-01  0.000000e+00 -9.238795e-01
   outer loop
     vertex -2.585000e+00  1.005000e+00  1.339746e-02
     vertex -2.560882e+00  1.005000e+00  3.407417e-03
     vertex -2.585000e+00 -1.005000e+00  1.339746e-02
   endloop
 endfacet
 facet normal -7.933533e-01 -0.000000e+00 -6.087614e-01
   outer loop
     vertex -2.605711e+00  1.005000e+00  2.928932e-02
     vertex -2.605711e+00 -1.005000e+00  2.928932e-02
     vertex -2.621603e+00 -1.005000e+00  5.000000e-02
   endloop
 endfacet
 facet normal -6.087614e-01  0.000000e+00 -7.933533e-01
   outer loop
     vertex -2.605711e+00  1.005000e+00  2.928932e-02
     vertex -2.585000e+00  1.005000e+00  1.339746e-02
     vertex -2.605711e+00 -1.005000e+00  2.928932e-02
   endloop
 endfacet
 facet normal -7.933533e-01  0.000000e+00 -6.087614e-01
   outer loop
     vertex -2.621603e+00  1.005000e+00  5.000000e-02
     vertex -2.605711e+00  1.005000e+00  2.928932e-02
     vertex -2.621603e+00 -1.005000e+00  5.000000e-02
   endloop
 endfacet
 facet normal -9.238795e-01  0.000000e+00 -3.826834e-01
   outer loop
     vertex -2.631593e+00  1.005000e+00  7.411810e-02
     vertex -2.621603e+00 -1.005000e+00  5.000000e-02
     vertex -2.631593e+00 -1.005000e+00  7.411810e-02
   endloop
 endfacet
 facet normal -9.238795e-01 -0.000000e+00 -3.826834e-01
   outer loop
     vertex -2.631593e+00  1.005000e+00  7.411810e-02
     vertex -2.621603e+00  1.005000e+00  5.000000e-02
     vertex -2.621603e+00 -1.005000e+00  5.000000e-02
   endloop
 endfacet
 facet normal -9.914449e-01  0.000000e+00 -1.305262e-01
   outer loop
     vertex -2.635000e+00  1.005000e+00  1.000000e-01
     vertex -2.631593e+00 -1.005000e+00  7.411810e-02
     vertex -2.635000e+00 -1.005000e+00  1.000000e-01
   endloop
 endfacet
 facet normal -9.914449e-01 -0.000000e+00 -1.305262e-01
   outer loop
     vertex -2.635000e+00  1.005000e+00  1.000000e-01
     vertex -2.631593e+00  1.005000e+00  7.411810e-02
     vertex -2.631593e+00 -1.005000e+00  7.411810e-02
   endloop
 endfacet
 facet normal  1.000000e+00 -0.000000e+00  0.000000e+00
   outer loop
     vertex -2.535000e+00 -1.005000e+00  1.053000e+00
     vertex -2.535000e+00  1.005000e+00  1.000000e-01
     vertex -2.535000e+00  1.005000e+00  1.053000e+00
   endloop
 endfacet
 facet normal  1.000000e+00 -0.000000e+00  0.000000e+00
   outer loop
     vertex -2.535000e+00 -1.005000e+00  1.053000e+00
     vertex -2.535000e+00 -1.005000e+00  1.000000e-01
     vertex -2.535000e+00  1.005000e+00  1.000000e-01
   endloop
 endfacet
 facet normal  1.334403e-17  0.000000e+00 -1.000000e+00
   outer loop
     vertex -1.495000e+00 -1.005000e+00  0.000000e+00
     vertex -2.535000e+00 -1.005000e+00 -1.387779e-17
     vertex -2.535000e+00  1.005000e+00 -1.387779e-17
   endloop
 endfacet
 facet normal  1.334403e-17  0.000000e+00 -1.000000e+00
   outer loop
     vertex -1.495000e+00 -1.005000e+00  0.000000e+00
     vertex -2.535000e+00  1.005000e+00 -1.387779e-17
     vertex -1.495000e+00  1.005000e+00  0.000000e+00
   endloop
 endfacet
 facet normal -0.000000e+00  0.000000e+00  1.000000e+00
   outer loop
     vertex -2.535000e+00  1.005000e+00  1.000000e-01
     vertex -2.535000e+00 -1.005000e+00  1.000000e-01
     vertex -1.495000e+00 -1.005000e+00  1.000000e-01
   endloop
 endfacet
 facet normal  0.000000e+00  0.000000e+00  1.000000e+00
   outer loop
     vertex -1.495000e+00  1.005000e+00  1.000000e-01
     vertex -2.535000e+00  1.005000e+00  1.000000e-01
     vertex -1.495000e+00 -1.005000e+00  1.000000e-01
   endloop
 endfacet
 facet normal  1.000000e+00  0.000000e+00  0.000000e+00
   outer loop
     vertex -1.495000e+00 -1.005000e+00  0.000000e+00
     vertex -1.495000e+00  1.005000e+00  0.000000e+00
     vertex -1.495000e+00  1.005000e+00  1.000000e-01
   endloop
 endfacet
 facet normal  1.000000e+00 -0.000000e+00  0.000000e+00
   outer loop
     vertex -1.495000e+00 -1.005000e+00  1.000000e-01
     vertex -1.495000e+00 -1.005000e+00  0.000000e+00
     vertex -1.495000e+00  1.005000e+00  1.000000e-01
   endloop
 endfacet
 facet normal  0.000000e+00  1.000000e+00  0.000000e+00
   outer loop
     vertex -2.535000e+00  1.005000e+00  1.000000e-01
     vertex -2.535000e+00  1.005000e+00 -1.387779e-17
     vertex -2.560882e+00  1.005000e+00  3.407417e-03
   endloop
 endfacet
 facet normal  0.000000e+00  1.000000e+00  0.000000e+00
   outer loop
     vertex -2.535000e+00  1.005000e+00  1.000000e-01
     vertex -2.560882e+00  1.005000e+00  3.407417e-03
     vertex -2.585000e+00  1.005000e+00  1.339746e-02
   endloop
 endfacet
 facet normal  0.000000e+00  1.000000e+00  0.000000e+00
   outer loop
     vertex -2.535000e+00  1.005000e+00  1.000000e-01
     vertex -2.585000e+00  1.005000e+00  1.339746e-02
     vertex -2.605711e+00  1.005000e+00  2.928932e-02
   endloop
 endfacet
 facet normal  0.000000e+00  1.000000e+00  0.000000e+00
   outer loop
     vertex -2.535000e+00  1.005000e+00  1.000000e-01
     vertex -2.605711e+00  1.005000e+00  2.928932e-02
     vertex -2.621603e+00  1.005000e+00  5.000000e-02
   endloop
 endfacet
 facet normal  0.000000e+00  1.000000e+00  0.000000e+00
   outer loop
     vertex -2.535000e+00  1.005000e+00  1.000000e-01
     vertex -2.621603e+00  1.005000e+00  5.000000e-02
     vertex -2.631593e+00  1.005000e+00  7.411810e-02
   endloop
 endfacet
 facet normal  0.000000e+00  1.000000e+00  0.000000e+00
   outer loop
     vertex -2.535000e+00  1.005000e+00  1.000000e-01
     vertex -2.631593e+00  1.005000e+00  7.411810e-02
     vertex -2.635000e+00  1.005000e+00  1.000000e-01
   endloop
 endfacet
 facet normal  0.000000e+00  1.000000e+00 -0.000000e+00
   outer loop
     vertex -2.535000e+00  1.005000e+00  1.053000e+00
     vertex -2.635000e+00  1.005000e+00  1.000000e-01
     vertex -2.635000e+00  1.005000e+00  1.053000e+00
   endloop
 endfacet
 facet normal  0.000000e+00  1.000000e+00 -0.000000e+00
   outer loop
     vertex -2.535000e+00  1.005000e+00  1.053000e+00
     vertex -2.635000e+00  1.005000e+00  1.053000e+00
     vertex -2.631593e+00  1.005000e+00  1.078882e+00
   endloop
 endfacet
 facet normal  0.000000e+00  1.000000e+00 -0.000000e+00
   outer loop
     vertex -2.535000e+00  1.005000e+00  1.053000e+00
     vertex -2.631593e+00  1.005000e+00  1.078882e+00
     vertex -2.621603e+00  1.005000e+00  1.103000e+00
   endloop
 endfacet
 facet normal  0.000000e+00  1.000000e+00 -0.000000e+00
   outer loop
     vertex -2.535000e+00  1.005000e+00  1.053000e+00
     vertex -2.621603e+00  1.005000e+00  1.103000e+00
     vertex -2.605711e+00  1.005000e+00  1.123711e+00
   endloop
 endfacet
 facet normal  0.000000e+00  1.000000e+00  0.000000e+00
   outer loop
     vertex -2.535000e+00  1.005000e+00  1.053000e+00
     vertex -2.535000e+00  1.005000e+00  1.000000e-01
     vertex -2.635000e+00  1.005000e+00  1.000000e-01
   endloop
 endfacet
 facet normal  0.000000e+00  1.000000e+00  0.000000e+00
   outer loop
     vertex -2.585000e+00  1.005000e+00  1.139603e+00
     vertex -2.535000e+00  1.005000e+00  1.053000e+00
     vertex -2.605711e+00  1.005000e+00  1.123711e+00
   endloop
 endfacet
 facet normal  0.000000e+00  1.000000e+00  0.000000e+00
   outer loop
     vertex -2.560882e+00  1.005000e+00  1.149593e+00
     vertex -2.535000e+00  1.005000e+00  1.053000e+00
     vertex -2.585000e+00  1.005000e+00  1.139603e+00
   endloop
 endfacet
 facet normal  0.000000e+00  1.000000e+00  0.000000e+00
   outer loop
     vertex -1.495000e+00  1.005000e+00  1.000000e-01
     vertex -1.495000e+00  1.005000e+00  0.000000e+00
     vertex -2.535000e+00  1.005000e+00 -1.387779e-17
   endloop
 endfacet
 facet normal  0.000000e+00  1.000000e+00 -0.000000e+00
   outer loop
     vertex -1.495000e+00  1.005000e+00  1.000000e-01
     vertex -2.535000e+00  1.005000e+00 -1.387779e-17
     vertex -2.535000e+00  1.005000e+00  1.000000e-01
   endloop
 endfacet
 facet normal  0.000000e+00  1.000000e+00  0.000000e+00
   outer loop
     vertex -2.535000e+00  1.005000e+00  1.153000e+00
     vertex -2.535000e+00  1.005000e+00  1.053000e+00
     vertex -2.560882e+00  1.005000e+00  1.149593e+00
   endloop
 endfacet
 facet normal  0.000000e+00  1.000000e+00  0.000000e+00
   outer loop
     vertex -1.595000e+00  1.005000e+00  1.153000e+00
     vertex -1.595000e+00  1.005000e+00  1.053000e+00
     vertex -2.535000e+00  1.005000e+00  1.053000e+00
   endloop
 endfacet
 facet normal  0.000000e+00  1.000000e+00 -0.000000e+00
   outer loop
     vertex -1.595000e+00  1.005000e+00  1.153000e+00
     vertex -2.535000e+00  1.005000e+00  1.053000e+00
     vertex -2.535000e+00  1.005000e+00  1.153000e+00
   endloop
 endfacet
 facet normal  1.000000e+00 -0.000000e+00  0.000000e+00
   outer loop
     vertex  2.635000e+00 -1.005000e+00  1.053000e+00
     vertex  2.635000e+00 -1.005000e+00  1.000000e-01
     vertex  2.635000e+00  1.005000e+00  1.000000e-01
   endloop
 endfacet
 facet normal  1.000000e+00 -0.000000e+00  0.000000e+00
   outer loop
     vertex  2.635000e+00 -1.005000e+00  1.053000e+00
     vertex  2.635000e+00  1.005000e+00  1.000000e-01
     vertex  2.635000e+00  1.005000e+00  1.053000e+00
   endloop
 endfacet
 facet normal  0.000000e+00 -1.000000e+00  0.000000e+00
   outer loop
     vertex  1.395000e+00 -1.005000e+00  0.000000e+00
     vertex  2.535000e+00 -1.005000e+00 -1.387779e-17
     vertex  2.535000e+00 -1.005000e+00  1.000000e-01
   endloop
 endfacet
 facet normal  0.000000e+00 -1.000000e+00  0.000000e+00
   outer loop
     vertex  2.560882e+00 -1.005000e+00  3.407417e-03
     vertex  2.585000e+00 -1.005000e+00  1.339746e-02
     vertex  2.535000e+00 -1.005000e+00  1.000000e-01
   endloop
 endfacet
 facet normal  0.000000e+00 -1.000000e+00  0.000000e+00
   outer loop
     vertex  2.535000e+00 -1.005000e+00 -1.387779e-17
     vertex  2.560882e+00 -1.005000e+00  3.407417e-03
     vertex  2.535000e+00 -1.005000e+00  1.000000e-01
   endloop
 endfacet
 facet normal  0.000000e+00 -1.000000e+00  0.000000e+00
   outer loop
     vertex  1.395000e+00 -1.005000e+00  1.000000e-01
     vertex  1.395000e+00 -1.005000e+00  0.000000e+00
     vertex  2.535000e+00 -1.005000e+00  1.000000e-01
   endloop
 endfacet
 facet normal  0.000000e+00 -1.000000e+00  0.000000e+00
   outer loop
     vertex  2.535000e+00 -1.005000e+00  1.000000e-01
     vertex  2.585000e+00 -1.005000e+00  1.339746e-02
     vertex  2.605711e+00 -1.005000e+00  2.928932e-02
   endloop
 endfacet
 facet normal  0.000000e+00 -1.000000e+00  0.000000e+00
   outer loop
     vertex  2.535000e+00 -1.005000e+00  1.000000e-01
     vertex  2.605711e+00 -1.005000e+00  2.928932e-02
     vertex  2.621603e+00 -1.005000e+00  5.000000e-02
   endloop
 endfacet
 facet normal  0.000000e+00 -1.000000e+00  0.000000e+00
   outer loop
     vertex  2.535000e+00 -1.005000e+00  1.000000e-01
     vertex  2.621603e+00 -1.005000e+00  5.000000e-02
     vertex  2.631593e+00 -1.005000e+00  7.411810e-02
   endloop
 endfacet
 facet normal  0.000000e+00 -1.000000e+00  0.000000e+00
   outer loop
     vertex  2.535000e+00 -1.005000e+00  1.000000e-01
     vertex  2.631593e+00 -1.005000e+00  7.411810e-02
     vertex  2.635000e+00 -1.005000e+00  1.000000e-01
   endloop
 endfacet
 facet normal  0.000000e+00 -1.000000e+00  0.000000e+00
   outer loop
     vertex  1.495000e+00 -1.005000e+00  1.153000e+00
     vertex  1.495000e+00 -1.005000e+00  1.053000e+00
     vertex  2.535000e+00 -1.005000e+00  1.053000e+00
   endloop
 endfacet
 facet normal  0.000000e+00 -1.000000e+00  0.000000e+00
   outer loop
     vertex  2.535000e+00 -1.005000e+00  1.053000e+00
     vertex  2.535000e+00 -1.005000e+00  1.000000e-01
     vertex  2.635000e+00 -1.005000e+00  1.053000e+00
   endloop
 endfacet
 facet normal  0.000000e+00 -1.000000e+00  0.000000e+00
   outer loop
     vertex  2.535000e+00 -1.005000e+00  1.000000e-01
     vertex  2.635000e+00 -1.005000e+00  1.000000e-01
     vertex  2.635000e+00 -1.005000e+00  1.053000e+00
   endloop
 endfacet
 facet normal  0.000000e+00 -1.000000e+00  0.000000e+00
   outer loop
     vertex  1.495000e+00 -1.005000e+00  1.153000e+00
     vertex  2.535000e+00 -1.005000e+00  1.053000e+00
     vertex  2.535000e+00 -1.005000e+00  1.153000e+00
   endloop
 endfacet
 facet normal  0.000000e+00 -1.000000e+00  0.000000e+00
   outer loop
     vertex  2.535000e+00 -1.005000e+00  1.153000e+00
     vertex  2.535000e+00 -1.005000e+00  1.053000e+00
     vertex  2.560882e+00 -1.005000e+00  1.149593e+00
   endloop
 endfacet
 facet normal  0.000000e+00 -1.000000e+00  0.000000e+00
   outer loop
     vertex  2.535000e+00 -1.005000e+00  1.053000e+00
     vertex  2.635000e+00 -1.005000e+00  1.053000e+00
     vertex  2.631593e+00 -1.005000e+00  1.078882e+00
   endloop
 endfacet
 facet normal  0.000000e+00 -1.000000e+00 -0.000000e+00
   outer loop
     vertex  2.560882e+00 -1.005000e+00  1.149593e+00
     vertex  2.535000e+00 -1.005000e+00  1.053000e+00
     vertex  2.585000e+00 -1.005000e+00  1.139603e+00
   endloop
 endfacet
 facet normal  0.000000e+00 -1.000000e+00  0.000000e+00
   outer loop
     vertex  2.535000e+00 -1.005000e+00  1.053000e+00
     vertex  2.631593e+00 -1.005000e+00  1.078882e+00
     vertex  2.621603e+00 -1.005000e+00  1.103000e+00
   endloop
 endfacet
 facet normal  0.000000e+00 -1.000000e+00  0.000000e+00
   outer loop
     vertex  2.535000e+00 -1.005000e+00  1.053000e+00
     vertex  2.621603e+00 -1.005000e+00  1.103000e+00
     vertex  2.605711e+00 -1.005000e+00  1.123711e+00
   endloop
 endfacet
 facet normal  0.000000e+00 -1.000000e+00 -0.000000e+00
   outer loop
     vertex  2.585000e+00 -1.005000e+00  1.139603e+00
     vertex  2.535000e+00 -1.005000e+00  1.053000e+00
     vertex  2.605711e+00 -1.005000e+00  1.123711e+00
   endloop
 endfacet
 facet normal  9.914449e-01  0.000000e+00 -1.305262e-01
   outer loop
     vertex  2.631593e+00  1.005000e+00  7.411810e-02
     vertex  2.635000e+00 -1.005000e+00  1.000000e-01
     vertex  2.631593e+00 -1.005000e+00  7.411810e-02
   endloop
 endfacet
 facet normal  9.914449e-01  0.000000e+00 -1.305262e-01
   outer loop
     vertex  2.631593e+00  1.005000e+00  7.411810e-02
     vertex  2.635000e+00  1.005000e+00  1.000000e-01
     vertex  2.635000e+00 -1.005000e+00  1.000000e-01
   endloop
 endfacet
 facet normal  9.238795e-01  0.000000e+00 -3.826834e-01
   outer loop
     vertex  2.621603e+00  1.005000e+00  5.000000e-02
     vertex  2.631593e+00 -1.005000e+00  7.411810e-02
     vertex  2.621603e+00 -1.005000e+00  5.000000e-02
   endloop
 endfacet
 facet normal  7.933533e-01  0.000000e+00 -6.087614e-01
   outer loop
     vertex  2.621603e+00  1.005000e+00  5.000000e-02
     vertex  2.621603e+00 -1.005000e+00  5.000000e-02
     vertex  2.605711e+00 -1.005000e+00  2.928932e-02
   endloop
 endfacet
 facet normal  9.238795e-01  0.000000e+00 -3.826834e-01
   outer loop
     vertex  2.621603e+00  1.005000e+00  5.000000e-02
     vertex  2.631593e+00  1.005000e+00  7.411810e-02
     vertex  2.631593e+00 -1.005000e+00  7.411810e-02
   endloop
 endfacet
 facet normal  6.087614e-01  0.000000e+00 -7.933533e-01
   outer loop
     vertex  2.605711e+00  1.005000e+00  2.928932e-02
     vertex  2.605711e+00 -1.005000e+00  2.928932e-02
     vertex  2.585000e+00 -1.005000e+00  1.339746e-02
   endloop
 endfacet
 facet normal  7.933533e-01  0.000000e+00 -6.087614e-01
   outer loop
     vertex  2.605711e+00  1.005000e+00  2.928932e-02
     vertex  2.621603e+00  1.005000e+00  5.000000e-02
     vertex  2.605711e+00 -1.005000e+00  2.928932e-02
   endloop
 endfacet
 facet normal  3.826834e-01  0.000000e+00 -9.238795e-01
   outer loop
     vertex  2.585000e+00  1.005000e+00  1.339746e-02
     vertex  2.585000e+00 -1.005000e+00  1.339746e-02
     vertex  2.560882e+00 -1.005000e+00  3.407417e-03
   endloop
 endfacet
 facet normal  6.087614e-01  0.000000e+00 -7.933533e-01
   outer loop
     vertex  2.585000e+00  1.005000e+00  1.339746e-02
     vertex  2.605711e+00  1.005000e+00  2.928932e-02
     vertex  2.585000e+00 -1.005000e+00  1.339746e-02
   endloop
 endfacet
 facet normal  3.826834e-01  0.000000e+00 -9.238795e-01
   outer loop
     vertex  2.560882e+00  1.005000e+00  3.407417e-03
     vertex  2.585000e+00  1.005000e+00  1.339746e-02
     vertex  2.560882e+00 -1.005000e+00  3.407417e-03
   endloop
 endfacet
 facet normal  1.305262e-01  0.000000e+00 -9.914449e-01
   outer loop
     vertex  2.535000e+00  1.005000e+00 -1.387779e-17
     vertex  2.560882e+00 -1.005000e+00  3.407417e-03
     vertex  2.535000e+00 -1.005000e+00 -1.387779e-17
   endloop
 endfacet
 facet normal  1.305262e-01  0.000000e+00 -9.914449e-01
   outer loop
     vertex  2.535000e+00  1.005000e+00 -1.387779e-17
     vertex  2.560882e+00  1.005000e+00  3.407417e-03
     vertex  2.560882e+00 -1.005000e+00  3.407417e-03
   endloop
 endfacet
 facet normal  9.914449e-01  0.000000e+00  1.305262e-01
   outer loop
     vertex  2.631593e+00 -1.005000e+00  1.078882e+00
     vertex  2.635000e+00 -1.005000e+00  1.053000e+00
     vertex  2.631593e+00  1.005000e+00  1.078882e+00
   endloop
 endfacet
 facet normal  9.914449e-01 -0.000000e+00  1.305262e-01
   outer loop
     vertex  2.635000e+00 -1.005000e+00  1.053000e+00
     vertex  2.635000e+00  1.005000e+00  1.053000e+00
     vertex  2.631593e+00  1.005000e+00  1.078882e+00
   endloop
 endfacet
 facet normal  9.238795e-01  0.000000e+00  3.826834e-01
   outer loop
     vertex  2.621603e+00 -1.005000e+00  1.103000e+00
     vertex  2.631593e+00 -1.005000e+00  1.078882e+00
     vertex  2.621603e+00  1.005000e+00  1.103000e+00
   endloop
 endfacet
 facet normal  9.238795e-01 -0.000000e+00  3.826834e-01
   outer loop
     vertex  2.631593e+00 -1.005000e+00  1.078882e+00
     vertex  2.631593e+00  1.005000e+00  1.078882e+00
     vertex  2.621603e+00  1.005000e+00  1.103000e+00
   endloop
 endfacet
 facet normal  7.933533e-01  0.000000e+00  6.087614e-01
   outer loop
     vertex  2.605711e+00 -1.005000e+00  1.123711e+00
     vertex  2.621603e+00 -1.005000e+00  1.103000e+00
     vertex  2.605711e+00  1.005000e+00  1.123711e+00
   endloop
 endfacet
 facet normal  7.933533e-01 -0.000000e+00  6.087614e-01
   outer loop
     vertex  2.621603e+00 -1.005000e+00  1.103000e+00
     vertex  2.621603e+00  1.005000e+00  1.103000e+00
     vertex  2.605711e+00  1.005000e+00  1.123711e+00
   endloop
 endfacet
 facet normal  6.087614e-01  0.000000e+00  7.933533e-01
   outer loop
     vertex  2.585000e+00 -1.005000e+00  1.139603e+00
     vertex  2.605711e+00 -1.005000e+00  1.123711e+00
     vertex  2.585000e+00  1.005000e+00  1.139603e+00
   endloop
 endfacet
 facet normal  6.087614e-01 -0.000000e+00  7.933533e-01
   outer loop
     vertex  2.605711e+00 -1.005000e+00  1.123711e+00
     vertex  2.605711e+00  1.005000e+00  1.123711e+00
     vertex  2.585000e+00  1.005000e+00  1.139603e+00
   endloop
 endfacet
 facet normal  3.826834e-01  0.000000e+00  9.238795e-01
   outer loop
     vertex  2.560882e+00 -1.005000e+00  1.149593e+00
     vertex  2.585000e+00 -1.005000e+00  1.139603e+00
     vertex  2.560882e+00  1.005000e+00  1.149593e+00
   endloop
 endfacet
 facet normal  3.826834e-01 -0.000000e+00  9.238795e-01
   outer loop
     vertex  2.585000e+00 -1.005000e+00  1.139603e+00
     vertex  2.585000e+00  1.005000e+00  1.139603e+00
     vertex  2.560882e+00  1.005000e+00  1.149593e+00
   endloop
 endfacet
 facet normal  1.305262e-01  0.000000e+00  9.914449e-01
   outer loop
     vertex  2.535000e+00 -1.005000e+00  1.153000e+00
     vertex  2.560882e+00 -1.005000e+00  1.149593e+00
     vertex  2.535000e+00  1.005000e+00  1.153000e+00
   endloop
 endfacet
 facet normal  1.305262e-01 -0.000000e+00  9.914449e-01
   outer loop
     vertex  2.560882e+00 -1.005000e+00  1.149593e+00
     vertex  2.560882e+00  1.005000e+00  1.149593e+00
     vertex  2.535000e+00  1.005000e+00  1.153000e+00
   endloop
 endfacet
 facet normal  0.000000e+00  1.000000e+00  0.000000e+00
   outer loop
     vertex  2.535000e+00  1.005000e+00  1.000000e-01
     vertex  2.585000e+00  1.005000e+00  1.339746e-02
     vertex  2.560882e+00  1.005000e+00  3.407417e-03
   endloop
 endfacet
 facet normal  0.000000e+00  1.000000e+00  0.000000e+00
   outer loop
     vertex  2.535000e+00  1.005000e+00  1.000000e-01
     vertex  2.560882e+00  1.005000e+00  3.407417e-03
     vertex  2.535000e+00  1.005000e+00 -1.387779e-17
   endloop
 endfacet
 facet normal  0.000000e+00  1.000000e+00  0.000000e+00
   outer loop
     vertex  2.535000e+00  1.005000e+00  1.000000e-01
     vertex  2.535000e+00  1.005000e+00 -1.387779e-17
     vertex  1.395000e+00  1.005000e+00  0.000000e+00
   endloop
 endfacet
 facet normal  0.000000e+00  1.000000e+00 -0.000000e+00
   outer loop
     vertex  2.535000e+00  1.005000e+00  1.000000e-01
     vertex  1.395000e+00  1.005000e+00  0.000000e+00
     vertex  1.395000e+00  1.005000e+00  1.000000e-01
   endloop
 endfacet
 facet normal  0.000000e+00  1.000000e+00  0.000000e+00
   outer loop
     vertex  2.605711e+00  1.005000e+00  2.928932e-02
     vertex  2.585000e+00  1.005000e+00  1.339746e-02
     vertex  2.535000e+00  1.005000e+00  1.000000e-01
   endloop
 endfacet
 facet normal  0.000000e+00  1.000000e+00  0.000000e+00
   outer loop
     vertex  2.621603e+00  1.005000e+00  5.000000e-02
     vertex  2.605711e+00  1.005000e+00  2.928932e-02
     vertex  2.535000e+00  1.005000e+00  1.000000e-01
   endloop
 endfacet
 facet normal  0.000000e+00  1.000000e+00  0.000000e+00
   outer loop
     vertex  2.631593e+00  1.005000e+00  7.411810e-02
     vertex  2.621603e+00  1.005000e+00  5.000000e-02
     vertex  2.535000e+00  1.005000e+00  1.000000e-01
   endloop
 endfacet
 facet normal  0.000000e+00  1.000000e+00  0.000000e+00
   outer loop
     vertex  2.635000e+00  1.005000e+00  1.000000e-01
     vertex  2.631593e+00  1.005000e+00  7.411810e-02
     vertex  2.535000e+00  1.005000e+00  1.000000e-01
   endloop
 endfacet
 facet normal  0.000000e+00  1.000000e+00 -0.000000e+00
   outer loop
     vertex  2.535000e+00  1.005000e+00  1.053000e+00
     vertex  1.495000e+00  1.005000e+00  1.053000e+00
     vertex  1.495000e+00  1.005000e+00  1.153000e+00
   endloop
 endfacet
 facet normal  0.000000e+00  1.000000e+00  0.000000e+00
   outer loop
     vertex  2.535000e+00  1.005000e+00  1.153000e+00
     vertex  2.535000e+00  1.005000e+00  1.053000e+00
     vertex  1.495000e+00  1.005000e+00  1.153000e+00
   endloop
 endfacet
 facet normal  0.000000e+00  1.000000e+00 -0.000000e+00
   outer loop
     vertex  2.635000e+00  1.005000e+00  1.053000e+00
     vertex  2.535000e+00  1.005000e+00  1.000000e-01
     vertex  2.535000e+00  1.005000e+00  1.053000e+00
   endloop
 endfacet
 facet normal  0.000000e+00  1.000000e+00  0.000000e+00
   outer loop
     vertex  2.635000e+00  1.005000e+00  1.053000e+00
     vertex  2.635000e+00  1.005000e+00  1.000000e-01
     vertex  2.535000e+00  1.005000e+00  1.000000e-01
   endloop
 endfacet
 facet normal  0.000000e+00  1.000000e+00 -0.000000e+00
   outer loop
     vertex  2.560882e+00  1.005000e+00  1.149593e+00
     vertex  2.535000e+00  1.005000e+00  1.053000e+00
     vertex  2.535000e+00  1.005000e+00  1.153000e+00
   endloop
 endfacet
 facet normal  0.000000e+00  1.000000e+00  0.000000e+00
   outer loop
     vertex  2.631593e+00  1.005000e+00  1.078882e+00
     vertex  2.635000e+00  1.005000e+00  1.053000e+00
     vertex  2.535000e+00  1.005000e+00  1.053000e+00
   endloop
 endfacet
 facet normal  0.000000e+00  1.000000e+00  0.000000e+00
   outer loop
     vertex  2.621603e+00  1.005000e+00  1.103000e+00
     vertex  2.631593e+00  1.005000e+00  1.078882e+00
     vertex  2.535000e+00  1.005000e+00  1.053000e+00
   endloop
 endfacet
 facet normal  0.000000e+00  1.000000e+00 -0.000000e+00
   outer loop
     vertex  2.585000e+00  1.005000e+00  1.139603e+00
     vertex  2.535000e+00  1.005000e+00  1.053000e+00
     vertex  2.560882e+00  1.005000e+00  1.149593e+00
   endloop
 endfacet
 facet normal  0.000000e+00  1.000000e+00  0.000000e+00
   outer loop
     vertex  2.605711e+00  1.005000e+00  1.123711e+00
     vertex  2.621603e+00  1.005000e+00  1.103000e+00
     vertex  2.535000e+00  1.005000e+00  1.053000e+00
   endloop
 endfacet
 facet normal  0.000000e+00  1.000000e+00 -0.000000e+00
   outer loop
     vertex  2.605711e+00  1.005000e+00  1.123711e+00
     vertex  2.535000e+00  1.005000e+00  1.053000e+00
     vertex  2.585000e+00  1.005000e+00  1.139603e+00
   endloop
 endfacet
 facet normal -1.217350e-17  0.000000e+00 -1.000000e+00
   outer loop
     vertex  1.395000e+00 -1.005000e+00  0.000000e+00
     vertex  1.395000e+00  1.005000e+00  0.000000e+00
     vertex  2.535000e+00  1.005000e+00 -1.387779e-17
   endloop
 endfacet
 facet normal -1.217350e-17  0.000000e+00 -1.000000e+00
   outer loop
     vertex  2.535000e+00 -1.005000e+00 -1.387779e-17
     vertex  1.395000e+00 -1.005000e+00  0.000000e+00
     vertex  2.535000e+00  1.005000e+00 -1.387779e-17
   endloop
 endfacet
 facet normal -1.000000e+00 -0.000000e+00 -0.000000e+00
   outer loop
     vertex  1.395000e+00  1.005000e+00  1.000000e-01
     vertex  1.395000e+00  1.005000e+00  0.000000e+00
     vertex  1.395000e+00 -1.005000e+00  0.000000e+00
   endloop
 endfacet
 facet normal -1.000000e+00 -0.000000e+00  0.000000e+00
   outer loop
     vertex  1.395000e+00  1.005000e+00  1.000000e-01
     vertex  1.395000e+00 -1.005000e+00  0.000000e+00
     vertex  1.395000e+00 -1.005000e+00  1.000000e-01
   endloop
 endfacet
 facet normal  0.000000e+00  0.000000e+00  1.000000e+00
   outer loop
     vertex  2.535000e+00  1.005000e+00  1.000000e-01
     vertex  1.395000e+00  1.005000e+00  1.000000e-01
     vertex  1.395000e+00 -1.005000e+00  1.000000e-01
   endloop
 endfacet
 facet normal -0.000000e+00  0.000000e+00  1.000000e+00
   outer loop
     vertex  2.535000e+00  1.005000e+00  1.000000e-01
     vertex  1.395000e+00 -1.005000e+00  1.000000e-01
     vertex  2.535000e+00 -1.005000e+00  1.000000e-01
   endloop
 endfacet
 facet normal -1.000000e+00 -0.000000e+00 -0.000000e+00
   outer loop
     vertex  2.535000e+00  1.005000e+00  1.053000e+00
     vertex  2.535000e+00  1.005000e+00  1.000000e-01
     vertex  2.535000e+00 -1.005000e+00  1.053000e+00
   endloop
 endfacet
 facet normal -1.000000e+00  0.000000e+00  0.000000e+00
   outer loop
     vertex  2.535000e+00  1.005000e+00  1.000000e-01
     vertex  2.535000e+00 -1.005000e+00  1.000000e-01
     vertex  2.535000e+00 -1.005000e+00  1.053000e+00
   endloop
 endfacet
 facet normal  0.000000e+00  0.000000e+00  1.000000e+00
   outer loop
     vertex  1.495000e+00 -1.005000e+00  1.153000e+00
     vertex  2.535000e+00 -1.005000e+00  1.153000e+00
     vertex  2.535000e+00  1.005000e+00  1.153000e+00
   endloop
 endfacet
 facet normal  0.000000e+00 -0.000000e+00  1.000000e+00
   outer loop
     vertex  1.495000e+00 -1.005000e+00  1.153000e+00
     vertex  2.535000e+00  1.005000e+00  1.153000e+00
     vertex  1.495000e+00  1.005000e+00  1.153000e+00
   endloop
 endfacet
 facet normal  0.000000e+00  0.000000e+00 -1.000000e+00
   outer loop
     vertex  2.535000e+00 -1.005000e+00  1.053000e+00
     vertex  1.495000e+00 -1.005000e+00  1.053000e+00
     vertex  1.495000e+00  1.005000e+00  1.053000e+00
   endloop
 endfacet
 facet normal  0.000000e+00  0.000000e+00 -1.000000e+00
   outer loop
     vertex  2.535000e+00 -1.005000e+00  1.053000e+00
     vertex  1.495000e+00  1.005000e+00  1.053000e+00
     vertex  2.535000e+00  1.005000e+00  1.053000e+00
   endloop
 endfacet
 facet normal -1.000000e+00 -0.000000e+00 -0.000000e+00
   outer loop
     vertex  1.495000e+00  1.005000e+00  1.153000e+00
     vertex  1.495000e+00  1.005000e+00  1.053000e+00
     vertex  1.495000e+00 -1.005000e+00  1.053000e+00
   endloop
 endfacet
 facet normal -1.000000e+00 -0.000000e+00  0.000000e+00
   outer loop
     vertex  1.495000e+00  1.005000e+00  1.153000e+00
     vertex  1.495000e+00 -1.005000e+00  1.053000e+00
     vertex  1.495000e+00 -1.005000e+00  1.153000e+00
   endloop
 endfacet
endsolid
